<?xml version="1.0" encoding="UTF-8" standalone="no"?>
<!DOCTYPE svg PUBLIC "-//W3C//DTD SVG 1.1//EN" "http://www.w3.org/Graphics/SVG/1.1/DTD/svg11.dtd">
<svg xmlns="http://www.w3.org/2000/svg" version="1.1" viewBox="0.00 0.00 1948.00 1075.00">
<g stroke-width="2.00" fill="none" stroke-linecap="butt">
<path stroke="#292a2c" vector-effect="non-scaling-stroke" d="
  M 407.67 657.06
  Q 407.98 656.82 411.79 652.27
  Q 413.40 650.35 416.32 647.86
  C 426.24 639.43 435.38 628.45 444.62 619.98
  Q 454.24 611.16 465.59 598.72
  C 474.47 588.97 483.51 581.60 492.51 572.34
  Q 505.03 559.46 515.96 548.70
  C 533.98 530.95 551.56 512.79 569.76 495.25
  Q 576.62 488.63 583.25 481.75
  Q 594.79 469.77 606.28 458.53
  Q 610.29 454.61 614.20 450.70
  Q 615.35 449.56 636.70 428.12
  Q 641.41 423.39 648.55 416.63
  Q 659.11 406.63 660.40 405.13
  Q 670.21 393.66 682.69 382.95
  Q 683.58 382.18 683.89 381.55
  A 1.29 1.28 -58.9 0 0 683.49 379.92
  Q 680.76 377.97 668.22 370.06
  Q 647.80 357.17 626.26 350.27
  Q 608.01 344.43 602.78 343.41
  Q 577.53 338.53 549.74 340.06
  Q 522.95 341.54 497.78 350.79
  Q 464.87 362.89 438.46 384.55
  C 392.36 422.34 363.33 482.15 365.12 542.36
  Q 365.81 565.44 371.98 588.79
  Q 376.28 605.07 384.37 621.49
  Q 392.58 638.14 402.10 651.72
  Q 404.22 654.73 406.13 656.92
  A 1.13 1.12 -39.7 0 0 407.67 657.06"
/>
<path stroke="#4d5a50" vector-effect="non-scaling-stroke" d="
  M 705.07 377.09
  A 0.10 0.10 0.0 0 0 704.95 377.10
  L 363.83 717.97
  A 1.55 1.55 0.0 0 0 363.75 720.08
  C 375.08 733.23 394.41 739.08 411.12 732.34
  Q 416.77 730.05 426.62 723.54
  Q 430.22 721.17 435.88 715.39
  Q 436.41 714.85 444.70 706.71
  Q 452.19 699.37 462.61 685.36
  C 468.87 676.94 479.49 662.08 487.99 649.17
  Q 502.89 626.58 504.90 623.89
  C 508.08 619.63 512.48 615.19 517.54 613.72
  Q 528.60 610.52 540.45 613.18
  C 545.81 614.39 552.54 618.10 557.53 619.31
  Q 559.88 619.87 561.92 617.94
  Q 566.58 613.54 567.24 612.74
  Q 576.78 601.24 588.20 589.32
  C 600.50 576.47 610.94 562.91 623.11 548.23
  C 637.82 530.47 651.20 511.48 663.86 492.77
  Q 672.88 479.44 678.91 467.82
  Q 686.19 453.78 691.52 441.53
  Q 704.16 412.52 705.38 378.00
  Q 705.40 377.32 705.07 377.09"
/>
<path stroke="#292a2c" vector-effect="non-scaling-stroke" d="
  M 715.24 411.95
  A 0.76 0.75 26.0 0 0 714.04 412.36
  Q 712.74 417.57 710.59 424.47
  Q 709.32 428.57 706.21 436.24
  Q 702.71 444.89 701.19 449.48
  C 698.81 456.70 694.33 463.47 691.35 469.49
  Q 689.50 473.24 685.20 480.25
  Q 679.54 489.48 674.03 498.81
  C 666.95 510.80 658.77 521.65 650.79 531.77
  Q 644.72 539.45 639.68 546.50
  C 633.52 555.11 624.34 565.93 617.49 573.61
  C 614.08 577.42 609.65 583.60 605.78 587.24
  Q 604.50 588.45 600.45 593.61
  C 596.92 598.09 593.31 601.36 589.15 606.29
  C 583.81 612.62 576.59 618.75 571.91 624.29
  C 568.11 628.79 564.95 631.09 559.66 630.96
  Q 553.02 630.81 549.80 629.46
  Q 542.19 626.27 540.31 625.70
  C 534.92 624.05 526.78 623.13 521.16 625.41
  C 516.01 627.50 511.84 632.68 509.09 637.87
  Q 502.41 650.44 496.26 658.78
  Q 490.34 666.81 487.66 671.06
  C 482.17 679.79 475.66 687.47 470.46 694.59
  C 468.01 697.95 463.66 701.70 461.24 705.87
  A 1.60 1.60 0.0 0 0 461.77 708.02
  Q 468.06 711.94 475.67 715.57
  Q 494.50 724.55 514.97 730.02
  Q 526.97 733.24 544.33 734.79
  C 566.22 736.74 589.49 735.76 610.60 730.31
  C 653.74 719.18 690.76 694.90 718.31 660.09
  Q 753.24 615.96 760.22 558.15
  Q 762.36 540.44 760.59 522.82
  C 757.42 491.10 748.16 461.67 731.74 434.54
  Q 730.07 431.79 725.21 425.10
  Q 721.39 419.84 718.49 415.66
  Q 716.76 413.16 715.24 411.95"
/>
<path stroke="#84847d" vector-effect="non-scaling-stroke" d="
  M 897.20 481.55
  L 897.20 452.84
  A 0.85 0.85 0.0 0 0 896.35 451.99
  L 870.06 451.99
  A 1.00 1.00 0.0 0 0 869.06 452.99
  L 869.06 697.55
  A 0.54 0.54 0.0 0 0 869.87 698.02
  L 870.41 697.72
  A 1.11 1.06 -58.4 0 1 870.94 697.58
  L 896.21 697.58
  A 1.13 1.12 0.0 0 0 897.34 696.46
  Q 897.26 649.20 897.28 606.75
  Q 897.28 602.01 897.07 595.50
  Q 897.06 595.11 897.25 594.95
  A 0.58 0.56 53.4 0 1 898.09 595.09
  Q 901.34 599.96 904.73 603.58
  Q 927.45 627.78 960.23 629.13
  Q 983.24 630.07 1004.17 619.69
  Q 1013.64 614.99 1020.23 609.07
  Q 1023.24 606.36 1024.96 604.11
  C 1028.55 599.41 1032.35 595.77 1035.47 590.58
  C 1050.53 565.52 1053.12 535.00 1044.90 507.31
  C 1041.92 497.25 1035.84 485.31 1029.11 477.59
  Q 1022.84 470.41 1015.03 464.42
  Q 995.11 449.14 968.27 448.40
  Q 957.38 448.10 948.51 449.16
  Q 944.22 449.68 941.00 450.60
  Q 935.48 452.19 933.67 452.96
  Q 922.19 457.90 912.55 465.58
  C 906.77 470.19 901.96 475.95 897.85 481.76
  A 0.36 0.36 0.0 0 1 897.20 481.55"
/>
<path stroke="#84847d" vector-effect="non-scaling-stroke" d="
  M 1332.17 481.17
  L 1332.17 453.26
  A 1.22 1.22 0.0 0 0 1330.95 452.04
  L 1305.21 452.04
  A 0.97 0.97 0.0 0 0 1304.24 453.01
  L 1304.24 625.39
  A 0.33 0.33 0.0 0 0 1304.57 625.72
  L 1331.36 625.72
  A 0.53 0.53 0.0 0 0 1331.89 625.19
  Q 1331.91 541.62 1331.88 539.54
  Q 1331.61 523.36 1333.26 516.06
  Q 1335.86 504.59 1342.91 494.66
  Q 1350.87 483.45 1363.68 479.41
  Q 1370.99 477.10 1374.67 476.80
  Q 1384.02 476.02 1392.66 476.92
  A 0.95 0.95 0.0 0 0 1393.71 475.98
  L 1393.71 449.17
  A 0.83 0.83 0.0 0 0 1392.89 448.34
  C 1385.35 448.26 1377.18 448.61 1369.67 450.85
  Q 1344.94 458.23 1332.27 481.20
  A 0.05 0.05 0.0 0 1 1332.17 481.17"
/>
<path stroke="#84847d" vector-effect="non-scaling-stroke" d="
  M 1553.74 572.32
  Q 1547.78 589.35 1531.96 597.73
  C 1514.09 607.20 1493.77 608.07 1474.76 600.79
  C 1470.34 599.10 1466.36 596.49 1462.29 593.70
  C 1447.40 583.51 1440.43 566.02 1439.48 548.14
  A 0.24 0.24 0.0 0 1 1439.72 547.89
  L 1584.11 547.89
  A 0.57 0.57 0.0 0 0 1584.68 547.39
  Q 1588.46 516.71 1575.10 490.17
  C 1565.04 470.18 1544.82 456.07 1523.71 450.68
  Q 1517.38 449.07 1509.19 448.65
  Q 1499.63 448.17 1494.50 448.32
  C 1478.95 448.78 1463.84 452.91 1450.64 461.38
  Q 1438.60 469.11 1428.59 481.85
  Q 1423.70 488.07 1421.29 493.34
  Q 1407.32 523.88 1412.76 557.51
  C 1415.26 572.91 1422.02 588.90 1432.77 600.23
  Q 1438.74 606.52 1440.07 607.68
  C 1446.08 612.91 1453.82 617.27 1461.51 620.89
  C 1475.04 627.28 1490.81 629.64 1506.09 629.00
  Q 1516.74 628.55 1527.61 625.35
  C 1539.94 621.71 1553.01 615.93 1561.67 606.67
  Q 1565.43 602.64 1568.08 599.59
  Q 1575.09 591.50 1579.16 580.68
  Q 1579.82 578.94 1581.62 574.23
  A 0.88 0.88 0.0 0 0 1580.80 573.03
  Q 1565.59 573.07 1554.48 571.86
  A 0.70 0.69 -76.4 0 0 1553.74 572.32"
/>
<path stroke="#84847d" vector-effect="non-scaling-stroke" d="
  M 1257.23 625.08
  L 1257.23 453.50
  A 1.47 1.47 0.0 0 0 1255.76 452.03
  L 1229.99 452.03
  A 0.65 0.65 0.0 0 0 1229.34 452.68
  L 1229.34 481.50
  A 0.41 0.41 0.0 0 1 1228.59 481.74
  Q 1215.84 463.72 1194.96 453.98
  Q 1187.11 450.32 1178.23 449.30
  C 1164.85 447.76 1150.15 447.62 1137.19 451.64
  C 1113.27 459.07 1092.87 477.25 1084.16 500.91
  Q 1072.47 532.67 1080.89 566.38
  Q 1084.45 580.59 1094.17 594.41
  C 1097.16 598.66 1100.57 602.08 1104.72 606.78
  Q 1107.02 609.39 1114.60 614.70
  C 1117.81 616.95 1120.66 618.04 1123.91 619.97
  Q 1127.17 621.91 1131.19 623.33
  Q 1155.85 632.05 1179.59 627.79
  Q 1194.49 625.12 1209.78 614.55
  C 1216.86 609.67 1223.53 601.72 1228.41 594.97
  A 0.54 0.54 0.0 0 1 1229.39 595.29
  L 1229.39 625.12
  A 0.74 0.74 0.0 0 0 1230.13 625.86
  L 1256.45 625.86
  A 0.78 0.78 0.0 0 0 1257.23 625.08"
/>
<path stroke="#57595d" vector-effect="non-scaling-stroke" d="
  M 1856.87 983.87
  Q 1849.04 991.70 1836.98 995.24
  Q 1836.04 995.51 1836.04 996.63
  Q 1836.04 997.74 1836.99 998.01
  Q 1849.05 1001.54 1856.88 1009.37
  Q 1864.72 1017.20 1868.25 1029.26
  Q 1868.53 1030.20 1869.64 1030.20
  Q 1870.75 1030.20 1871.03 1029.25
  Q 1874.55 1017.19 1882.38 1009.36
  Q 1890.21 1001.52 1902.27 997.99
  Q 1903.21 997.71 1903.21 996.60
  Q 1903.21 995.49 1902.27 995.21
  Q 1890.21 991.69 1882.37 983.86
  Q 1874.54 976.03 1871.00 963.97
  Q 1870.73 963.03 1869.61 963.03
  Q 1868.50 963.03 1868.23 963.97
  Q 1864.70 976.03 1856.87 983.87"
/>
<path stroke="#84847d" vector-effect="non-scaling-stroke" d="
  M 896.93 538.50
  Q 896.95 546.54 897.99 552.50
  C 900.74 568.20 909.52 583.36 922.38 592.92
  Q 935.51 602.68 953.23 604.60
  Q 978.72 607.35 997.58 592.30
  C 1013.98 579.21 1021.57 558.69 1021.50 538.10
  C 1021.44 517.52 1013.72 497.04 997.23 484.06
  Q 978.27 469.13 952.80 472.05
  Q 935.09 474.08 922.03 483.92
  C 909.23 493.57 900.55 508.78 897.90 524.50
  Q 896.90 530.47 896.93 538.50"
/>
<path stroke="#84847d" vector-effect="non-scaling-stroke" d="
  M 1439.91 525.94
  L 1556.88 525.94
  A 0.57 0.56 -2.3 0 0 1557.45 525.33
  Q 1556.33 512.71 1551.05 500.90
  C 1543.55 484.11 1525.02 473.18 1507.23 471.62
  C 1490.11 470.13 1473.49 473.92 1460.17 485.11
  C 1448.46 494.96 1441.32 509.88 1439.28 525.22
  A 0.64 0.63 3.9 0 0 1439.91 525.94"
/>
<path stroke="#84847d" vector-effect="non-scaling-stroke" d="
  M 1105.11 538.91
  C 1105.30 555.32 1110.18 570.59 1120.49 583.53
  C 1131.45 597.30 1146.67 604.13 1164.43 604.87
  Q 1186.11 605.77 1203.19 593.45
  C 1221.25 580.42 1229.64 559.31 1229.39 537.51
  C 1229.15 515.70 1220.28 494.78 1201.93 482.17
  Q 1184.57 470.24 1162.92 471.63
  C 1145.18 472.77 1130.12 479.94 1119.47 493.96
  C 1109.47 507.13 1104.93 522.51 1105.11 538.91"
/>
<path stroke="#292a2c" vector-effect="non-scaling-stroke" d="
  M 1010.60 572.02
  Q 1013.60 568.72 1014.54 564.24
  A 1.09 1.09 0.0 0 0 1013.07 563.00
  L 1012.47 563.21
  A 2.55 2.54 -6.9 0 0 1010.78 565.36
  L 1010.14 571.81
  A 0.27 0.27 0.0 0 0 1010.60 572.02"
/>
</g>
<path fill="#1f2226" d="
  M 1948.00 0.00
  L 1948.00 1075.00
  L 0.00 1075.00
  L 0.00 0.00
  L 1948.00 0.00
  Z
  M 407.67 657.06
  Q 407.98 656.82 411.79 652.27
  Q 413.40 650.35 416.32 647.86
  C 426.24 639.43 435.38 628.45 444.62 619.98
  Q 454.24 611.16 465.59 598.72
  C 474.47 588.97 483.51 581.60 492.51 572.34
  Q 505.03 559.46 515.96 548.70
  C 533.98 530.95 551.56 512.79 569.76 495.25
  Q 576.62 488.63 583.25 481.75
  Q 594.79 469.77 606.28 458.53
  Q 610.29 454.61 614.20 450.70
  Q 615.35 449.56 636.70 428.12
  Q 641.41 423.39 648.55 416.63
  Q 659.11 406.63 660.40 405.13
  Q 670.21 393.66 682.69 382.95
  Q 683.58 382.18 683.89 381.55
  A 1.29 1.28 -58.9 0 0 683.49 379.92
  Q 680.76 377.97 668.22 370.06
  Q 647.80 357.17 626.26 350.27
  Q 608.01 344.43 602.78 343.41
  Q 577.53 338.53 549.74 340.06
  Q 522.95 341.54 497.78 350.79
  Q 464.87 362.89 438.46 384.55
  C 392.36 422.34 363.33 482.15 365.12 542.36
  Q 365.81 565.44 371.98 588.79
  Q 376.28 605.07 384.37 621.49
  Q 392.58 638.14 402.10 651.72
  Q 404.22 654.73 406.13 656.92
  A 1.13 1.12 -39.7 0 0 407.67 657.06
  Z
  M 705.07 377.09
  A 0.10 0.10 0.0 0 0 704.95 377.10
  L 363.83 717.97
  A 1.55 1.55 0.0 0 0 363.75 720.08
  C 375.08 733.23 394.41 739.08 411.12 732.34
  Q 416.77 730.05 426.62 723.54
  Q 430.22 721.17 435.88 715.39
  Q 436.41 714.85 444.70 706.71
  Q 452.19 699.37 462.61 685.36
  C 468.87 676.94 479.49 662.08 487.99 649.17
  Q 502.89 626.58 504.90 623.89
  C 508.08 619.63 512.48 615.19 517.54 613.72
  Q 528.60 610.52 540.45 613.18
  C 545.81 614.39 552.54 618.10 557.53 619.31
  Q 559.88 619.87 561.92 617.94
  Q 566.58 613.54 567.24 612.74
  Q 576.78 601.24 588.20 589.32
  C 600.50 576.47 610.94 562.91 623.11 548.23
  C 637.82 530.47 651.20 511.48 663.86 492.77
  Q 672.88 479.44 678.91 467.82
  Q 686.19 453.78 691.52 441.53
  Q 704.16 412.52 705.38 378.00
  Q 705.40 377.32 705.07 377.09
  Z
  M 715.24 411.95
  A 0.76 0.75 26.0 0 0 714.04 412.36
  Q 712.74 417.57 710.59 424.47
  Q 709.32 428.57 706.21 436.24
  Q 702.71 444.89 701.19 449.48
  C 698.81 456.70 694.33 463.47 691.35 469.49
  Q 689.50 473.24 685.20 480.25
  Q 679.54 489.48 674.03 498.81
  C 666.95 510.80 658.77 521.65 650.79 531.77
  Q 644.72 539.45 639.68 546.50
  C 633.52 555.11 624.34 565.93 617.49 573.61
  C 614.08 577.42 609.65 583.60 605.78 587.24
  Q 604.50 588.45 600.45 593.61
  C 596.92 598.09 593.31 601.36 589.15 606.29
  C 583.81 612.62 576.59 618.75 571.91 624.29
  C 568.11 628.79 564.95 631.09 559.66 630.96
  Q 553.02 630.81 549.80 629.46
  Q 542.19 626.27 540.31 625.70
  C 534.92 624.05 526.78 623.13 521.16 625.41
  C 516.01 627.50 511.84 632.68 509.09 637.87
  Q 502.41 650.44 496.26 658.78
  Q 490.34 666.81 487.66 671.06
  C 482.17 679.79 475.66 687.47 470.46 694.59
  C 468.01 697.95 463.66 701.70 461.24 705.87
  A 1.60 1.60 0.0 0 0 461.77 708.02
  Q 468.06 711.94 475.67 715.57
  Q 494.50 724.55 514.97 730.02
  Q 526.97 733.24 544.33 734.79
  C 566.22 736.74 589.49 735.76 610.60 730.31
  C 653.74 719.18 690.76 694.90 718.31 660.09
  Q 753.24 615.96 760.22 558.15
  Q 762.36 540.44 760.59 522.82
  C 757.42 491.10 748.16 461.67 731.74 434.54
  Q 730.07 431.79 725.21 425.10
  Q 721.39 419.84 718.49 415.66
  Q 716.76 413.16 715.24 411.95
  Z
  M 897.20 481.55
  L 897.20 452.84
  A 0.85 0.85 0.0 0 0 896.35 451.99
  L 870.06 451.99
  A 1.00 1.00 0.0 0 0 869.06 452.99
  L 869.06 697.55
  A 0.54 0.54 0.0 0 0 869.87 698.02
  L 870.41 697.72
  A 1.11 1.06 -58.4 0 1 870.94 697.58
  L 896.21 697.58
  A 1.13 1.12 0.0 0 0 897.34 696.46
  Q 897.26 649.20 897.28 606.75
  Q 897.28 602.01 897.07 595.50
  Q 897.06 595.11 897.25 594.95
  A 0.58 0.56 53.4 0 1 898.09 595.09
  Q 901.34 599.96 904.73 603.58
  Q 927.45 627.78 960.23 629.13
  Q 983.24 630.07 1004.17 619.69
  Q 1013.64 614.99 1020.23 609.07
  Q 1023.24 606.36 1024.96 604.11
  C 1028.55 599.41 1032.35 595.77 1035.47 590.58
  C 1050.53 565.52 1053.12 535.00 1044.90 507.31
  C 1041.92 497.25 1035.84 485.31 1029.11 477.59
  Q 1022.84 470.41 1015.03 464.42
  Q 995.11 449.14 968.27 448.40
  Q 957.38 448.10 948.51 449.16
  Q 944.22 449.68 941.00 450.60
  Q 935.48 452.19 933.67 452.96
  Q 922.19 457.90 912.55 465.58
  C 906.77 470.19 901.96 475.95 897.85 481.76
  A 0.36 0.36 0.0 0 1 897.20 481.55
  Z
  M 1332.17 481.17
  L 1332.17 453.26
  A 1.22 1.22 0.0 0 0 1330.95 452.04
  L 1305.21 452.04
  A 0.97 0.97 0.0 0 0 1304.24 453.01
  L 1304.24 625.39
  A 0.33 0.33 0.0 0 0 1304.57 625.72
  L 1331.36 625.72
  A 0.53 0.53 0.0 0 0 1331.89 625.19
  Q 1331.91 541.62 1331.88 539.54
  Q 1331.61 523.36 1333.26 516.06
  Q 1335.86 504.59 1342.91 494.66
  Q 1350.87 483.45 1363.68 479.41
  Q 1370.99 477.10 1374.67 476.80
  Q 1384.02 476.02 1392.66 476.92
  A 0.95 0.95 0.0 0 0 1393.71 475.98
  L 1393.71 449.17
  A 0.83 0.83 0.0 0 0 1392.89 448.34
  C 1385.35 448.26 1377.18 448.61 1369.67 450.85
  Q 1344.94 458.23 1332.27 481.20
  A 0.05 0.05 0.0 0 1 1332.17 481.17
  Z
  M 1553.74 572.32
  Q 1547.78 589.35 1531.96 597.73
  C 1514.09 607.20 1493.77 608.07 1474.76 600.79
  C 1470.34 599.10 1466.36 596.49 1462.29 593.70
  C 1447.40 583.51 1440.43 566.02 1439.48 548.14
  A 0.24 0.24 0.0 0 1 1439.72 547.89
  L 1584.11 547.89
  A 0.57 0.57 0.0 0 0 1584.68 547.39
  Q 1588.46 516.71 1575.10 490.17
  C 1565.04 470.18 1544.82 456.07 1523.71 450.68
  Q 1517.38 449.07 1509.19 448.65
  Q 1499.63 448.17 1494.50 448.32
  C 1478.95 448.78 1463.84 452.91 1450.64 461.38
  Q 1438.60 469.11 1428.59 481.85
  Q 1423.70 488.07 1421.29 493.34
  Q 1407.32 523.88 1412.76 557.51
  C 1415.26 572.91 1422.02 588.90 1432.77 600.23
  Q 1438.74 606.52 1440.07 607.68
  C 1446.08 612.91 1453.82 617.27 1461.51 620.89
  C 1475.04 627.28 1490.81 629.64 1506.09 629.00
  Q 1516.74 628.55 1527.61 625.35
  C 1539.94 621.71 1553.01 615.93 1561.67 606.67
  Q 1565.43 602.64 1568.08 599.59
  Q 1575.09 591.50 1579.16 580.68
  Q 1579.82 578.94 1581.62 574.23
  A 0.88 0.88 0.0 0 0 1580.80 573.03
  Q 1565.59 573.07 1554.48 571.86
  A 0.70 0.69 -76.4 0 0 1553.74 572.32
  Z
  M 1257.23 625.08
  L 1257.23 453.50
  A 1.47 1.47 0.0 0 0 1255.76 452.03
  L 1229.99 452.03
  A 0.65 0.65 0.0 0 0 1229.34 452.68
  L 1229.34 481.50
  A 0.41 0.41 0.0 0 1 1228.59 481.74
  Q 1215.84 463.72 1194.96 453.98
  Q 1187.11 450.32 1178.23 449.30
  C 1164.85 447.76 1150.15 447.62 1137.19 451.64
  C 1113.27 459.07 1092.87 477.25 1084.16 500.91
  Q 1072.47 532.67 1080.89 566.38
  Q 1084.45 580.59 1094.17 594.41
  C 1097.16 598.66 1100.57 602.08 1104.72 606.78
  Q 1107.02 609.39 1114.60 614.70
  C 1117.81 616.95 1120.66 618.04 1123.91 619.97
  Q 1127.17 621.91 1131.19 623.33
  Q 1155.85 632.05 1179.59 627.79
  Q 1194.49 625.12 1209.78 614.55
  C 1216.86 609.67 1223.53 601.72 1228.41 594.97
  A 0.54 0.54 0.0 0 1 1229.39 595.29
  L 1229.39 625.12
  A 0.74 0.74 0.0 0 0 1230.13 625.86
  L 1256.45 625.86
  A 0.78 0.78 0.0 0 0 1257.23 625.08
  Z
  M 1856.87 983.87
  Q 1849.04 991.70 1836.98 995.24
  Q 1836.04 995.51 1836.04 996.63
  Q 1836.04 997.74 1836.99 998.01
  Q 1849.05 1001.54 1856.88 1009.37
  Q 1864.72 1017.20 1868.25 1029.26
  Q 1868.53 1030.20 1869.64 1030.20
  Q 1870.75 1030.20 1871.03 1029.25
  Q 1874.55 1017.19 1882.38 1009.36
  Q 1890.21 1001.52 1902.27 997.99
  Q 1903.21 997.71 1903.21 996.60
  Q 1903.21 995.49 1902.27 995.21
  Q 1890.21 991.69 1882.37 983.86
  Q 1874.54 976.03 1871.00 963.97
  Q 1870.73 963.03 1869.61 963.03
  Q 1868.50 963.03 1868.23 963.97
  Q 1864.70 976.03 1856.87 983.87
  Z"
/>
<path fill="#323232" d="
  M 407.67 657.06
  A 1.13 1.12 -39.7 0 1 406.13 656.92
  Q 404.22 654.73 402.10 651.72
  Q 392.58 638.14 384.37 621.49
  Q 376.28 605.07 371.98 588.79
  Q 365.81 565.44 365.12 542.36
  C 363.33 482.15 392.36 422.34 438.46 384.55
  Q 464.87 362.89 497.78 350.79
  Q 522.95 341.54 549.74 340.06
  Q 577.53 338.53 602.78 343.41
  Q 608.01 344.43 626.26 350.27
  Q 647.80 357.17 668.22 370.06
  Q 680.76 377.97 683.49 379.92
  A 1.29 1.28 -58.9 0 1 683.89 381.55
  Q 683.58 382.18 682.69 382.95
  Q 670.21 393.66 660.40 405.13
  Q 659.11 406.63 648.55 416.63
  Q 641.41 423.39 636.70 428.12
  Q 615.35 449.56 614.20 450.70
  Q 610.29 454.61 606.28 458.53
  Q 594.79 469.77 583.25 481.75
  Q 576.62 488.63 569.76 495.25
  C 551.56 512.79 533.98 530.95 515.96 548.70
  Q 505.03 559.46 492.51 572.34
  C 483.51 581.60 474.47 588.97 465.59 598.72
  Q 454.24 611.16 444.62 619.98
  C 435.38 628.45 426.24 639.43 416.32 647.86
  Q 413.40 650.35 411.79 652.27
  Q 407.98 656.82 407.67 657.06
  Z"
/>
<path fill="#7b927a" d="
  M 705.07 377.09
  Q 705.40 377.32 705.38 378.00
  Q 704.16 412.52 691.52 441.53
  Q 686.19 453.78 678.91 467.82
  Q 672.88 479.44 663.86 492.77
  C 651.20 511.48 637.82 530.47 623.11 548.23
  C 610.94 562.91 600.50 576.47 588.20 589.32
  Q 576.78 601.24 567.24 612.74
  Q 566.58 613.54 561.92 617.94
  Q 559.88 619.87 557.53 619.31
  C 552.54 618.10 545.81 614.39 540.45 613.18
  Q 528.60 610.52 517.54 613.72
  C 512.48 615.19 508.08 619.63 504.90 623.89
  Q 502.89 626.58 487.99 649.17
  C 479.49 662.08 468.87 676.94 462.61 685.36
  Q 452.19 699.37 444.70 706.71
  Q 436.41 714.85 435.88 715.39
  Q 430.22 721.17 426.62 723.54
  Q 416.77 730.05 411.12 732.34
  C 394.41 739.08 375.08 733.23 363.75 720.08
  A 1.55 1.55 0.0 0 1 363.83 717.97
  L 704.95 377.10
  A 0.10 0.10 0.0 0 1 705.07 377.09
  Z"
/>
<path fill="#323232" d="
  M 715.24 411.95
  Q 716.76 413.16 718.49 415.66
  Q 721.39 419.84 725.21 425.10
  Q 730.07 431.79 731.74 434.54
  C 748.16 461.67 757.42 491.10 760.59 522.82
  Q 762.36 540.44 760.22 558.15
  Q 753.24 615.96 718.31 660.09
  C 690.76 694.90 653.74 719.18 610.60 730.31
  C 589.49 735.76 566.22 736.74 544.33 734.79
  Q 526.97 733.24 514.97 730.02
  Q 494.50 724.55 475.67 715.57
  Q 468.06 711.94 461.77 708.02
  A 1.60 1.60 0.0 0 1 461.24 705.87
  C 463.66 701.70 468.01 697.95 470.46 694.59
  C 475.66 687.47 482.17 679.79 487.66 671.06
  Q 490.34 666.81 496.26 658.78
  Q 502.41 650.44 509.09 637.87
  C 511.84 632.68 516.01 627.50 521.16 625.41
  C 526.78 623.13 534.92 624.05 540.31 625.70
  Q 542.19 626.27 549.80 629.46
  Q 553.02 630.81 559.66 630.96
  C 564.95 631.09 568.11 628.79 571.91 624.29
  C 576.59 618.75 583.81 612.62 589.15 606.29
  C 593.31 601.36 596.92 598.09 600.45 593.61
  Q 604.50 588.45 605.78 587.24
  C 609.65 583.60 614.08 577.42 617.49 573.61
  C 624.34 565.93 633.52 555.11 639.68 546.50
  Q 644.72 539.45 650.79 531.77
  C 658.77 521.65 666.95 510.80 674.03 498.81
  Q 679.54 489.48 685.20 480.25
  Q 689.50 473.24 691.35 469.49
  C 694.33 463.47 698.81 456.70 701.19 449.48
  Q 702.71 444.89 706.21 436.24
  Q 709.32 428.57 710.59 424.47
  Q 712.74 417.57 714.04 412.36
  A 0.76 0.75 26.0 0 1 715.24 411.95
  Z"
/>
<path fill="#e9e6d4" d="
  M 897.20 481.55
  A 0.36 0.36 0.0 0 0 897.85 481.76
  C 901.96 475.95 906.77 470.19 912.55 465.58
  Q 922.19 457.90 933.67 452.96
  Q 935.48 452.19 941.00 450.60
  Q 944.22 449.68 948.51 449.16
  Q 957.38 448.10 968.27 448.40
  Q 995.11 449.14 1015.03 464.42
  Q 1022.84 470.41 1029.11 477.59
  C 1035.84 485.31 1041.92 497.25 1044.90 507.31
  C 1053.12 535.00 1050.53 565.52 1035.47 590.58
  C 1032.35 595.77 1028.55 599.41 1024.96 604.11
  Q 1023.24 606.36 1020.23 609.07
  Q 1013.64 614.99 1004.17 619.69
  Q 983.24 630.07 960.23 629.13
  Q 927.45 627.78 904.73 603.58
  Q 901.34 599.96 898.09 595.09
  A 0.58 0.56 53.4 0 0 897.25 594.95
  Q 897.06 595.11 897.07 595.50
  Q 897.28 602.01 897.28 606.75
  Q 897.26 649.20 897.34 696.46
  A 1.13 1.12 -0.0 0 1 896.21 697.58
  L 870.94 697.58
  A 1.11 1.06 -58.4 0 0 870.41 697.72
  L 869.87 698.02
  A 0.54 0.54 0.0 0 1 869.06 697.55
  L 869.06 452.99
  A 1.00 1.00 0.0 0 1 870.06 451.99
  L 896.35 451.99
  A 0.85 0.85 0.0 0 1 897.20 452.84
  L 897.20 481.55
  Z
  M 896.93 538.50
  Q 896.95 546.54 897.99 552.50
  C 900.74 568.20 909.52 583.36 922.38 592.92
  Q 935.51 602.68 953.23 604.60
  Q 978.72 607.35 997.58 592.30
  C 1013.98 579.21 1021.57 558.69 1021.50 538.10
  C 1021.44 517.52 1013.72 497.04 997.23 484.06
  Q 978.27 469.13 952.80 472.05
  Q 935.09 474.08 922.03 483.92
  C 909.23 493.57 900.55 508.78 897.90 524.50
  Q 896.90 530.47 896.93 538.50
  Z"
/>
<path fill="#e9e6d4" d="
  M 1332.27 481.20
  Q 1344.94 458.23 1369.67 450.85
  C 1377.18 448.61 1385.35 448.26 1392.89 448.34
  A 0.83 0.83 0.0 0 1 1393.71 449.17
  L 1393.71 475.98
  A 0.95 0.95 0.0 0 1 1392.66 476.92
  Q 1384.02 476.02 1374.67 476.80
  Q 1370.99 477.10 1363.68 479.41
  Q 1350.87 483.45 1342.91 494.66
  Q 1335.86 504.59 1333.26 516.06
  Q 1331.61 523.36 1331.88 539.54
  Q 1331.91 541.62 1331.89 625.19
  A 0.53 0.53 0.0 0 1 1331.36 625.72
  L 1304.57 625.72
  A 0.33 0.33 0.0 0 1 1304.24 625.39
  L 1304.24 453.01
  A 0.97 0.97 0.0 0 1 1305.21 452.04
  L 1330.95 452.04
  A 1.22 1.22 0.0 0 1 1332.17 453.26
  L 1332.17 481.17
  A 0.05 0.05 0.0 0 0 1332.27 481.20
  Z"
/>
<path fill="#e9e6d4" d="
  M 1554.48 571.86
  Q 1565.59 573.07 1580.80 573.03
  A 0.88 0.88 0.0 0 1 1581.62 574.23
  Q 1579.82 578.94 1579.16 580.68
  Q 1575.09 591.50 1568.08 599.59
  Q 1565.43 602.64 1561.67 606.67
  C 1553.01 615.93 1539.94 621.71 1527.61 625.35
  Q 1516.74 628.55 1506.09 629.00
  C 1490.81 629.64 1475.04 627.28 1461.51 620.89
  C 1453.82 617.27 1446.08 612.91 1440.07 607.68
  Q 1438.74 606.52 1432.77 600.23
  C 1422.02 588.90 1415.26 572.91 1412.76 557.51
  Q 1407.32 523.88 1421.29 493.34
  Q 1423.70 488.07 1428.59 481.85
  Q 1438.60 469.11 1450.64 461.38
  C 1463.84 452.91 1478.95 448.78 1494.50 448.32
  Q 1499.63 448.17 1509.19 448.65
  Q 1517.38 449.07 1523.71 450.68
  C 1544.82 456.07 1565.04 470.18 1575.10 490.17
  Q 1588.46 516.71 1584.68 547.39
  A 0.57 0.57 0.0 0 1 1584.11 547.89
  L 1439.72 547.89
  A 0.24 0.24 0.0 0 0 1439.48 548.14
  C 1440.43 566.02 1447.40 583.51 1462.29 593.70
  C 1466.36 596.49 1470.34 599.10 1474.76 600.79
  C 1493.77 608.07 1514.09 607.20 1531.96 597.73
  Q 1547.78 589.35 1553.74 572.32
  A 0.70 0.69 -76.4 0 1 1554.48 571.86
  Z
  M 1439.91 525.94
  L 1556.88 525.94
  A 0.57 0.56 -2.3 0 0 1557.45 525.33
  Q 1556.33 512.71 1551.05 500.90
  C 1543.55 484.11 1525.02 473.18 1507.23 471.62
  C 1490.11 470.13 1473.49 473.92 1460.17 485.11
  C 1448.46 494.96 1441.32 509.88 1439.28 525.22
  A 0.64 0.63 3.9 0 0 1439.91 525.94
  Z"
/>
<path fill="#e9e6d4" d="
  M 1257.23 625.08
  A 0.78 0.78 0.0 0 1 1256.45 625.86
  L 1230.13 625.86
  A 0.74 0.74 0.0 0 1 1229.39 625.12
  L 1229.39 595.29
  A 0.54 0.54 0.0 0 0 1228.41 594.97
  C 1223.53 601.72 1216.86 609.67 1209.78 614.55
  Q 1194.49 625.12 1179.59 627.79
  Q 1155.85 632.05 1131.19 623.33
  Q 1127.17 621.91 1123.91 619.97
  C 1120.66 618.04 1117.81 616.95 1114.60 614.70
  Q 1107.02 609.39 1104.72 606.78
  C 1100.57 602.08 1097.16 598.66 1094.17 594.41
  Q 1084.45 580.59 1080.89 566.38
  Q 1072.47 532.67 1084.16 500.91
  C 1092.87 477.25 1113.27 459.07 1137.19 451.64
  C 1150.15 447.62 1164.85 447.76 1178.23 449.30
  Q 1187.11 450.32 1194.96 453.98
  Q 1215.84 463.72 1228.59 481.74
  A 0.41 0.41 0.0 0 0 1229.34 481.50
  L 1229.34 452.68
  A 0.65 0.65 0.0 0 1 1229.99 452.03
  L 1255.76 452.03
  A 1.47 1.47 0.0 0 1 1257.23 453.50
  L 1257.23 625.08
  Z
  M 1105.11 538.91
  C 1105.30 555.32 1110.18 570.59 1120.49 583.53
  C 1131.45 597.30 1146.67 604.13 1164.43 604.87
  Q 1186.11 605.77 1203.19 593.45
  C 1221.25 580.42 1229.64 559.31 1229.39 537.51
  C 1229.15 515.70 1220.28 494.78 1201.93 482.17
  Q 1184.57 470.24 1162.92 471.63
  C 1145.18 472.77 1130.12 479.94 1119.47 493.96
  C 1109.47 507.13 1104.93 522.51 1105.11 538.91
  Z"
/>
<path fill="#1f2226" d="
  M 1439.91 525.94
  A 0.64 0.63 3.9 0 1 1439.28 525.22
  C 1441.32 509.88 1448.46 494.96 1460.17 485.11
  C 1473.49 473.92 1490.11 470.13 1507.23 471.62
  C 1525.02 473.18 1543.55 484.11 1551.05 500.90
  Q 1556.33 512.71 1557.45 525.33
  A 0.57 0.56 -2.3 0 1 1556.88 525.94
  L 1439.91 525.94
  Z"
/>
<path fill="#1f2226" d="
  M 1021.50 538.10
  C 1021.57 558.69 1013.98 579.21 997.58 592.30
  Q 978.72 607.35 953.23 604.60
  Q 935.51 602.68 922.38 592.92
  C 909.52 583.36 900.74 568.20 897.99 552.50
  Q 896.95 546.54 896.93 538.50
  Q 896.90 530.47 897.90 524.50
  C 900.55 508.78 909.23 493.57 922.03 483.92
  Q 935.09 474.08 952.80 472.05
  Q 978.27 469.13 997.23 484.06
  C 1013.72 497.04 1021.44 517.52 1021.50 538.10
  Z
  M 1010.60 572.02
  Q 1013.60 568.72 1014.54 564.24
  A 1.09 1.09 0.0 0 0 1013.07 563.00
  L 1012.47 563.21
  A 2.55 2.54 -6.9 0 0 1010.78 565.36
  L 1010.14 571.81
  A 0.27 0.27 0.0 0 0 1010.60 572.02
  Z"
/>
<path fill="#1f2226" d="
  M 1229.39 537.51
  C 1229.64 559.31 1221.25 580.42 1203.19 593.45
  Q 1186.11 605.77 1164.43 604.87
  C 1146.67 604.13 1131.45 597.30 1120.49 583.53
  C 1110.18 570.59 1105.30 555.32 1105.11 538.91
  C 1104.93 522.51 1109.47 507.13 1119.47 493.96
  C 1130.12 479.94 1145.18 472.77 1162.92 471.63
  Q 1184.57 470.24 1201.93 482.17
  C 1220.28 494.78 1229.15 515.70 1229.39 537.51
  Z"
/>
<path fill="#323232" d="
  M 1010.60 572.02
  A 0.27 0.27 0.0 0 1 1010.14 571.81
  L 1010.78 565.36
  A 2.55 2.54 -6.9 0 1 1012.47 563.21
  L 1013.07 563.00
  A 1.09 1.09 0.0 0 1 1014.54 564.24
  Q 1013.60 568.72 1010.60 572.02
  Z"
/>
<path fill="#8f9093" d="
  M 1869.61 963.03
  Q 1870.73 963.03 1871.00 963.97
  Q 1874.54 976.03 1882.37 983.86
  Q 1890.21 991.69 1902.27 995.21
  Q 1903.21 995.49 1903.21 996.60
  Q 1903.21 997.71 1902.27 997.99
  Q 1890.21 1001.52 1882.38 1009.36
  Q 1874.55 1017.19 1871.03 1029.25
  Q 1870.75 1030.20 1869.64 1030.20
  Q 1868.53 1030.20 1868.25 1029.26
  Q 1864.72 1017.20 1856.88 1009.37
  Q 1849.05 1001.54 1836.99 998.01
  Q 1836.04 997.74 1836.04 996.63
  Q 1836.04 995.51 1836.98 995.24
  Q 1849.04 991.70 1856.87 983.87
  Q 1864.70 976.03 1868.23 963.97
  Q 1868.50 963.03 1869.61 963.03
  Z"
/>
</svg>
