<?xml version="1.0" encoding="UTF-8" standalone="no"?>
<!DOCTYPE svg PUBLIC "-//W3C//DTD SVG 1.1//EN" "http://www.w3.org/Graphics/SVG/1.1/DTD/svg11.dtd">
<svg xmlns="http://www.w3.org/2000/svg" version="1.1" viewBox="0.00 0.00 1948.00 1075.00">
<g stroke-width="2.00" fill="none" stroke-linecap="butt">
<path stroke="#989894" vector-effect="non-scaling-stroke" d="
  M 516.16 345.67
  L 504.28 349.21"
/>
<path stroke="#919391" vector-effect="non-scaling-stroke" d="
  M 504.28 349.21
  C 491.54 352.38 478.97 358.65 467.78 364.75
  Q 460.69 368.61 453.78 373.48
  Q 434.36 387.20 422.11 399.87
  Q 405.77 416.77 393.91 436.13
  C 368.65 477.38 359.48 526.05 368.17 574.00"
/>
<path stroke="#989894" vector-effect="non-scaling-stroke" d="
  M 368.17 574.00
  L 371.81 589.02"
/>
<path stroke="#919391" vector-effect="non-scaling-stroke" d="
  M 371.81 589.02
  C 376.76 606.13 383.40 622.96 392.95 638.05"
/>
<path stroke="#989894" vector-effect="non-scaling-stroke" d="
  M 392.95 638.05
  L 405.90 657.53
  A 0.83 0.82 51.2 0 0 407.16 657.67
  L 415.74 649.28"
/>
<path stroke="#919391" vector-effect="non-scaling-stroke" d="
  M 415.74 649.28
  L 425.95 639.07"
/>
<path stroke="#989894" vector-effect="non-scaling-stroke" d="
  M 425.95 639.07
  Q 436.47 627.91 444.59 620.08
  Q 468.09 597.41 485.29 579.29
  C 489.39 574.97 496.30 568.98 501.44 563.76
  Q 519.00 545.93 537.37 527.87
  Q 547.23 518.18 556.31 508.75
  C 558.73 506.22 561.67 503.88 564.34 501.05
  Q 567.34 497.88 569.99 495.26
  Q 585.41 480.09 596.00 469.26
  C 601.73 463.40 606.93 458.66 613.17 452.42
  Q 660.37 405.22 683.96 381.77
  A 0.59 0.58 41.4 0 0 683.90 380.89
  Q 670.22 370.60 656.28 363.15
  C 652.71 361.24 649.55 359.98 645.86 357.99
  C 635.48 352.38 623.19 348.46 611.75 345.73"
/>
<path stroke="#919391" vector-effect="non-scaling-stroke" d="
  M 611.75 345.73
  Q 596.69 341.71 578.75 340.42
  Q 546.27 338.07 516.16 345.67"
/>
<path stroke="#2e3031" vector-effect="non-scaling-stroke" d="
  M 611.75 345.73
  Q 609.08 346.60 607.58 346.55
  C 601.01 346.36 596.62 346.12 591.25 346.41
  Q 572.59 347.43 557.61 347.17
  Q 554.51 347.12 544.96 345.93
  Q 540.05 345.32 526.26 346.44
  Q 521.14 346.86 516.16 345.67"
/>
<path stroke="#2e3031" vector-effect="non-scaling-stroke" d="
  M 425.95 639.07
  Q 420.19 637.72 414.69 637.90
  A 1.09 1.09 0.0 0 0 413.66 639.20
  L 415.74 649.28"
/>
<path stroke="#2e3031" vector-effect="non-scaling-stroke" d="
  M 392.95 638.05
  C 392.47 634.73 391.84 631.33 391.88 628.08
  Q 392.01 619.34 391.88 616.99
  A 1.05 1.05 0.0 0 0 391.04 616.01
  L 384.09 614.62
  A 1.01 1.01 0.0 0 1 383.35 614.00
  Q 380.50 606.78 380.28 602.12
  Q 379.78 591.66 379.41 582.95
  A 0.27 0.26 88.9 0 0 379.15 582.69
  L 378.88 582.69
  A 0.48 0.47 -88.7 0 0 378.41 583.15
  L 378.05 593.69
  A 1.18 1.18 0.0 0 1 375.73 593.97
  Q 374.84 590.77 371.81 589.02"
/>
<path stroke="#2e3031" vector-effect="non-scaling-stroke" d="
  M 368.17 574.00
  C 370.41 566.19 369.14 559.27 369.19 552.05
  Q 369.22 545.47 369.07 539.57
  Q 368.62 522.69 369.47 509.92
  C 369.87 503.92 372.24 497.40 374.08 491.49
  C 375.58 486.69 375.19 481.49 377.08 476.54
  A 0.49 0.48 -34.6 0 1 378.02 476.71
  L 378.02 492.91
  A 0.72 0.72 0.0 0 0 379.45 493.05
  C 382.17 478.46 378.37 467.95 385.17 456.20
  C 385.69 455.30 386.39 453.49 387.31 452.82
  A 1.41 1.41 0.0 0 1 389.55 453.94
  L 389.63 458.49
  A 0.58 0.58 0.0 0 0 390.10 459.05
  L 390.47 459.13
  A 0.47 0.47 0.0 0 0 391.03 458.67
  C 391.05 453.00 391.05 447.12 392.77 441.63
  Q 393.76 438.46 397.00 433.85
  Q 399.73 429.97 405.10 422.59
  Q 409.20 416.95 412.58 413.46
  C 416.98 408.92 420.63 402.96 425.82 398.07
  Q 428.09 395.93 438.28 387.28
  C 441.02 384.95 445.65 382.52 449.02 379.31
  C 453.50 375.06 461.46 368.68 467.88 368.84
  Q 475.66 369.04 480.13 368.72
  A 0.17 0.17 0.0 0 0 480.19 368.39
  C 477.43 367.12 473.85 367.34 470.91 367.35
  A 0.70 0.69 -64.2 0 1 470.48 366.11
  C 474.98 362.55 480.87 361.33 487.39 359.28
  C 492.71 357.60 498.85 357.63 503.86 356.72
  A 0.59 0.59 0.0 0 0 503.75 355.55
  L 495.52 355.55
  A 0.75 0.75 0.0 0 1 495.30 354.09
  Q 500.22 352.55 504.28 349.21"
/>
<path stroke="#becab8" vector-effect="non-scaling-stroke" d="
  M 704.32 377.52
  C 702.65 378.81 701.29 381.16 699.66 382.63
  Q 694.88 386.95 691.10 390.86
  Q 685.59 396.58 676.73 405.22
  C 665.93 415.75 657.92 424.11 648.66 433.16
  Q 637.14 444.41 616.19 465.44
  Q 612.57 469.08 589.10 492.59
  Q 570.47 511.26 551.38 529.94
  Q 545.96 535.24 538.51 542.94
  Q 530.18 551.53 525.45 555.77
  Q 522.13 558.75 518.52 562.68
  Q 517.68 563.59 511.49 569.49
  Q 506.38 574.36 501.91 579.26
  Q 497.40 584.22 492.41 589.09
  Q 463.55 617.29 454.75 626.51
  Q 449.49 632.01 448.71 632.75
  Q 443.38 637.81 443.38 637.84
  Q 443.38 638.25 434.90 646.65
  Q 418.65 662.76 402.70 678.98
  C 388.42 693.50 376.43 704.99 362.85 719.00
  A 0.81 0.81 0.0 0 0 362.86 720.13
  C 368.91 726.13 375.69 731.02 383.99 733.57
  C 394.38 736.77 407.17 734.71 416.77 729.79
  C 429.86 723.08 438.34 713.53 449.33 702.10
  Q 453.52 697.75 457.55 691.90
  Q 460.16 688.13 465.63 681.54
  C 473.06 672.59 478.73 663.60 485.15 653.67
  C 490.63 645.19 494.81 639.71 500.02 631.36
  Q 505.28 622.95 509.44 619.42
  C 519.89 610.55 535.46 610.32 547.70 615.64
  Q 552.28 617.63 557.80 619.52
  A 3.58 3.58 0.0 0 0 561.32 618.82
  Q 566.24 614.53 570.34 609.60
  Q 571.85 607.78 582.02 596.53
  Q 588.12 589.79 603.05 572.89
  Q 609.08 566.06 613.42 560.61
  C 620.30 551.95 624.34 547.50 629.88 539.88
  C 634.51 533.52 641.29 525.70 645.78 519.40
  Q 663.88 494.03 671.98 480.77
  Q 683.13 462.54 693.82 436.47
  C 699.99 421.43 702.85 406.57 704.87 390.98
  Q 705.77 384.06 705.21 377.91
  A 0.55 0.55 0.0 0 0 704.32 377.52"
/>
<path stroke="#989894" vector-effect="non-scaling-stroke" d="
  M 661.39 518.47
  L 659.51 520.98"
/>
<path stroke="#919391" vector-effect="non-scaling-stroke" d="
  M 659.51 520.98
  Q 634.62 554.45 607.39 585.89
  Q 604.88 588.80 602.12 591.41"
/>
<path stroke="#989894" vector-effect="non-scaling-stroke" d="
  M 602.12 591.41
  L 598.90 595.12"
/>
<path stroke="#919391" vector-effect="non-scaling-stroke" d="
  M 598.90 595.12
  L 569.48 627.34"
/>
<path stroke="#989894" vector-effect="non-scaling-stroke" d="
  M 569.48 627.34
  C 560.57 634.45 551.58 630.00 542.42 625.86
  C 536.56 623.22 527.34 621.92 521.38 625.49
  Q 517.18 628.01 514.57 631.33
  C 507.85 639.85 502.53 649.48 496.41 658.51
  Q 485.66 674.39 474.45 689.93"
/>
<path stroke="#919391" vector-effect="non-scaling-stroke" d="
  M 474.45 689.93
  L 461.58 705.14
  A 0.98 0.97 -55.1 0 0 461.84 706.62
  L 474.50 713.95"
/>
<path stroke="#989894" vector-effect="non-scaling-stroke" d="
  M 474.50 713.95
  Q 491.14 723.25 509.75 728.63"
/>
<path stroke="#919391" vector-effect="non-scaling-stroke" d="
  M 509.75 728.63
  Q 521.20 732.24 533.23 733.62"
/>
<path stroke="#989894" vector-effect="non-scaling-stroke" d="
  M 533.23 733.62
  Q 562.97 738.33 592.75 733.93"
/>
<path stroke="#919391" vector-effect="non-scaling-stroke" d="
  M 592.75 733.93
  Q 605.52 732.49 617.55 728.70"
/>
<path stroke="#989894" vector-effect="non-scaling-stroke" d="
  M 617.55 728.70
  L 641.72 719.83"
/>
<path stroke="#919391" vector-effect="non-scaling-stroke" d="
  M 641.72 719.83
  Q 645.97 717.91 650.04 715.72
  Q 654.00 713.59 658.01 711.56
  C 664.23 708.40 669.58 704.83 675.19 701.05"
/>
<path stroke="#989894" vector-effect="non-scaling-stroke" d="
  M 675.19 701.05
  Q 680.65 697.46 685.80 693.31
  C 705.50 677.44 722.95 657.91 735.27 635.74"
/>
<path stroke="#919391" vector-effect="non-scaling-stroke" d="
  M 735.27 635.74
  Q 748.06 613.24 754.84 587.98"
/>
<path stroke="#989894" vector-effect="non-scaling-stroke" d="
  M 754.84 587.98
  Q 767.44 539.74 755.54 491.20"
/>
<path stroke="#919391" vector-effect="non-scaling-stroke" d="
  M 755.54 491.20
  Q 747.54 460.47 731.05 433.42
  Q 723.74 421.44 714.82 411.31
  A 0.66 0.66 0.0 0 0 713.68 411.64
  Q 713.32 413.78 713.05 414.91
  Q 710.05 427.13 702.98 445.52
  Q 698.27 457.77 688.98 474.54
  Q 676.40 497.25 661.39 518.47"
/>
<path stroke="#2e3031" vector-effect="non-scaling-stroke" d="
  M 755.54 491.20
  Q 753.63 491.85 752.31 493.10
  A 1.05 1.05 0.0 0 0 751.99 493.83
  L 751.76 520.84
  A 0.08 0.08 0.0 0 1 751.68 520.92
  L 751.41 520.92
  A 0.27 0.26 87.6 0 1 751.15 520.67
  Q 750.61 514.11 750.65 512.22
  Q 750.94 497.73 749.71 484.81
  C 748.83 475.49 746.54 466.55 742.29 459.08
  A 0.63 0.63 0.0 0 0 741.12 459.39
  L 741.12 469.76
  A 0.63 0.63 0.0 0 1 739.87 469.88
  C 738.72 464.29 739.01 460.63 738.77 453.00
  A 1.11 1.08 -77.9 0 0 738.17 452.05
  C 728.68 447.33 720.07 444.65 709.73 447.98
  Q 706.86 448.91 705.12 449.56
  A 0.74 0.74 0.0 0 0 704.64 450.25
  L 704.64 459.00
  A 0.27 0.27 0.0 0 1 704.37 459.27
  L 703.87 459.27
  A 0.44 0.43 -90.0 0 1 703.44 458.83
  L 703.44 452.28
  A 0.81 0.80 -32.0 0 0 701.91 451.93
  Q 700.67 454.47 696.70 462.99
  C 693.52 469.82 692.69 474.18 693.43 480.88
  A 0.85 0.85 0.0 0 1 692.15 481.71
  C 688.37 479.47 686.56 483.64 685.17 486.62
  C 682.96 491.34 683.02 496.54 683.13 502.22
  A 1.17 1.16 -88.7 0 1 681.89 503.41
  C 678.32 503.15 673.75 503.74 671.62 507.27
  Q 667.65 513.83 661.39 518.47"
/>
<path stroke="#2e3031" vector-effect="non-scaling-stroke" d="
  M 754.84 587.98
  Q 752.91 586.31 752.72 583.45
  Q 751.84 570.26 751.53 559.24
  Q 751.53 558.95 751.33 558.93
  A 0.41 0.40 -81.6 0 0 750.87 559.28
  Q 750.55 561.69 750.58 566.55
  Q 750.66 577.88 750.88 586.05
  C 751.20 597.71 746.65 607.13 741.97 617.91
  A 0.44 0.44 0.0 0 1 741.12 617.73
  L 741.12 605.54
  A 0.55 0.55 0.0 0 0 740.57 604.99
  L 740.17 604.99
  A 0.76 0.76 0.0 0 0 739.41 605.68
  Q 738.85 611.97 738.66 618.35
  C 738.47 624.41 734.16 629.45 735.27 635.74"
/>
<path stroke="#2e3031" vector-effect="non-scaling-stroke" d="
  M 675.19 701.05
  Q 672.42 700.84 670.54 701.66
  C 666.54 703.41 664.24 704.31 660.29 704.76
  Q 655.18 705.35 653.26 705.89
  A 3.23 2.79 -7.9 0 0 650.92 708.55
  C 650.87 709.81 650.52 710.86 649.35 711.80
  C 646.13 714.40 643.28 715.94 641.72 719.83"
/>
<path stroke="#2e3031" vector-effect="non-scaling-stroke" d="
  M 617.55 728.70
  C 611.59 727.09 605.10 728.15 598.98 728.05
  C 581.48 727.75 563.91 728.41 547.40 728.23
  C 541.13 728.17 532.27 728.89 526.93 728.47
  Q 516.09 727.61 509.75 728.63"
/>
<path stroke="#2e3031" vector-effect="non-scaling-stroke" d="
  M 474.50 713.95
  C 472.68 710.50 471.14 708.30 470.35 704.22
  A 0.65 0.65 0.0 0 0 469.72 703.69
  Q 468.34 703.67 467.91 703.46
  A 1.30 1.30 0.0 0 1 467.36 701.67
  C 469.51 697.81 473.42 694.79 474.45 689.93"
/>
<path stroke="#2e3031" vector-effect="non-scaling-stroke" d="
  M 569.48 627.34
  C 573.70 627.74 580.80 627.56 583.10 623.50
  Q 585.85 618.65 589.97 615.16
  A 7.68 7.67 -11.0 0 0 592.31 611.70
  C 593.64 607.66 593.93 605.12 597.55 603.20
  A 2.12 2.11 -12.9 0 0 598.67 601.42
  L 598.90 595.12"
/>
<path stroke="#2e3031" vector-effect="non-scaling-stroke" d="
  M 602.12 591.41
  L 602.61 593.44
  A 0.76 0.75 38.4 0 0 604.10 593.27
  L 604.10 592.24
  A 1.10 1.09 -24.6 0 1 604.37 591.52
  L 623.46 570.16
  A 0.59 0.59 0.0 0 1 624.29 570.12
  L 626.05 571.69
  A 0.48 0.47 20.2 0 0 626.84 571.33
  C 626.76 568.28 627.17 565.75 628.93 563.13
  Q 633.35 556.52 634.52 555.12
  Q 649.74 536.99 653.18 532.68
  Q 657.26 527.57 659.51 520.98"
/>
<path stroke="#2e3031" vector-effect="non-scaling-stroke" d="
  M 592.75 733.93
  Q 586.12 730.85 581.75 730.76
  Q 566.39 730.48 551.02 730.23
  Q 543.39 730.11 538.78 731.00
  Q 536.47 731.45 533.23 733.62"
/>
<path stroke="#919391" vector-effect="non-scaling-stroke" d="
  M 897.69 697.45
  Q 898.16 643.26 897.22 596.00
  A 0.50 0.50 0.0 0 1 898.11 595.69
  C 908.30 608.73 920.41 619.31 936.23 624.59
  Q 964.24 633.92 993.49 624.36
  C 1008.98 619.29 1023.95 607.50 1033.15 594.12
  Q 1040.27 583.79 1044.51 571.86
  C 1048.65 560.24 1050.10 546.86 1049.59 534.25
  Q 1048.55 508.98 1036.13 488.01
  C 1023.82 467.23 1001.70 451.95 977.49 449.06
  Q 961.89 447.19 948.87 449.13
  Q 921.46 453.19 902.72 475.14
  C 900.85 477.33 899.84 479.84 898.11 481.70
  A 0.54 0.53 -23.7 0 1 897.18 481.34
  L 897.18 452.94
  A 0.56 0.56 0.0 0 0 896.62 452.38
  L 869.58 452.38
  A 0.46 0.46 0.0 0 0 869.12 452.84
  L 869.12 697.59
  A 0.44 0.44 0.0 0 0 869.56 698.03
  L 897.10 698.03
  A 0.59 0.59 0.0 0 0 897.69 697.45"
/>
<path stroke="#919391" vector-effect="non-scaling-stroke" d="
  M 1581.39 573.23
  L 1554.71 572.31
  A 0.95 0.94 -76.9 0 0 1553.82 572.87
  C 1551.94 577.11 1549.92 581.30 1547.41 584.51
  C 1535.17 600.17 1516.87 606.31 1497.33 605.40
  Q 1472.24 604.23 1455.67 587.37
  C 1444.89 576.40 1440.94 563.41 1438.81 548.62
  A 0.27 0.26 85.4 0 1 1439.07 548.31
  L 1583.28 548.31
  A 1.77 1.77 0.0 0 0 1585.05 546.65
  C 1585.60 537.38 1585.96 528.69 1584.28 518.73
  Q 1576.30 471.61 1532.59 453.42
  Q 1527.27 451.21 1519.46 449.83
  C 1496.92 445.82 1473.77 448.12 1454.07 459.72
  Q 1439.50 468.30 1429.16 481.93
  C 1412.88 503.39 1408.71 529.54 1412.38 555.63
  C 1415.92 580.88 1430.84 604.32 1453.08 616.73
  Q 1475.73 629.37 1500.78 629.31
  Q 1510.09 629.28 1517.31 628.04
  Q 1520.22 627.53 1528.74 625.31
  C 1539.47 622.51 1549.85 616.68 1558.12 609.89
  Q 1566.34 603.14 1570.93 596.43
  Q 1577.58 586.70 1581.97 574.08
  A 0.64 0.64 0.0 0 0 1581.39 573.23"
/>
<path stroke="#919391" vector-effect="non-scaling-stroke" d="
  M 1229.53 595.73
  L 1229.53 625.63
  A 0.51 0.50 90.0 0 0 1230.03 626.14
  L 1257.05 626.14
  A 0.58 0.57 -90.0 0 0 1257.62 625.56
  L 1257.62 452.89
  A 0.57 0.57 0.0 0 0 1257.05 452.32
  L 1229.75 452.32
  A 0.30 0.30 0.0 0 0 1229.45 452.62
  L 1229.45 480.88
  A 0.31 0.31 0.0 0 1 1228.90 481.07
  Q 1224.59 475.43 1218.38 469.45
  Q 1200.64 452.36 1176.11 448.89
  C 1162.25 446.93 1144.22 448.27 1130.57 454.13
  C 1112.27 461.98 1097.89 475.00 1088.34 492.25
  Q 1079.52 508.19 1077.58 528.52
  Q 1075.96 545.41 1079.85 562.82
  Q 1082.65 575.36 1088.55 585.47
  Q 1095.76 597.83 1103.13 604.86
  Q 1130.19 630.66 1168.32 629.07
  C 1192.82 628.05 1214.83 615.19 1229.03 595.56
  A 0.28 0.28 0.0 0 1 1229.53 595.73"
/>
<path stroke="#919391" vector-effect="non-scaling-stroke" d="
  M 1304.78 626.13
  L 1331.48 626.13
  A 0.60 0.60 0.0 0 0 1332.08 625.53
  Q 1331.92 577.23 1331.91 532.24
  Q 1331.91 518.94 1336.40 506.86
  C 1345.34 482.85 1368.63 473.31 1392.85 477.77
  A 0.58 0.58 0.0 0 0 1393.53 477.20
  L 1393.53 449.58
  A 0.97 0.96 -88.8 0 0 1392.61 448.61
  Q 1377.68 447.97 1363.25 453.06
  C 1350.62 457.50 1338.88 468.57 1332.76 480.52
  A 0.38 0.38 0.0 0 1 1332.05 480.35
  L 1332.05 452.95
  A 0.59 0.59 0.0 0 0 1331.46 452.36
  L 1305.11 452.36
  A 0.68 0.67 90.0 0 0 1304.44 453.04
  L 1304.44 625.79
  A 0.34 0.34 0.0 0 0 1304.78 626.13"
/>
<path stroke="#919391" vector-effect="non-scaling-stroke" d="
  M 972.35 604.05
  C 979.62 602.45 985.85 600.91 992.18 596.72
  C 1011.00 584.27 1020.78 564.70 1021.59 542.51
  C 1022.28 523.45 1016.21 503.30 1003.23 489.54
  Q 988.53 473.93 965.81 471.97
  C 950.01 470.61 935.65 474.71 922.92 484.04
  Q 916.83 488.50 914.47 490.98
  C 907.63 498.13 902.84 507.90 899.49 518.53
  C 896.15 529.16 896.06 540.72 897.95 551.81
  Q 899.37 560.14 901.42 565.82
  C 904.77 575.09 911.25 583.33 918.81 590.13
  C 930.34 600.50 946.56 605.41 961.81 605.21
  Q 967.45 605.14 972.35 604.05"
/>
<path stroke="#919391" vector-effect="non-scaling-stroke" d="
  M 1557.22 525.16
  Q 1556.74 520.87 1555.96 515.96
  C 1553.84 502.66 1546.91 491.35 1536.23 482.90
  C 1519.59 469.70 1494.87 469.02 1475.74 475.99
  Q 1467.23 479.10 1460.76 485.03
  C 1458.26 487.32 1454.42 490.56 1451.94 493.84
  Q 1441.69 507.38 1439.51 524.82
  A 0.82 0.80 3.7 0 0 1440.32 525.73
  C 1452.57 525.67 1464.23 525.10 1476.54 525.25
  Q 1494.49 525.47 1556.91 525.51
  A 0.31 0.31 0.0 0 0 1557.22 525.16"
/>
<path stroke="#919391" vector-effect="non-scaling-stroke" d="
  M 1127.43 591.14
  Q 1141.95 603.30 1160.26 604.74
  Q 1176.20 605.99 1188.32 601.44
  Q 1205.83 594.88 1216.64 580.66
  Q 1227.02 566.99 1228.96 547.77
  C 1231.29 524.75 1225.18 502.00 1207.46 486.33
  C 1192.56 473.15 1170.68 469.14 1151.64 473.15
  C 1133.74 476.92 1119.07 490.61 1111.78 507.04
  Q 1099.75 534.17 1108.57 562.33
  Q 1114.08 579.95 1127.43 591.14"
/>
</g>
<path fill="#fbfbf3" d="
  M 1948.00 0.00
  L 1948.00 1075.00
  L 0.00 1075.00
  L 0.00 0.00
  L 1948.00 0.00
  Z
  M 516.16 345.67
  L 504.28 349.21
  C 491.54 352.38 478.97 358.65 467.78 364.75
  Q 460.69 368.61 453.78 373.48
  Q 434.36 387.20 422.11 399.87
  Q 405.77 416.77 393.91 436.13
  C 368.65 477.38 359.48 526.05 368.17 574.00
  L 371.81 589.02
  C 376.76 606.13 383.40 622.96 392.95 638.05
  L 405.90 657.53
  A 0.83 0.82 51.2 0 0 407.16 657.67
  L 415.74 649.28
  L 425.95 639.07
  Q 436.47 627.91 444.59 620.08
  Q 468.09 597.41 485.29 579.29
  C 489.39 574.97 496.30 568.98 501.44 563.76
  Q 519.00 545.93 537.37 527.87
  Q 547.23 518.18 556.31 508.75
  C 558.73 506.22 561.67 503.88 564.34 501.05
  Q 567.34 497.88 569.99 495.26
  Q 585.41 480.09 596.00 469.26
  C 601.73 463.40 606.93 458.66 613.17 452.42
  Q 660.37 405.22 683.96 381.77
  A 0.59 0.58 41.4 0 0 683.90 380.89
  Q 670.22 370.60 656.28 363.15
  C 652.71 361.24 649.55 359.98 645.86 357.99
  C 635.48 352.38 623.19 348.46 611.75 345.73
  Q 596.69 341.71 578.75 340.42
  Q 546.27 338.07 516.16 345.67
  Z
  M 704.32 377.52
  C 702.65 378.81 701.29 381.16 699.66 382.63
  Q 694.88 386.95 691.10 390.86
  Q 685.59 396.58 676.73 405.22
  C 665.93 415.75 657.92 424.11 648.66 433.16
  Q 637.14 444.41 616.19 465.44
  Q 612.57 469.08 589.10 492.59
  Q 570.47 511.26 551.38 529.94
  Q 545.96 535.24 538.51 542.94
  Q 530.18 551.53 525.45 555.77
  Q 522.13 558.75 518.52 562.68
  Q 517.68 563.59 511.49 569.49
  Q 506.38 574.36 501.91 579.26
  Q 497.40 584.22 492.41 589.09
  Q 463.55 617.29 454.75 626.51
  Q 449.49 632.01 448.71 632.75
  Q 443.38 637.81 443.38 637.84
  Q 443.38 638.25 434.90 646.65
  Q 418.65 662.76 402.70 678.98
  C 388.42 693.50 376.43 704.99 362.85 719.00
  A 0.81 0.81 0.0 0 0 362.86 720.13
  C 368.91 726.13 375.69 731.02 383.99 733.57
  C 394.38 736.77 407.17 734.71 416.77 729.79
  C 429.86 723.08 438.34 713.53 449.33 702.10
  Q 453.52 697.75 457.55 691.90
  Q 460.16 688.13 465.63 681.54
  C 473.06 672.59 478.73 663.60 485.15 653.67
  C 490.63 645.19 494.81 639.71 500.02 631.36
  Q 505.28 622.95 509.44 619.42
  C 519.89 610.55 535.46 610.32 547.70 615.64
  Q 552.28 617.63 557.80 619.52
  A 3.58 3.58 0.0 0 0 561.32 618.82
  Q 566.24 614.53 570.34 609.60
  Q 571.85 607.78 582.02 596.53
  Q 588.12 589.79 603.05 572.89
  Q 609.08 566.06 613.42 560.61
  C 620.30 551.95 624.34 547.50 629.88 539.88
  C 634.51 533.52 641.29 525.70 645.78 519.40
  Q 663.88 494.03 671.98 480.77
  Q 683.13 462.54 693.82 436.47
  C 699.99 421.43 702.85 406.57 704.87 390.98
  Q 705.77 384.06 705.21 377.91
  A 0.55 0.55 0.0 0 0 704.32 377.52
  Z
  M 661.39 518.47
  L 659.51 520.98
  Q 634.62 554.45 607.39 585.89
  Q 604.88 588.80 602.12 591.41
  L 598.90 595.12
  L 569.48 627.34
  C 560.57 634.45 551.58 630.00 542.42 625.86
  C 536.56 623.22 527.34 621.92 521.38 625.49
  Q 517.18 628.01 514.57 631.33
  C 507.85 639.85 502.53 649.48 496.41 658.51
  Q 485.66 674.39 474.45 689.93
  L 461.58 705.14
  A 0.98 0.97 -55.1 0 0 461.84 706.62
  L 474.50 713.95
  Q 491.14 723.25 509.75 728.63
  Q 521.20 732.24 533.23 733.62
  Q 562.97 738.33 592.75 733.93
  Q 605.52 732.49 617.55 728.70
  L 641.72 719.83
  Q 645.97 717.91 650.04 715.72
  Q 654.00 713.59 658.01 711.56
  C 664.23 708.40 669.58 704.83 675.19 701.05
  Q 680.65 697.46 685.80 693.31
  C 705.50 677.44 722.95 657.91 735.27 635.74
  Q 748.06 613.24 754.84 587.98
  Q 767.44 539.74 755.54 491.20
  Q 747.54 460.47 731.05 433.42
  Q 723.74 421.44 714.82 411.31
  A 0.66 0.66 0.0 0 0 713.68 411.64
  Q 713.32 413.78 713.05 414.91
  Q 710.05 427.13 702.98 445.52
  Q 698.27 457.77 688.98 474.54
  Q 676.40 497.25 661.39 518.47
  Z
  M 897.69 697.45
  Q 898.16 643.26 897.22 596.00
  A 0.50 0.50 0.0 0 1 898.11 595.69
  C 908.30 608.73 920.41 619.31 936.23 624.59
  Q 964.24 633.92 993.49 624.36
  C 1008.98 619.29 1023.95 607.50 1033.15 594.12
  Q 1040.27 583.79 1044.51 571.86
  C 1048.65 560.24 1050.10 546.86 1049.59 534.25
  Q 1048.55 508.98 1036.13 488.01
  C 1023.82 467.23 1001.70 451.95 977.49 449.06
  Q 961.89 447.19 948.87 449.13
  Q 921.46 453.19 902.72 475.14
  C 900.85 477.33 899.84 479.84 898.11 481.70
  A 0.54 0.53 -23.7 0 1 897.18 481.34
  L 897.18 452.94
  A 0.56 0.56 0.0 0 0 896.62 452.38
  L 869.58 452.38
  A 0.46 0.46 0.0 0 0 869.12 452.84
  L 869.12 697.59
  A 0.44 0.44 0.0 0 0 869.56 698.03
  L 897.10 698.03
  A 0.59 0.59 0.0 0 0 897.69 697.45
  Z
  M 1581.39 573.23
  L 1554.71 572.31
  A 0.95 0.94 -76.9 0 0 1553.82 572.87
  C 1551.94 577.11 1549.92 581.30 1547.41 584.51
  C 1535.17 600.17 1516.87 606.31 1497.33 605.40
  Q 1472.24 604.23 1455.67 587.37
  C 1444.89 576.40 1440.94 563.41 1438.81 548.62
  A 0.27 0.26 85.4 0 1 1439.07 548.31
  L 1583.28 548.31
  A 1.77 1.77 0.0 0 0 1585.05 546.65
  C 1585.60 537.38 1585.96 528.69 1584.28 518.73
  Q 1576.30 471.61 1532.59 453.42
  Q 1527.27 451.21 1519.46 449.83
  C 1496.92 445.82 1473.77 448.12 1454.07 459.72
  Q 1439.50 468.30 1429.16 481.93
  C 1412.88 503.39 1408.71 529.54 1412.38 555.63
  C 1415.92 580.88 1430.84 604.32 1453.08 616.73
  Q 1475.73 629.37 1500.78 629.31
  Q 1510.09 629.28 1517.31 628.04
  Q 1520.22 627.53 1528.74 625.31
  C 1539.47 622.51 1549.85 616.68 1558.12 609.89
  Q 1566.34 603.14 1570.93 596.43
  Q 1577.58 586.70 1581.97 574.08
  A 0.64 0.64 0.0 0 0 1581.39 573.23
  Z
  M 1229.53 595.73
  L 1229.53 625.63
  A 0.51 0.50 90.0 0 0 1230.03 626.14
  L 1257.05 626.14
  A 0.58 0.57 -90.0 0 0 1257.62 625.56
  L 1257.62 452.89
  A 0.57 0.57 0.0 0 0 1257.05 452.32
  L 1229.75 452.32
  A 0.30 0.30 0.0 0 0 1229.45 452.62
  L 1229.45 480.88
  A 0.31 0.31 0.0 0 1 1228.90 481.07
  Q 1224.59 475.43 1218.38 469.45
  Q 1200.64 452.36 1176.11 448.89
  C 1162.25 446.93 1144.22 448.27 1130.57 454.13
  C 1112.27 461.98 1097.89 475.00 1088.34 492.25
  Q 1079.52 508.19 1077.58 528.52
  Q 1075.96 545.41 1079.85 562.82
  Q 1082.65 575.36 1088.55 585.47
  Q 1095.76 597.83 1103.13 604.86
  Q 1130.19 630.66 1168.32 629.07
  C 1192.82 628.05 1214.83 615.19 1229.03 595.56
  A 0.28 0.28 0.0 0 1 1229.53 595.73
  Z
  M 1304.78 626.13
  L 1331.48 626.13
  A 0.60 0.60 0.0 0 0 1332.08 625.53
  Q 1331.92 577.23 1331.91 532.24
  Q 1331.91 518.94 1336.40 506.86
  C 1345.34 482.85 1368.63 473.31 1392.85 477.77
  A 0.58 0.58 0.0 0 0 1393.53 477.20
  L 1393.53 449.58
  A 0.97 0.96 -88.8 0 0 1392.61 448.61
  Q 1377.68 447.97 1363.25 453.06
  C 1350.62 457.50 1338.88 468.57 1332.76 480.52
  A 0.38 0.38 0.0 0 1 1332.05 480.35
  L 1332.05 452.95
  A 0.59 0.59 0.0 0 0 1331.46 452.36
  L 1305.11 452.36
  A 0.68 0.67 90.0 0 0 1304.44 453.04
  L 1304.44 625.79
  A 0.34 0.34 0.0 0 0 1304.78 626.13
  Z"
/>
<path fill="#272b2e" d="
  M 611.75 345.73
  Q 609.08 346.60 607.58 346.55
  C 601.01 346.36 596.62 346.12 591.25 346.41
  Q 572.59 347.43 557.61 347.17
  Q 554.51 347.12 544.96 345.93
  Q 540.05 345.32 526.26 346.44
  Q 521.14 346.86 516.16 345.67
  Q 546.27 338.07 578.75 340.42
  Q 596.69 341.71 611.75 345.73
  Z"
/>
<path fill="#343434" d="
  M 611.75 345.73
  C 623.19 348.46 635.48 352.38 645.86 357.99
  C 649.55 359.98 652.71 361.24 656.28 363.15
  Q 670.22 370.60 683.90 380.89
  A 0.59 0.58 41.4 0 1 683.96 381.77
  Q 660.37 405.22 613.17 452.42
  C 606.93 458.66 601.73 463.40 596.00 469.26
  Q 585.41 480.09 569.99 495.26
  Q 567.34 497.88 564.34 501.05
  C 561.67 503.88 558.73 506.22 556.31 508.75
  Q 547.23 518.18 537.37 527.87
  Q 519.00 545.93 501.44 563.76
  C 496.30 568.98 489.39 574.97 485.29 579.29
  Q 468.09 597.41 444.59 620.08
  Q 436.47 627.91 425.95 639.07
  Q 420.19 637.72 414.69 637.90
  A 1.09 1.09 0.0 0 0 413.66 639.20
  L 415.74 649.28
  L 407.16 657.67
  A 0.83 0.82 51.2 0 1 405.90 657.53
  L 392.95 638.05
  C 392.47 634.73 391.84 631.33 391.88 628.08
  Q 392.01 619.34 391.88 616.99
  A 1.05 1.05 0.0 0 0 391.04 616.01
  L 384.09 614.62
  A 1.01 1.01 0.0 0 1 383.35 614.00
  Q 380.50 606.78 380.28 602.12
  Q 379.78 591.66 379.41 582.95
  A 0.27 0.26 88.9 0 0 379.15 582.69
  L 378.88 582.69
  A 0.48 0.47 -88.7 0 0 378.41 583.15
  L 378.05 593.69
  A 1.18 1.18 0.0 0 1 375.73 593.97
  Q 374.84 590.77 371.81 589.02
  L 368.17 574.00
  C 370.41 566.19 369.14 559.27 369.19 552.05
  Q 369.22 545.47 369.07 539.57
  Q 368.62 522.69 369.47 509.92
  C 369.87 503.92 372.24 497.40 374.08 491.49
  C 375.58 486.69 375.19 481.49 377.08 476.54
  A 0.49 0.48 -34.6 0 1 378.02 476.71
  L 378.02 492.91
  A 0.72 0.72 0.0 0 0 379.45 493.05
  C 382.17 478.46 378.37 467.95 385.17 456.20
  C 385.69 455.30 386.39 453.49 387.31 452.82
  A 1.41 1.41 0.0 0 1 389.55 453.94
  L 389.63 458.49
  A 0.58 0.58 0.0 0 0 390.10 459.05
  L 390.47 459.13
  A 0.47 0.47 0.0 0 0 391.03 458.67
  C 391.05 453.00 391.05 447.12 392.77 441.63
  Q 393.76 438.46 397.00 433.85
  Q 399.73 429.97 405.10 422.59
  Q 409.20 416.95 412.58 413.46
  C 416.98 408.92 420.63 402.96 425.82 398.07
  Q 428.09 395.93 438.28 387.28
  C 441.02 384.95 445.65 382.52 449.02 379.31
  C 453.50 375.06 461.46 368.68 467.88 368.84
  Q 475.66 369.04 480.13 368.72
  A 0.17 0.17 0.0 0 0 480.19 368.39
  C 477.43 367.12 473.85 367.34 470.91 367.35
  A 0.70 0.69 -64.2 0 1 470.48 366.11
  C 474.98 362.55 480.87 361.33 487.39 359.28
  C 492.71 357.60 498.85 357.63 503.86 356.72
  A 0.59 0.59 0.0 0 0 503.75 355.55
  L 495.52 355.55
  A 0.75 0.75 0.0 0 1 495.30 354.09
  Q 500.22 352.55 504.28 349.21
  L 516.16 345.67
  Q 521.14 346.86 526.26 346.44
  Q 540.05 345.32 544.96 345.93
  Q 554.51 347.12 557.61 347.17
  Q 572.59 347.43 591.25 346.41
  C 596.62 346.12 601.01 346.36 607.58 346.55
  Q 609.08 346.60 611.75 345.73
  Z"
/>
<path fill="#272b2e" d="
  M 504.28 349.21
  Q 500.22 352.55 495.30 354.09
  A 0.75 0.75 0.0 0 0 495.52 355.55
  L 503.75 355.55
  A 0.59 0.59 0.0 0 1 503.86 356.72
  C 498.85 357.63 492.71 357.60 487.39 359.28
  C 480.87 361.33 474.98 362.55 470.48 366.11
  A 0.70 0.69 -64.2 0 0 470.91 367.35
  C 473.85 367.34 477.43 367.12 480.19 368.39
  A 0.17 0.17 0.0 0 1 480.13 368.72
  Q 475.66 369.04 467.88 368.84
  C 461.46 368.68 453.50 375.06 449.02 379.31
  C 445.65 382.52 441.02 384.95 438.28 387.28
  Q 428.09 395.93 425.82 398.07
  C 420.63 402.96 416.98 408.92 412.58 413.46
  Q 409.20 416.95 405.10 422.59
  Q 399.73 429.97 397.00 433.85
  Q 393.76 438.46 392.77 441.63
  C 391.05 447.12 391.05 453.00 391.03 458.67
  A 0.47 0.47 0.0 0 1 390.47 459.13
  L 390.10 459.05
  A 0.58 0.58 0.0 0 1 389.63 458.49
  L 389.55 453.94
  A 1.41 1.41 0.0 0 0 387.31 452.82
  C 386.39 453.49 385.69 455.30 385.17 456.20
  C 378.37 467.95 382.17 478.46 379.45 493.05
  A 0.72 0.72 0.0 0 1 378.02 492.91
  L 378.02 476.71
  A 0.49 0.48 -34.6 0 0 377.08 476.54
  C 375.19 481.49 375.58 486.69 374.08 491.49
  C 372.24 497.40 369.87 503.92 369.47 509.92
  Q 368.62 522.69 369.07 539.57
  Q 369.22 545.47 369.19 552.05
  C 369.14 559.27 370.41 566.19 368.17 574.00
  C 359.48 526.05 368.65 477.38 393.91 436.13
  Q 405.77 416.77 422.11 399.87
  Q 434.36 387.20 453.78 373.48
  Q 460.69 368.61 467.78 364.75
  C 478.97 358.65 491.54 352.38 504.28 349.21
  Z"
/>
<path fill="#80997d" d="
  M 704.32 377.52
  A 0.55 0.55 0.0 0 1 705.21 377.91
  Q 705.77 384.06 704.87 390.98
  C 702.85 406.57 699.99 421.43 693.82 436.47
  Q 683.13 462.54 671.98 480.77
  Q 663.88 494.03 645.78 519.40
  C 641.29 525.70 634.51 533.52 629.88 539.88
  C 624.34 547.50 620.30 551.95 613.42 560.61
  Q 609.08 566.06 603.05 572.89
  Q 588.12 589.79 582.02 596.53
  Q 571.85 607.78 570.34 609.60
  Q 566.24 614.53 561.32 618.82
  A 3.58 3.58 0.0 0 1 557.80 619.52
  Q 552.28 617.63 547.70 615.64
  C 535.46 610.32 519.89 610.55 509.44 619.42
  Q 505.28 622.95 500.02 631.36
  C 494.81 639.71 490.63 645.19 485.15 653.67
  C 478.73 663.60 473.06 672.59 465.63 681.54
  Q 460.16 688.13 457.55 691.90
  Q 453.52 697.75 449.33 702.10
  C 438.34 713.53 429.86 723.08 416.77 729.79
  C 407.17 734.71 394.38 736.77 383.99 733.57
  C 375.69 731.02 368.91 726.13 362.86 720.13
  A 0.81 0.81 0.0 0 1 362.85 719.00
  C 376.43 704.99 388.42 693.50 402.70 678.98
  Q 418.65 662.76 434.90 646.65
  Q 443.38 638.25 443.38 637.84
  Q 443.38 637.81 448.71 632.75
  Q 449.49 632.01 454.75 626.51
  Q 463.55 617.29 492.41 589.09
  Q 497.40 584.22 501.91 579.26
  Q 506.38 574.36 511.49 569.49
  Q 517.68 563.59 518.52 562.68
  Q 522.13 558.75 525.45 555.77
  Q 530.18 551.53 538.51 542.94
  Q 545.96 535.24 551.38 529.94
  Q 570.47 511.26 589.10 492.59
  Q 612.57 469.08 616.19 465.44
  Q 637.14 444.41 648.66 433.16
  C 657.92 424.11 665.93 415.75 676.73 405.22
  Q 685.59 396.58 691.10 390.86
  Q 694.88 386.95 699.66 382.63
  C 701.29 381.16 702.65 378.81 704.32 377.52
  Z"
/>
<path fill="#272b2e" d="
  M 755.54 491.20
  Q 753.63 491.85 752.31 493.10
  A 1.05 1.05 0.0 0 0 751.99 493.83
  L 751.76 520.84
  A 0.08 0.08 0.0 0 1 751.68 520.92
  L 751.41 520.92
  A 0.27 0.26 87.6 0 1 751.15 520.67
  Q 750.61 514.11 750.65 512.22
  Q 750.94 497.73 749.71 484.81
  C 748.83 475.49 746.54 466.55 742.29 459.08
  A 0.63 0.63 0.0 0 0 741.12 459.39
  L 741.12 469.76
  A 0.63 0.63 0.0 0 1 739.87 469.88
  C 738.72 464.29 739.01 460.63 738.77 453.00
  A 1.11 1.08 -77.9 0 0 738.17 452.05
  C 728.68 447.33 720.07 444.65 709.73 447.98
  Q 706.86 448.91 705.12 449.56
  A 0.74 0.74 0.0 0 0 704.64 450.25
  L 704.64 459.00
  A 0.27 0.27 0.0 0 1 704.37 459.27
  L 703.87 459.27
  A 0.44 0.43 -90.0 0 1 703.44 458.83
  L 703.44 452.28
  A 0.81 0.80 -32.0 0 0 701.91 451.93
  Q 700.67 454.47 696.70 462.99
  C 693.52 469.82 692.69 474.18 693.43 480.88
  A 0.85 0.85 0.0 0 1 692.15 481.71
  C 688.37 479.47 686.56 483.64 685.17 486.62
  C 682.96 491.34 683.02 496.54 683.13 502.22
  A 1.17 1.16 -88.7 0 1 681.89 503.41
  C 678.32 503.15 673.75 503.74 671.62 507.27
  Q 667.65 513.83 661.39 518.47
  Q 676.40 497.25 688.98 474.54
  Q 698.27 457.77 702.98 445.52
  Q 710.05 427.13 713.05 414.91
  Q 713.32 413.78 713.68 411.64
  A 0.66 0.66 0.0 0 1 714.82 411.31
  Q 723.74 421.44 731.05 433.42
  Q 747.54 460.47 755.54 491.20
  Z"
/>
<path fill="#343434" d="
  M 755.54 491.20
  Q 767.44 539.74 754.84 587.98
  Q 752.91 586.31 752.72 583.45
  Q 751.84 570.26 751.53 559.24
  Q 751.53 558.95 751.33 558.93
  A 0.41 0.40 -81.6 0 0 750.87 559.28
  Q 750.55 561.69 750.58 566.55
  Q 750.66 577.88 750.88 586.05
  C 751.20 597.71 746.65 607.13 741.97 617.91
  A 0.44 0.44 0.0 0 1 741.12 617.73
  L 741.12 605.54
  A 0.55 0.55 0.0 0 0 740.57 604.99
  L 740.17 604.99
  A 0.76 0.76 0.0 0 0 739.41 605.68
  Q 738.85 611.97 738.66 618.35
  C 738.47 624.41 734.16 629.45 735.27 635.74
  C 722.95 657.91 705.50 677.44 685.80 693.31
  Q 680.65 697.46 675.19 701.05
  Q 672.42 700.84 670.54 701.66
  C 666.54 703.41 664.24 704.31 660.29 704.76
  Q 655.18 705.35 653.26 705.89
  A 3.23 2.79 -7.9 0 0 650.92 708.55
  C 650.87 709.81 650.52 710.86 649.35 711.80
  C 646.13 714.40 643.28 715.94 641.72 719.83
  L 617.55 728.70
  C 611.59 727.09 605.10 728.15 598.98 728.05
  C 581.48 727.75 563.91 728.41 547.40 728.23
  C 541.13 728.17 532.27 728.89 526.93 728.47
  Q 516.09 727.61 509.75 728.63
  Q 491.14 723.25 474.50 713.95
  C 472.68 710.50 471.14 708.30 470.35 704.22
  A 0.65 0.65 0.0 0 0 469.72 703.69
  Q 468.34 703.67 467.91 703.46
  A 1.30 1.30 0.0 0 1 467.36 701.67
  C 469.51 697.81 473.42 694.79 474.45 689.93
  Q 485.66 674.39 496.41 658.51
  C 502.53 649.48 507.85 639.85 514.57 631.33
  Q 517.18 628.01 521.38 625.49
  C 527.34 621.92 536.56 623.22 542.42 625.86
  C 551.58 630.00 560.57 634.45 569.48 627.34
  C 573.70 627.74 580.80 627.56 583.10 623.50
  Q 585.85 618.65 589.97 615.16
  A 7.68 7.67 -11.0 0 0 592.31 611.70
  C 593.64 607.66 593.93 605.12 597.55 603.20
  A 2.12 2.11 -12.9 0 0 598.67 601.42
  L 598.90 595.12
  L 602.12 591.41
  L 602.61 593.44
  A 0.76 0.75 38.4 0 0 604.10 593.27
  L 604.10 592.24
  A 1.10 1.09 -24.6 0 1 604.37 591.52
  L 623.46 570.16
  A 0.59 0.59 0.0 0 1 624.29 570.12
  L 626.05 571.69
  A 0.48 0.47 20.2 0 0 626.84 571.33
  C 626.76 568.28 627.17 565.75 628.93 563.13
  Q 633.35 556.52 634.52 555.12
  Q 649.74 536.99 653.18 532.68
  Q 657.26 527.57 659.51 520.98
  L 661.39 518.47
  Q 667.65 513.83 671.62 507.27
  C 673.75 503.74 678.32 503.15 681.89 503.41
  A 1.17 1.16 -88.7 0 0 683.13 502.22
  C 683.02 496.54 682.96 491.34 685.17 486.62
  C 686.56 483.64 688.37 479.47 692.15 481.71
  A 0.85 0.85 0.0 0 0 693.43 480.88
  C 692.69 474.18 693.52 469.82 696.70 462.99
  Q 700.67 454.47 701.91 451.93
  A 0.81 0.80 -32.0 0 1 703.44 452.28
  L 703.44 458.83
  A 0.44 0.43 90.0 0 0 703.87 459.27
  L 704.37 459.27
  A 0.27 0.27 0.0 0 0 704.64 459.00
  L 704.64 450.25
  A 0.74 0.74 0.0 0 1 705.12 449.56
  Q 706.86 448.91 709.73 447.98
  C 720.07 444.65 728.68 447.33 738.17 452.05
  A 1.11 1.08 -77.9 0 1 738.77 453.00
  C 739.01 460.63 738.72 464.29 739.87 469.88
  A 0.63 0.63 0.0 0 0 741.12 469.76
  L 741.12 459.39
  A 0.63 0.63 0.0 0 1 742.29 459.08
  C 746.54 466.55 748.83 475.49 749.71 484.81
  Q 750.94 497.73 750.65 512.22
  Q 750.61 514.11 751.15 520.67
  A 0.27 0.26 87.6 0 0 751.41 520.92
  L 751.68 520.92
  A 0.08 0.08 0.0 0 0 751.76 520.84
  L 751.99 493.83
  A 1.05 1.05 0.0 0 1 752.31 493.10
  Q 753.63 491.85 755.54 491.20
  Z"
/>
<path fill="#272b2e" d="
  M 897.10 698.03
  L 869.56 698.03
  A 0.44 0.44 0.0 0 1 869.12 697.59
  L 869.12 452.84
  A 0.46 0.46 0.0 0 1 869.58 452.38
  L 896.62 452.38
  A 0.56 0.56 0.0 0 1 897.18 452.94
  L 897.18 481.34
  A 0.54 0.53 -23.7 0 0 898.11 481.70
  C 899.84 479.84 900.85 477.33 902.72 475.14
  Q 921.46 453.19 948.87 449.13
  Q 961.89 447.19 977.49 449.06
  C 1001.70 451.95 1023.82 467.23 1036.13 488.01
  Q 1048.55 508.98 1049.59 534.25
  C 1050.10 546.86 1048.65 560.24 1044.51 571.86
  Q 1040.27 583.79 1033.15 594.12
  C 1023.95 607.50 1008.98 619.29 993.49 624.36
  Q 964.24 633.92 936.23 624.59
  C 920.41 619.31 908.30 608.73 898.11 595.69
  A 0.50 0.50 0.0 0 0 897.22 596.00
  Q 898.16 643.26 897.69 697.45
  A 0.59 0.59 0.0 0 1 897.10 698.03
  Z
  M 972.35 604.05
  C 979.62 602.45 985.85 600.91 992.18 596.72
  C 1011.00 584.27 1020.78 564.70 1021.59 542.51
  C 1022.28 523.45 1016.21 503.30 1003.23 489.54
  Q 988.53 473.93 965.81 471.97
  C 950.01 470.61 935.65 474.71 922.92 484.04
  Q 916.83 488.50 914.47 490.98
  C 907.63 498.13 902.84 507.90 899.49 518.53
  C 896.15 529.16 896.06 540.72 897.95 551.81
  Q 899.37 560.14 901.42 565.82
  C 904.77 575.09 911.25 583.33 918.81 590.13
  C 930.34 600.50 946.56 605.41 961.81 605.21
  Q 967.45 605.14 972.35 604.05
  Z"
/>
<path fill="#272b2e" d="
  M 1581.39 573.23
  A 0.64 0.64 0.0 0 1 1581.97 574.08
  Q 1577.58 586.70 1570.93 596.43
  Q 1566.34 603.14 1558.12 609.89
  C 1549.85 616.68 1539.47 622.51 1528.74 625.31
  Q 1520.22 627.53 1517.31 628.04
  Q 1510.09 629.28 1500.78 629.31
  Q 1475.73 629.37 1453.08 616.73
  C 1430.84 604.32 1415.92 580.88 1412.38 555.63
  C 1408.71 529.54 1412.88 503.39 1429.16 481.93
  Q 1439.50 468.30 1454.07 459.72
  C 1473.77 448.12 1496.92 445.82 1519.46 449.83
  Q 1527.27 451.21 1532.59 453.42
  Q 1576.30 471.61 1584.28 518.73
  C 1585.96 528.69 1585.60 537.38 1585.05 546.65
  A 1.77 1.77 0.0 0 1 1583.28 548.31
  L 1439.07 548.31
  A 0.27 0.26 85.4 0 0 1438.81 548.62
  C 1440.94 563.41 1444.89 576.40 1455.67 587.37
  Q 1472.24 604.23 1497.33 605.40
  C 1516.87 606.31 1535.17 600.17 1547.41 584.51
  C 1549.92 581.30 1551.94 577.11 1553.82 572.87
  A 0.95 0.94 -76.9 0 1 1554.71 572.31
  L 1581.39 573.23
  Z
  M 1557.22 525.16
  Q 1556.74 520.87 1555.96 515.96
  C 1553.84 502.66 1546.91 491.35 1536.23 482.90
  C 1519.59 469.70 1494.87 469.02 1475.74 475.99
  Q 1467.23 479.10 1460.76 485.03
  C 1458.26 487.32 1454.42 490.56 1451.94 493.84
  Q 1441.69 507.38 1439.51 524.82
  A 0.82 0.80 3.7 0 0 1440.32 525.73
  C 1452.57 525.67 1464.23 525.10 1476.54 525.25
  Q 1494.49 525.47 1556.91 525.51
  A 0.31 0.31 0.0 0 0 1557.22 525.16
  Z"
/>
<path fill="#272b2e" d="
  M 1229.53 595.73
  A 0.28 0.28 0.0 0 0 1229.03 595.56
  C 1214.83 615.19 1192.82 628.05 1168.32 629.07
  Q 1130.19 630.66 1103.13 604.86
  Q 1095.76 597.83 1088.55 585.47
  Q 1082.65 575.36 1079.85 562.82
  Q 1075.96 545.41 1077.58 528.52
  Q 1079.52 508.19 1088.34 492.25
  C 1097.89 475.00 1112.27 461.98 1130.57 454.13
  C 1144.22 448.27 1162.25 446.93 1176.11 448.89
  Q 1200.64 452.36 1218.38 469.45
  Q 1224.59 475.43 1228.90 481.07
  A 0.31 0.31 0.0 0 0 1229.45 480.88
  L 1229.45 452.62
  A 0.30 0.30 0.0 0 1 1229.75 452.32
  L 1257.05 452.32
  A 0.57 0.57 0.0 0 1 1257.62 452.89
  L 1257.62 625.56
  A 0.58 0.57 -90.0 0 1 1257.05 626.14
  L 1230.03 626.14
  A 0.51 0.50 90.0 0 1 1229.53 625.63
  L 1229.53 595.73
  Z
  M 1127.43 591.14
  Q 1141.95 603.30 1160.26 604.74
  Q 1176.20 605.99 1188.32 601.44
  Q 1205.83 594.88 1216.64 580.66
  Q 1227.02 566.99 1228.96 547.77
  C 1231.29 524.75 1225.18 502.00 1207.46 486.33
  C 1192.56 473.15 1170.68 469.14 1151.64 473.15
  C 1133.74 476.92 1119.07 490.61 1111.78 507.04
  Q 1099.75 534.17 1108.57 562.33
  Q 1114.08 579.95 1127.43 591.14
  Z"
/>
<path fill="#272b2e" d="
  M 1304.78 626.13
  A 0.34 0.34 0.0 0 1 1304.44 625.79
  L 1304.44 453.04
  A 0.68 0.67 90.0 0 1 1305.11 452.36
  L 1331.46 452.36
  A 0.59 0.59 0.0 0 1 1332.05 452.95
  L 1332.05 480.35
  A 0.38 0.38 0.0 0 0 1332.76 480.52
  C 1338.88 468.57 1350.62 457.50 1363.25 453.06
  Q 1377.68 447.97 1392.61 448.61
  A 0.97 0.96 -88.8 0 1 1393.53 449.58
  L 1393.53 477.20
  A 0.58 0.58 0.0 0 1 1392.85 477.77
  C 1368.63 473.31 1345.34 482.85 1336.40 506.86
  Q 1331.91 518.94 1331.91 532.24
  Q 1331.92 577.23 1332.08 625.53
  A 0.60 0.60 0.0 0 1 1331.48 626.13
  L 1304.78 626.13
  Z"
/>
<path fill="#fbfbf3" d="
  M 1557.22 525.16
  A 0.31 0.31 0.0 0 1 1556.91 525.51
  Q 1494.49 525.47 1476.54 525.25
  C 1464.23 525.10 1452.57 525.67 1440.32 525.73
  A 0.82 0.80 3.7 0 1 1439.51 524.82
  Q 1441.69 507.38 1451.94 493.84
  C 1454.42 490.56 1458.26 487.32 1460.76 485.03
  Q 1467.23 479.10 1475.74 475.99
  C 1494.87 469.02 1519.59 469.70 1536.23 482.90
  C 1546.91 491.35 1553.84 502.66 1555.96 515.96
  Q 1556.74 520.87 1557.22 525.16
  Z"
/>
<path fill="#fbfbf3" d="
  M 961.81 605.21
  C 946.56 605.41 930.34 600.50 918.81 590.13
  C 911.25 583.33 904.77 575.09 901.42 565.82
  Q 899.37 560.14 897.95 551.81
  C 896.06 540.72 896.15 529.16 899.49 518.53
  C 902.84 507.90 907.63 498.13 914.47 490.98
  Q 916.83 488.50 922.92 484.04
  C 935.65 474.71 950.01 470.61 965.81 471.97
  Q 988.53 473.93 1003.23 489.54
  C 1016.21 503.30 1022.28 523.45 1021.59 542.51
  C 1020.78 564.70 1011.00 584.27 992.18 596.72
  C 985.85 600.91 979.62 602.45 972.35 604.05
  Q 967.45 605.14 961.81 605.21
  Z"
/>
<path fill="#fbfbf3" d="
  M 1127.43 591.14
  Q 1114.08 579.95 1108.57 562.33
  Q 1099.75 534.17 1111.78 507.04
  C 1119.07 490.61 1133.74 476.92 1151.64 473.15
  C 1170.68 469.14 1192.56 473.15 1207.46 486.33
  C 1225.18 502.00 1231.29 524.75 1228.96 547.77
  Q 1227.02 566.99 1216.64 580.66
  Q 1205.83 594.88 1188.32 601.44
  Q 1176.20 605.99 1160.26 604.74
  Q 1141.95 603.30 1127.43 591.14
  Z"
/>
<path fill="#272b2e" d="
  M 659.51 520.98
  Q 657.26 527.57 653.18 532.68
  Q 649.74 536.99 634.52 555.12
  Q 633.35 556.52 628.93 563.13
  C 627.17 565.75 626.76 568.28 626.84 571.33
  A 0.48 0.47 20.2 0 1 626.05 571.69
  L 624.29 570.12
  A 0.59 0.59 0.0 0 0 623.46 570.16
  L 604.37 591.52
  A 1.10 1.09 -24.6 0 0 604.10 592.24
  L 604.10 593.27
  A 0.76 0.75 38.4 0 1 602.61 593.44
  L 602.12 591.41
  Q 604.88 588.80 607.39 585.89
  Q 634.62 554.45 659.51 520.98
  Z"
/>
<path fill="#272b2e" d="
  M 754.84 587.98
  Q 748.06 613.24 735.27 635.74
  C 734.16 629.45 738.47 624.41 738.66 618.35
  Q 738.85 611.97 739.41 605.68
  A 0.76 0.76 0.0 0 1 740.17 604.99
  L 740.57 604.99
  A 0.55 0.55 0.0 0 1 741.12 605.54
  L 741.12 617.73
  A 0.44 0.44 0.0 0 0 741.97 617.91
  C 746.65 607.13 751.20 597.71 750.88 586.05
  Q 750.66 577.88 750.58 566.55
  Q 750.55 561.69 750.87 559.28
  A 0.41 0.40 -81.6 0 1 751.33 558.93
  Q 751.53 558.95 751.53 559.24
  Q 751.84 570.26 752.72 583.45
  Q 752.91 586.31 754.84 587.98
  Z"
/>
<path fill="#272b2e" d="
  M 392.95 638.05
  C 383.40 622.96 376.76 606.13 371.81 589.02
  Q 374.84 590.77 375.73 593.97
  A 1.18 1.18 0.0 0 0 378.05 593.69
  L 378.41 583.15
  A 0.48 0.47 -88.7 0 1 378.88 582.69
  L 379.15 582.69
  A 0.27 0.26 88.9 0 1 379.41 582.95
  Q 379.78 591.66 380.28 602.12
  Q 380.50 606.78 383.35 614.00
  A 1.01 1.01 0.0 0 0 384.09 614.62
  L 391.04 616.01
  A 1.05 1.05 0.0 0 1 391.88 616.99
  Q 392.01 619.34 391.88 628.08
  C 391.84 631.33 392.47 634.73 392.95 638.05
  Z"
/>
<path fill="#272b2e" d="
  M 598.90 595.12
  L 598.67 601.42
  A 2.12 2.11 -12.9 0 1 597.55 603.20
  C 593.93 605.12 593.64 607.66 592.31 611.70
  A 7.68 7.67 -11.0 0 1 589.97 615.16
  Q 585.85 618.65 583.10 623.50
  C 580.80 627.56 573.70 627.74 569.48 627.34
  L 598.90 595.12
  Z"
/>
<path fill="#272b2e" d="
  M 425.95 639.07
  L 415.74 649.28
  L 413.66 639.20
  A 1.09 1.09 0.0 0 1 414.69 637.90
  Q 420.19 637.72 425.95 639.07
  Z"
/>
<path fill="#272b2e" d="
  M 474.45 689.93
  C 473.42 694.79 469.51 697.81 467.36 701.67
  A 1.30 1.30 0.0 0 0 467.91 703.46
  Q 468.34 703.67 469.72 703.69
  A 0.65 0.65 0.0 0 1 470.35 704.22
  C 471.14 708.30 472.68 710.50 474.50 713.95
  L 461.84 706.62
  A 0.98 0.97 -55.1 0 1 461.58 705.14
  L 474.45 689.93
  Z"
/>
<path fill="#272b2e" d="
  M 675.19 701.05
  C 669.58 704.83 664.23 708.40 658.01 711.56
  Q 654.00 713.59 650.04 715.72
  Q 645.97 717.91 641.72 719.83
  C 643.28 715.94 646.13 714.40 649.35 711.80
  C 650.52 710.86 650.87 709.81 650.92 708.55
  A 3.23 2.79 -7.9 0 1 653.26 705.89
  Q 655.18 705.35 660.29 704.76
  C 664.24 704.31 666.54 703.41 670.54 701.66
  Q 672.42 700.84 675.19 701.05
  Z"
/>
<path fill="#272b2e" d="
  M 617.55 728.70
  Q 605.52 732.49 592.75 733.93
  Q 586.12 730.85 581.75 730.76
  Q 566.39 730.48 551.02 730.23
  Q 543.39 730.11 538.78 731.00
  Q 536.47 731.45 533.23 733.62
  Q 521.20 732.24 509.75 728.63
  Q 516.09 727.61 526.93 728.47
  C 532.27 728.89 541.13 728.17 547.40 728.23
  C 563.91 728.41 581.48 727.75 598.98 728.05
  C 605.10 728.15 611.59 727.09 617.55 728.70
  Z"
/>
<path fill="#343434" d="
  M 592.75 733.93
  Q 562.97 738.33 533.23 733.62
  Q 536.47 731.45 538.78 731.00
  Q 543.39 730.11 551.02 730.23
  Q 566.39 730.48 581.75 730.76
  Q 586.12 730.85 592.75 733.93
  Z"
/>
</svg>
