<?xml version="1.0" encoding="UTF-8" standalone="no"?>
<!DOCTYPE svg PUBLIC "-//W3C//DTD SVG 1.1//EN" "http://www.w3.org/Graphics/SVG/1.1/DTD/svg11.dtd">
<svg xmlns="http://www.w3.org/2000/svg" version="1.1" viewBox="0.00 0.00 1948.00 1075.00">
<g stroke-width="2.00" fill="none" stroke-linecap="butt">
<path stroke="#292b2c" vector-effect="non-scaling-stroke" d="
  M 948.62 1075.00
  L 1382.13 1074.67
  A 0.19 0.18 0.0 0 0 1382.32 1074.49
  L 1382.32 1074.20
  A 0.19 0.18 -0.0 0 0 1382.13 1074.02
  L 10.61 1074.23
  A 0.01 0.01 0.0 0 0 10.60 1074.24
  L 10.60 1074.60
  A 0.25 0.25 0.0 0 0 10.85 1074.85
  L 22.75 1075.00"
/>
<path stroke="#292b2c" vector-effect="non-scaling-stroke" d="
  M 835.05 496.06
  C 838.93 492.56 842.37 487.30 846.83 482.84
  Q 862.21 467.51 872.43 458.08
  Q 876.24 454.57 878.79 451.64
  C 887.62 441.53 895.17 434.53 907.33 422.95
  C 917.16 413.60 926.07 402.93 935.34 394.50
  C 944.39 386.26 953.18 376.02 960.61 369.11
  Q 975.85 354.92 983.45 346.27
  Q 984.16 345.46 988.10 341.79
  C 991.97 338.19 995.05 334.86 999.66 330.60
  Q 1009.78 321.26 1017.23 312.97
  Q 1027.92 301.07 1037.28 292.78
  C 1040.27 290.14 1042.63 287.00 1046.09 284.10
  Q 1053.90 277.58 1056.15 274.86
  Q 1066.57 262.25 1078.59 252.85
  C 1079.98 251.76 1081.41 250.16 1083.14 248.47
  A 1.76 1.76 0.0 0 0 1083.17 245.98
  Q 1082.08 244.85 1080.79 243.95
  Q 1068.00 234.98 1053.63 227.63
  C 1030.65 215.88 1004.44 209.56 979.21 208.60
  Q 964.14 208.03 952.38 209.94
  Q 942.02 211.62 920.53 217.57
  Q 913.27 219.58 906.24 222.75
  Q 897.14 226.86 887.56 232.05
  Q 881.39 235.40 868.57 244.31
  Q 862.35 248.64 847.49 262.25
  C 841.20 268.01 836.65 275.31 831.51 281.41
  Q 827.11 286.64 824.59 290.60
  Q 811.34 311.37 803.64 334.00
  Q 801.20 341.17 798.68 352.91
  Q 795.86 366.06 795.16 372.12
  Q 792.44 395.63 797.54 418.73
  Q 802.13 439.54 805.59 448.43
  Q 807.46 453.24 813.86 467.15
  C 816.69 473.30 820.57 479.77 824.33 486.18
  C 827.03 490.77 829.45 494.65 834.20 496.24
  A 0.86 0.85 32.8 0 0 835.05 496.06"
/>
<path stroke="#4d594e" vector-effect="non-scaling-stroke" d="
  M 1102.55 243.38
  Q 1099.33 247.13 1094.21 251.98
  Q 1090.39 255.59 1085.64 260.38
  Q 1072.18 273.95 1060.86 284.97
  Q 1057.76 287.98 1056.53 289.41
  C 1052.97 293.50 1049.44 296.25 1045.46 300.29
  Q 1033.65 312.27 1032.01 313.76
  C 1022.87 322.04 1011.87 334.16 1004.26 341.37
  Q 994.56 350.55 968.87 376.60
  C 963.21 382.34 955.32 389.57 949.20 396.05
  C 940.16 405.61 929.90 414.98 920.99 424.59
  C 917.33 428.52 914.11 430.92 910.58 434.80
  Q 909.53 435.95 903.04 442.33
  Q 877.88 467.04 850.97 494.97
  C 849.74 496.24 847.50 497.68 846.14 499.16
  C 840.24 505.60 830.28 515.95 822.08 523.73
  C 815.70 529.78 809.44 536.92 802.61 543.30
  Q 801.80 544.06 794.30 551.34
  A 2.31 2.31 0.0 0 0 794.26 554.61
  C 802.06 562.62 812.26 567.32 823.45 566.79
  C 831.28 566.42 837.10 565.63 843.13 561.89
  C 850.41 557.37 857.92 551.76 864.03 544.99
  Q 865.36 543.51 870.85 537.75
  C 876.21 532.13 881.06 525.17 886.27 517.78
  Q 900.52 497.59 916.38 473.23
  Q 920.71 466.58 923.41 463.94
  C 932.23 455.36 944.80 453.63 956.40 457.42
  Q 961.06 458.94 965.80 461.20
  C 969.83 463.12 972.29 461.87 975.40 458.57
  Q 995.62 437.07 999.14 433.14
  Q 1008.49 422.66 1026.65 400.63
  C 1029.17 397.58 1032.24 394.44 1034.44 391.47
  C 1045.68 376.27 1055.89 363.89 1064.56 350.29
  Q 1073.84 335.72 1077.61 329.13
  Q 1091.39 305.03 1098.54 278.86
  Q 1102.06 265.96 1102.46 257.98
  Q 1102.77 251.98 1103.36 243.72
  A 0.46 0.46 0.0 0 0 1102.55 243.38"
/>
<path stroke="#292b2c" vector-effect="non-scaling-stroke" d="
  M 1111.32 274.24
  A 0.54 0.54 0.0 0 0 1110.41 274.58
  C 1109.64 281.41 1108.89 285.87 1106.06 292.25
  C 1104.22 296.41 1101.81 304.18 1099.40 309.79
  Q 1089.03 333.87 1075.19 353.90
  Q 1070.04 361.37 1068.73 363.46
  Q 1065.37 368.83 1059.12 377.07
  Q 1046.36 393.87 1044.80 395.50
  C 1041.34 399.10 1038.59 404.06 1035.04 407.86
  C 1033.20 409.83 1031.63 412.71 1029.58 415.08
  C 1021.61 424.28 1016.37 429.56 1009.38 438.20
  Q 1001.19 448.33 986.68 462.91
  Q 979.49 470.14 977.09 471.18
  C 969.68 474.39 963.02 471.46 955.34 468.18
  C 949.27 465.59 939.88 464.43 934.52 469.01
  Q 929.67 473.16 926.80 477.02
  C 923.34 481.66 919.94 489.60 916.42 494.45
  C 912.15 500.35 909.63 504.99 905.11 510.83
  Q 901.04 516.10 897.52 521.18
  C 892.71 528.13 888.12 533.30 883.28 539.58
  A 1.98 1.97 41.0 0 0 883.47 542.20
  Q 883.78 542.50 885.20 543.30
  C 891.86 547.12 899.61 551.41 907.94 554.57
  Q 923.79 560.58 925.74 561.07
  Q 947.03 566.42 963.95 567.43
  Q 986.87 568.79 1013.00 563.78
  C 1024.72 561.54 1036.99 556.96 1047.85 552.09
  C 1056.09 548.40 1064.57 543.37 1070.73 539.22
  Q 1070.75 539.21 1081.35 531.52
  C 1095.09 521.56 1107.38 509.28 1117.04 496.27
  C 1128.55 480.76 1139.54 462.05 1145.16 442.95
  Q 1148.91 430.17 1152.09 411.92
  C 1155.39 393.00 1153.90 373.54 1150.05 354.30
  Q 1149.44 351.24 1147.48 342.27
  Q 1145.63 333.89 1144.24 330.32
  Q 1138.43 315.43 1134.42 308.04
  Q 1130.55 300.92 1123.72 289.52
  Q 1118.51 280.83 1111.32 274.24"
/>
<path stroke="#84847c" vector-effect="non-scaling-stroke" d="
  M 685.39 677.43
  A 0.28 0.28 0.0 0 1 684.88 677.28
  L 684.88 652.67
  A 0.78 0.78 0.0 0 0 684.10 651.89
  L 660.53 651.89
  A 0.57 0.56 -90.0 0 0 659.97 652.46
  L 659.97 864.72
  A 0.76 0.76 0.0 0 0 660.73 865.48
  L 684.24 865.48
  A 0.80 0.80 0.0 0 0 685.04 864.68
  L 685.04 776.43
  A 0.37 0.37 0.0 0 1 685.71 776.21
  Q 698.63 794.42 719.03 801.75
  C 726.85 804.55 737.70 805.37 746.01 805.27
  Q 766.35 805.03 784.16 794.38
  C 798.02 786.08 808.53 771.26 813.57 755.85
  C 826.67 715.79 811.23 665.30 767.20 652.07
  C 746.03 645.70 721.13 647.05 702.61 660.07
  Q 692.13 667.44 685.39 677.43"
/>
<path stroke="#84847c" vector-effect="non-scaling-stroke" d="
  M 976.21 677.32
  A 0.30 0.30 0.0 0 1 975.67 677.49
  Q 953.72 647.25 915.75 648.51
  Q 902.14 648.97 891.74 652.58
  Q 866.98 661.16 854.25 683.35
  Q 845.75 698.15 843.68 715.45
  Q 840.19 744.63 853.50 769.46
  C 862.79 786.80 881.10 798.92 899.95 803.17
  Q 921.23 807.98 940.43 802.40
  Q 952.62 798.85 965.03 788.39
  C 968.99 785.05 972.18 780.63 975.98 775.98
  A 0.15 0.15 0.0 0 1 976.25 776.08
  L 976.25 802.17
  A 0.65 0.64 -0.0 0 0 976.90 802.81
  L 1000.33 802.81
  A 0.70 0.70 0.0 0 0 1001.03 802.11
  L 1001.03 652.95
  A 1.07 1.07 0.0 0 0 999.96 651.88
  L 977.40 651.88
  A 1.20 1.19 90.0 0 0 976.21 653.08
  L 976.21 677.32"
/>
<path stroke="#84847c" vector-effect="non-scaling-stroke" d="
  M 1160.41 735.29
  L 1285.82 735.29
  A 2.00 1.99 2.5 0 0 1287.81 733.47
  Q 1289.58 713.10 1283.02 694.50
  C 1275.70 673.74 1258.60 657.79 1237.42 651.86
  Q 1212.33 644.84 1186.91 651.97
  Q 1174.82 655.36 1163.64 664.13
  Q 1154.17 671.56 1148.02 681.49
  C 1136.62 699.90 1133.16 722.13 1136.56 743.24
  Q 1139.06 758.76 1148.50 773.37
  C 1157.36 787.09 1171.45 795.88 1186.59 801.23
  Q 1194.14 803.89 1203.79 804.78
  Q 1217.15 806.00 1228.25 804.51
  Q 1234.70 803.65 1243.39 800.66
  Q 1270.14 791.47 1281.80 766.04
  Q 1283.60 762.11 1284.49 757.97
  A 1.05 1.05 0.0 0 0 1283.46 756.69
  L 1261.53 756.69
  A 1.83 1.83 0.0 0 0 1259.83 757.84
  C 1250.37 781.40 1224.61 787.66 1201.81 783.88
  Q 1184.57 781.01 1172.42 767.86
  C 1164.67 759.48 1160.80 747.32 1159.62 736.17
  A 0.80 0.79 87.1 0 1 1160.41 735.29"
/>
<path stroke="#84847c" vector-effect="non-scaling-stroke" d="
  M 1065.99 677.36
  L 1065.99 652.49
  A 0.48 0.48 0.0 0 0 1065.51 652.01
  L 1042.26 652.01
  A 0.55 0.55 0.0 0 0 1041.71 652.56
  L 1041.71 802.39
  A 0.44 0.44 0.0 0 0 1042.15 802.83
  L 1065.64 802.83
  A 0.53 0.53 0.0 0 0 1066.17 802.30
  Q 1066.12 772.69 1066.08 723.68
  Q 1066.07 714.87 1066.87 710.61
  C 1069.37 697.22 1077.04 685.46 1088.59 678.12
  C 1097.24 672.61 1109.07 672.83 1119.03 673.43
  A 0.98 0.98 0.0 0 0 1120.08 672.45
  L 1120.08 649.66
  A 0.91 0.91 0.0 0 0 1119.23 648.75
  C 1096.98 647.43 1076.79 657.58 1066.16 677.40
  A 0.09 0.09 0.0 0 1 1065.99 677.36"
/>
<path stroke="#57595d" vector-effect="non-scaling-stroke" d="
  M 1856.86 983.87
  Q 1849.83 990.91 1841.12 993.87
  Q 1836.66 995.38 1836.65 995.39
  A 2.49 2.03 -6.9 0 0 1836.31 995.74
  Q 1836.05 996.07 1836.05 996.64
  Q 1836.05 997.22 1836.32 997.55
  A 2.49 2.03 6.7 0 0 1836.65 997.90
  Q 1836.66 997.91 1841.13 999.41
  Q 1849.84 1002.35 1856.88 1009.38
  Q 1863.92 1016.41 1866.88 1025.12
  Q 1868.39 1029.58 1868.40 1029.59
  A 2.49 2.03 83.1 0 0 1868.75 1029.92
  Q 1869.08 1030.19 1869.65 1030.19
  Q 1870.23 1030.19 1870.56 1029.92
  A 2.49 2.03 -83.3 0 0 1870.91 1029.59
  Q 1870.92 1029.58 1872.42 1025.11
  Q 1875.36 1016.40 1882.39 1009.36
  Q 1889.42 1002.31 1898.12 999.36
  Q 1902.59 997.85 1902.60 997.84
  A 2.49 2.03 -6.9 0 0 1902.93 997.49
  Q 1903.20 997.16 1903.19 996.58
  Q 1903.19 996.01 1902.93 995.68
  A 2.49 2.03 6.7 0 0 1902.59 995.33
  Q 1902.58 995.32 1898.12 993.82
  Q 1889.41 990.88 1882.37 983.85
  Q 1875.32 976.82 1872.37 968.11
  Q 1870.86 963.65 1870.85 963.64
  A 2.49 2.03 83.1 0 0 1870.50 963.30
  Q 1870.17 963.04 1869.59 963.04
  Q 1869.02 963.04 1868.69 963.31
  A 2.49 2.03 -83.3 0 0 1868.34 963.64
  Q 1868.33 963.65 1866.83 968.12
  Q 1863.89 976.83 1856.86 983.87"
/>
<path stroke="#84847c" vector-effect="non-scaling-stroke" d="
  M 701.01 684.57
  C 686.88 699.25 682.63 718.02 685.42 738.23
  C 686.85 748.59 692.09 759.65 699.31 767.39
  C 711.40 780.32 726.82 785.51 744.62 784.34
  C 761.02 783.25 776.69 774.02 785.27 759.87
  C 795.81 742.49 796.15 720.07 788.87 701.65
  C 782.32 685.05 766.66 671.56 748.79 669.23
  Q 735.31 667.48 723.00 671.15
  Q 710.29 674.93 701.01 684.57"
/>
<path stroke="#84847c" vector-effect="non-scaling-stroke" d="
  M 867.32 726.88
  C 867.34 737.29 869.22 746.56 873.83 756.17
  C 885.46 780.41 912.14 789.32 936.52 782.60
  C 962.16 775.54 976.41 752.52 976.35 726.60
  C 976.28 700.68 961.91 677.73 936.23 670.80
  C 911.82 664.21 885.18 673.26 873.68 697.55
  C 869.12 707.19 867.29 716.47 867.32 726.88"
/>
<path stroke="#84847c" vector-effect="non-scaling-stroke" d="
  M 1263.43 715.27
  C 1262.41 697.35 1252.46 680.14 1235.32 673.00
  Q 1228.04 669.97 1222.89 669.17
  C 1210.45 667.23 1196.61 669.13 1185.29 675.32
  Q 1179.29 678.60 1174.28 684.08
  Q 1162.48 697.00 1160.31 715.45
  A 0.42 0.41 -86.9 0 0 1160.72 715.91
  L 1262.83 715.91
  A 0.60 0.60 0.0 0 0 1263.43 715.27"
/>
</g>
<path fill="#1f2226" d="
  M 1948.00 0.00
  L 1948.00 1075.00
  L 948.62 1075.00
  L 1382.13 1074.67
  A 0.19 0.18 0.0 0 0 1382.32 1074.49
  L 1382.32 1074.20
  A 0.19 0.18 -0.0 0 0 1382.13 1074.02
  L 10.61 1074.23
  A 0.01 0.01 0.0 0 0 10.60 1074.24
  L 10.60 1074.60
  A 0.25 0.25 0.0 0 0 10.85 1074.85
  L 22.75 1075.00
  L 0.00 1075.00
  L 0.00 0.00
  L 1948.00 0.00
  Z
  M 835.05 496.06
  C 838.93 492.56 842.37 487.30 846.83 482.84
  Q 862.21 467.51 872.43 458.08
  Q 876.24 454.57 878.79 451.64
  C 887.62 441.53 895.17 434.53 907.33 422.95
  C 917.16 413.60 926.07 402.93 935.34 394.50
  C 944.39 386.26 953.18 376.02 960.61 369.11
  Q 975.85 354.92 983.45 346.27
  Q 984.16 345.46 988.10 341.79
  C 991.97 338.19 995.05 334.86 999.66 330.60
  Q 1009.78 321.26 1017.23 312.97
  Q 1027.92 301.07 1037.28 292.78
  C 1040.27 290.14 1042.63 287.00 1046.09 284.10
  Q 1053.90 277.58 1056.15 274.86
  Q 1066.57 262.25 1078.59 252.85
  C 1079.98 251.76 1081.41 250.16 1083.14 248.47
  A 1.76 1.76 0.0 0 0 1083.17 245.98
  Q 1082.08 244.85 1080.79 243.95
  Q 1068.00 234.98 1053.63 227.63
  C 1030.65 215.88 1004.44 209.56 979.21 208.60
  Q 964.14 208.03 952.38 209.94
  Q 942.02 211.62 920.53 217.57
  Q 913.27 219.58 906.24 222.75
  Q 897.14 226.86 887.56 232.05
  Q 881.39 235.40 868.57 244.31
  Q 862.35 248.64 847.49 262.25
  C 841.20 268.01 836.65 275.31 831.51 281.41
  Q 827.11 286.64 824.59 290.60
  Q 811.34 311.37 803.64 334.00
  Q 801.20 341.17 798.68 352.91
  Q 795.86 366.06 795.16 372.12
  Q 792.44 395.63 797.54 418.73
  Q 802.13 439.54 805.59 448.43
  Q 807.46 453.24 813.86 467.15
  C 816.69 473.30 820.57 479.77 824.33 486.18
  C 827.03 490.77 829.45 494.65 834.20 496.24
  A 0.86 0.85 32.8 0 0 835.05 496.06
  Z
  M 1102.55 243.38
  Q 1099.33 247.13 1094.21 251.98
  Q 1090.39 255.59 1085.64 260.38
  Q 1072.18 273.95 1060.86 284.97
  Q 1057.76 287.98 1056.53 289.41
  C 1052.97 293.50 1049.44 296.25 1045.46 300.29
  Q 1033.65 312.27 1032.01 313.76
  C 1022.87 322.04 1011.87 334.16 1004.26 341.37
  Q 994.56 350.55 968.87 376.60
  C 963.21 382.34 955.32 389.57 949.20 396.05
  C 940.16 405.61 929.90 414.98 920.99 424.59
  C 917.33 428.52 914.11 430.92 910.58 434.80
  Q 909.53 435.95 903.04 442.33
  Q 877.88 467.04 850.97 494.97
  C 849.74 496.24 847.50 497.68 846.14 499.16
  C 840.24 505.60 830.28 515.95 822.08 523.73
  C 815.70 529.78 809.44 536.92 802.61 543.30
  Q 801.80 544.06 794.30 551.34
  A 2.31 2.31 0.0 0 0 794.26 554.61
  C 802.06 562.62 812.26 567.32 823.45 566.79
  C 831.28 566.42 837.10 565.63 843.13 561.89
  C 850.41 557.37 857.92 551.76 864.03 544.99
  Q 865.36 543.51 870.85 537.75
  C 876.21 532.13 881.06 525.17 886.27 517.78
  Q 900.52 497.59 916.38 473.23
  Q 920.71 466.58 923.41 463.94
  C 932.23 455.36 944.80 453.63 956.40 457.42
  Q 961.06 458.94 965.80 461.20
  C 969.83 463.12 972.29 461.87 975.40 458.57
  Q 995.62 437.07 999.14 433.14
  Q 1008.49 422.66 1026.65 400.63
  C 1029.17 397.58 1032.24 394.44 1034.44 391.47
  C 1045.68 376.27 1055.89 363.89 1064.56 350.29
  Q 1073.84 335.72 1077.61 329.13
  Q 1091.39 305.03 1098.54 278.86
  Q 1102.06 265.96 1102.46 257.98
  Q 1102.77 251.98 1103.36 243.72
  A 0.46 0.46 0.0 0 0 1102.55 243.38
  Z
  M 1111.32 274.24
  A 0.54 0.54 0.0 0 0 1110.41 274.58
  C 1109.64 281.41 1108.89 285.87 1106.06 292.25
  C 1104.22 296.41 1101.81 304.18 1099.40 309.79
  Q 1089.03 333.87 1075.19 353.90
  Q 1070.04 361.37 1068.73 363.46
  Q 1065.37 368.83 1059.12 377.07
  Q 1046.36 393.87 1044.80 395.50
  C 1041.34 399.10 1038.59 404.06 1035.04 407.86
  C 1033.20 409.83 1031.63 412.71 1029.58 415.08
  C 1021.61 424.28 1016.37 429.56 1009.38 438.20
  Q 1001.19 448.33 986.68 462.91
  Q 979.49 470.14 977.09 471.18
  C 969.68 474.39 963.02 471.46 955.34 468.18
  C 949.27 465.59 939.88 464.43 934.52 469.01
  Q 929.67 473.16 926.80 477.02
  C 923.34 481.66 919.94 489.60 916.42 494.45
  C 912.15 500.35 909.63 504.99 905.11 510.83
  Q 901.04 516.10 897.52 521.18
  C 892.71 528.13 888.12 533.30 883.28 539.58
  A 1.98 1.97 41.0 0 0 883.47 542.20
  Q 883.78 542.50 885.20 543.30
  C 891.86 547.12 899.61 551.41 907.94 554.57
  Q 923.79 560.58 925.74 561.07
  Q 947.03 566.42 963.95 567.43
  Q 986.87 568.79 1013.00 563.78
  C 1024.72 561.54 1036.99 556.96 1047.85 552.09
  C 1056.09 548.40 1064.57 543.37 1070.73 539.22
  Q 1070.75 539.21 1081.35 531.52
  C 1095.09 521.56 1107.38 509.28 1117.04 496.27
  C 1128.55 480.76 1139.54 462.05 1145.16 442.95
  Q 1148.91 430.17 1152.09 411.92
  C 1155.39 393.00 1153.90 373.54 1150.05 354.30
  Q 1149.44 351.24 1147.48 342.27
  Q 1145.63 333.89 1144.24 330.32
  Q 1138.43 315.43 1134.42 308.04
  Q 1130.55 300.92 1123.72 289.52
  Q 1118.51 280.83 1111.32 274.24
  Z
  M 685.39 677.43
  A 0.28 0.28 0.0 0 1 684.88 677.28
  L 684.88 652.67
  A 0.78 0.78 0.0 0 0 684.10 651.89
  L 660.53 651.89
  A 0.57 0.56 -90.0 0 0 659.97 652.46
  L 659.97 864.72
  A 0.76 0.76 0.0 0 0 660.73 865.48
  L 684.24 865.48
  A 0.80 0.80 0.0 0 0 685.04 864.68
  L 685.04 776.43
  A 0.37 0.37 0.0 0 1 685.71 776.21
  Q 698.63 794.42 719.03 801.75
  C 726.85 804.55 737.70 805.37 746.01 805.27
  Q 766.35 805.03 784.16 794.38
  C 798.02 786.08 808.53 771.26 813.57 755.85
  C 826.67 715.79 811.23 665.30 767.20 652.07
  C 746.03 645.70 721.13 647.05 702.61 660.07
  Q 692.13 667.44 685.39 677.43
  Z
  M 976.21 677.32
  A 0.30 0.30 0.0 0 1 975.67 677.49
  Q 953.72 647.25 915.75 648.51
  Q 902.14 648.97 891.74 652.58
  Q 866.98 661.16 854.25 683.35
  Q 845.75 698.15 843.68 715.45
  Q 840.19 744.63 853.50 769.46
  C 862.79 786.80 881.10 798.92 899.95 803.17
  Q 921.23 807.98 940.43 802.40
  Q 952.62 798.85 965.03 788.39
  C 968.99 785.05 972.18 780.63 975.98 775.98
  A 0.15 0.15 0.0 0 1 976.25 776.08
  L 976.25 802.17
  A 0.65 0.64 -0.0 0 0 976.90 802.81
  L 1000.33 802.81
  A 0.70 0.70 0.0 0 0 1001.03 802.11
  L 1001.03 652.95
  A 1.07 1.07 0.0 0 0 999.96 651.88
  L 977.40 651.88
  A 1.20 1.19 90.0 0 0 976.21 653.08
  L 976.21 677.32
  Z
  M 1160.41 735.29
  L 1285.82 735.29
  A 2.00 1.99 2.5 0 0 1287.81 733.47
  Q 1289.58 713.10 1283.02 694.50
  C 1275.70 673.74 1258.60 657.79 1237.42 651.86
  Q 1212.33 644.84 1186.91 651.97
  Q 1174.82 655.36 1163.64 664.13
  Q 1154.17 671.56 1148.02 681.49
  C 1136.62 699.90 1133.16 722.13 1136.56 743.24
  Q 1139.06 758.76 1148.50 773.37
  C 1157.36 787.09 1171.45 795.88 1186.59 801.23
  Q 1194.14 803.89 1203.79 804.78
  Q 1217.15 806.00 1228.25 804.51
  Q 1234.70 803.65 1243.39 800.66
  Q 1270.14 791.47 1281.80 766.04
  Q 1283.60 762.11 1284.49 757.97
  A 1.05 1.05 0.0 0 0 1283.46 756.69
  L 1261.53 756.69
  A 1.83 1.83 0.0 0 0 1259.83 757.84
  C 1250.37 781.40 1224.61 787.66 1201.81 783.88
  Q 1184.57 781.01 1172.42 767.86
  C 1164.67 759.48 1160.80 747.32 1159.62 736.17
  A 0.80 0.79 87.1 0 1 1160.41 735.29
  Z
  M 1065.99 677.36
  L 1065.99 652.49
  A 0.48 0.48 0.0 0 0 1065.51 652.01
  L 1042.26 652.01
  A 0.55 0.55 0.0 0 0 1041.71 652.56
  L 1041.71 802.39
  A 0.44 0.44 0.0 0 0 1042.15 802.83
  L 1065.64 802.83
  A 0.53 0.53 0.0 0 0 1066.17 802.30
  Q 1066.12 772.69 1066.08 723.68
  Q 1066.07 714.87 1066.87 710.61
  C 1069.37 697.22 1077.04 685.46 1088.59 678.12
  C 1097.24 672.61 1109.07 672.83 1119.03 673.43
  A 0.98 0.98 0.0 0 0 1120.08 672.45
  L 1120.08 649.66
  A 0.91 0.91 0.0 0 0 1119.23 648.75
  C 1096.98 647.43 1076.79 657.58 1066.16 677.40
  A 0.09 0.09 0.0 0 1 1065.99 677.36
  Z
  M 1856.86 983.87
  Q 1849.83 990.91 1841.12 993.87
  Q 1836.66 995.38 1836.65 995.39
  A 2.49 2.03 -6.9 0 0 1836.31 995.74
  Q 1836.05 996.07 1836.05 996.64
  Q 1836.05 997.22 1836.32 997.55
  A 2.49 2.03 6.7 0 0 1836.65 997.90
  Q 1836.66 997.91 1841.13 999.41
  Q 1849.84 1002.35 1856.88 1009.38
  Q 1863.92 1016.41 1866.88 1025.12
  Q 1868.39 1029.58 1868.40 1029.59
  A 2.49 2.03 83.1 0 0 1868.75 1029.92
  Q 1869.08 1030.19 1869.65 1030.19
  Q 1870.23 1030.19 1870.56 1029.92
  A 2.49 2.03 -83.3 0 0 1870.91 1029.59
  Q 1870.92 1029.58 1872.42 1025.11
  Q 1875.36 1016.40 1882.39 1009.36
  Q 1889.42 1002.31 1898.12 999.36
  Q 1902.59 997.85 1902.60 997.84
  A 2.49 2.03 -6.9 0 0 1902.93 997.49
  Q 1903.20 997.16 1903.19 996.58
  Q 1903.19 996.01 1902.93 995.68
  A 2.49 2.03 6.7 0 0 1902.59 995.33
  Q 1902.58 995.32 1898.12 993.82
  Q 1889.41 990.88 1882.37 983.85
  Q 1875.32 976.82 1872.37 968.11
  Q 1870.86 963.65 1870.85 963.64
  A 2.49 2.03 83.1 0 0 1870.50 963.30
  Q 1870.17 963.04 1869.59 963.04
  Q 1869.02 963.04 1868.69 963.31
  A 2.49 2.03 -83.3 0 0 1868.34 963.64
  Q 1868.33 963.65 1866.83 968.12
  Q 1863.89 976.83 1856.86 983.87
  Z"
/>
<path fill="#333332" d="
  M 834.20 496.24
  C 829.45 494.65 827.03 490.77 824.33 486.18
  C 820.57 479.77 816.69 473.30 813.86 467.15
  Q 807.46 453.24 805.59 448.43
  Q 802.13 439.54 797.54 418.73
  Q 792.44 395.63 795.16 372.12
  Q 795.86 366.06 798.68 352.91
  Q 801.20 341.17 803.64 334.00
  Q 811.34 311.37 824.59 290.60
  Q 827.11 286.64 831.51 281.41
  C 836.65 275.31 841.20 268.01 847.49 262.25
  Q 862.35 248.64 868.57 244.31
  Q 881.39 235.40 887.56 232.05
  Q 897.14 226.86 906.24 222.75
  Q 913.27 219.58 920.53 217.57
  Q 942.02 211.62 952.38 209.94
  Q 964.14 208.03 979.21 208.60
  C 1004.44 209.56 1030.65 215.88 1053.63 227.63
  Q 1068.00 234.98 1080.79 243.95
  Q 1082.08 244.85 1083.17 245.98
  A 1.76 1.76 0.0 0 1 1083.14 248.47
  C 1081.41 250.16 1079.98 251.76 1078.59 252.85
  Q 1066.57 262.25 1056.15 274.86
  Q 1053.90 277.58 1046.09 284.10
  C 1042.63 287.00 1040.27 290.14 1037.28 292.78
  Q 1027.92 301.07 1017.23 312.97
  Q 1009.78 321.26 999.66 330.60
  C 995.05 334.86 991.97 338.19 988.10 341.79
  Q 984.16 345.46 983.45 346.27
  Q 975.85 354.92 960.61 369.11
  C 953.18 376.02 944.39 386.26 935.34 394.50
  C 926.07 402.93 917.16 413.60 907.33 422.95
  C 895.17 434.53 887.62 441.53 878.79 451.64
  Q 876.24 454.57 872.43 458.08
  Q 862.21 467.51 846.83 482.84
  C 842.37 487.30 838.93 492.56 835.05 496.06
  A 0.86 0.85 32.8 0 1 834.20 496.24
  Z"
/>
<path fill="#7a9076" d="
  M 1102.55 243.38
  A 0.46 0.46 0.0 0 1 1103.36 243.72
  Q 1102.77 251.98 1102.46 257.98
  Q 1102.06 265.96 1098.54 278.86
  Q 1091.39 305.03 1077.61 329.13
  Q 1073.84 335.72 1064.56 350.29
  C 1055.89 363.89 1045.68 376.27 1034.44 391.47
  C 1032.24 394.44 1029.17 397.58 1026.65 400.63
  Q 1008.49 422.66 999.14 433.14
  Q 995.62 437.07 975.40 458.57
  C 972.29 461.87 969.83 463.12 965.80 461.20
  Q 961.06 458.94 956.40 457.42
  C 944.80 453.63 932.23 455.36 923.41 463.94
  Q 920.71 466.58 916.38 473.23
  Q 900.52 497.59 886.27 517.78
  C 881.06 525.17 876.21 532.13 870.85 537.75
  Q 865.36 543.51 864.03 544.99
  C 857.92 551.76 850.41 557.37 843.13 561.89
  C 837.10 565.63 831.28 566.42 823.45 566.79
  C 812.26 567.32 802.06 562.62 794.26 554.61
  A 2.31 2.31 0.0 0 1 794.30 551.34
  Q 801.80 544.06 802.61 543.30
  C 809.44 536.92 815.70 529.78 822.08 523.73
  C 830.28 515.95 840.24 505.60 846.14 499.16
  C 847.50 497.68 849.74 496.24 850.97 494.97
  Q 877.88 467.04 903.04 442.33
  Q 909.53 435.95 910.58 434.80
  C 914.11 430.92 917.33 428.52 920.99 424.59
  C 929.90 414.98 940.16 405.61 949.20 396.05
  C 955.32 389.57 963.21 382.34 968.87 376.60
  Q 994.56 350.55 1004.26 341.37
  C 1011.87 334.16 1022.87 322.04 1032.01 313.76
  Q 1033.65 312.27 1045.46 300.29
  C 1049.44 296.25 1052.97 293.50 1056.53 289.41
  Q 1057.76 287.98 1060.86 284.97
  Q 1072.18 273.95 1085.64 260.38
  Q 1090.39 255.59 1094.21 251.98
  Q 1099.33 247.13 1102.55 243.38
  Z"
/>
<path fill="#333332" d="
  M 1111.32 274.24
  Q 1118.51 280.83 1123.72 289.52
  Q 1130.55 300.92 1134.42 308.04
  Q 1138.43 315.43 1144.24 330.32
  Q 1145.63 333.89 1147.48 342.27
  Q 1149.44 351.24 1150.05 354.30
  C 1153.90 373.54 1155.39 393.00 1152.09 411.92
  Q 1148.91 430.17 1145.16 442.95
  C 1139.54 462.05 1128.55 480.76 1117.04 496.27
  C 1107.38 509.28 1095.09 521.56 1081.35 531.52
  Q 1070.75 539.21 1070.73 539.22
  C 1064.57 543.37 1056.09 548.40 1047.85 552.09
  C 1036.99 556.96 1024.72 561.54 1013.00 563.78
  Q 986.87 568.79 963.95 567.43
  Q 947.03 566.42 925.74 561.07
  Q 923.79 560.58 907.94 554.57
  C 899.61 551.41 891.86 547.12 885.20 543.30
  Q 883.78 542.50 883.47 542.20
  A 1.98 1.97 41.0 0 1 883.28 539.58
  C 888.12 533.30 892.71 528.13 897.52 521.18
  Q 901.04 516.10 905.11 510.83
  C 909.63 504.99 912.15 500.35 916.42 494.45
  C 919.94 489.60 923.34 481.66 926.80 477.02
  Q 929.67 473.16 934.52 469.01
  C 939.88 464.43 949.27 465.59 955.34 468.18
  C 963.02 471.46 969.68 474.39 977.09 471.18
  Q 979.49 470.14 986.68 462.91
  Q 1001.19 448.33 1009.38 438.20
  C 1016.37 429.56 1021.61 424.28 1029.58 415.08
  C 1031.63 412.71 1033.20 409.83 1035.04 407.86
  C 1038.59 404.06 1041.34 399.10 1044.80 395.50
  Q 1046.36 393.87 1059.12 377.07
  Q 1065.37 368.83 1068.73 363.46
  Q 1070.04 361.37 1075.19 353.90
  Q 1089.03 333.87 1099.40 309.79
  C 1101.81 304.18 1104.22 296.41 1106.06 292.25
  C 1108.89 285.87 1109.64 281.41 1110.41 274.58
  A 0.54 0.54 0.0 0 1 1111.32 274.24
  Z"
/>
<path fill="#e9e6d2" d="
  M 685.39 677.43
  Q 692.13 667.44 702.61 660.07
  C 721.13 647.05 746.03 645.70 767.20 652.07
  C 811.23 665.30 826.67 715.79 813.57 755.85
  C 808.53 771.26 798.02 786.08 784.16 794.38
  Q 766.35 805.03 746.01 805.27
  C 737.70 805.37 726.85 804.55 719.03 801.75
  Q 698.63 794.42 685.71 776.21
  A 0.37 0.37 0.0 0 0 685.04 776.43
  L 685.04 864.68
  A 0.80 0.80 0.0 0 1 684.24 865.48
  L 660.73 865.48
  A 0.76 0.76 0.0 0 1 659.97 864.72
  L 659.97 652.46
  A 0.57 0.56 90.0 0 1 660.53 651.89
  L 684.10 651.89
  A 0.78 0.78 0.0 0 1 684.88 652.67
  L 684.88 677.28
  A 0.28 0.28 0.0 0 0 685.39 677.43
  Z
  M 701.01 684.57
  C 686.88 699.25 682.63 718.02 685.42 738.23
  C 686.85 748.59 692.09 759.65 699.31 767.39
  C 711.40 780.32 726.82 785.51 744.62 784.34
  C 761.02 783.25 776.69 774.02 785.27 759.87
  C 795.81 742.49 796.15 720.07 788.87 701.65
  C 782.32 685.05 766.66 671.56 748.79 669.23
  Q 735.31 667.48 723.00 671.15
  Q 710.29 674.93 701.01 684.57
  Z"
/>
<path fill="#e9e6d2" d="
  M 976.21 677.32
  L 976.21 653.08
  A 1.20 1.19 90.0 0 1 977.40 651.88
  L 999.96 651.88
  A 1.07 1.07 0.0 0 1 1001.03 652.95
  L 1001.03 802.11
  A 0.70 0.70 0.0 0 1 1000.33 802.81
  L 976.90 802.81
  A 0.65 0.64 0.0 0 1 976.25 802.17
  L 976.25 776.08
  A 0.15 0.15 0.0 0 0 975.98 775.98
  C 972.18 780.63 968.99 785.05 965.03 788.39
  Q 952.62 798.85 940.43 802.40
  Q 921.23 807.98 899.95 803.17
  C 881.10 798.92 862.79 786.80 853.50 769.46
  Q 840.19 744.63 843.68 715.45
  Q 845.75 698.15 854.25 683.35
  Q 866.98 661.16 891.74 652.58
  Q 902.14 648.97 915.75 648.51
  Q 953.72 647.25 975.67 677.49
  A 0.30 0.30 0.0 0 0 976.21 677.32
  Z
  M 867.32 726.88
  C 867.34 737.29 869.22 746.56 873.83 756.17
  C 885.46 780.41 912.14 789.32 936.52 782.60
  C 962.16 775.54 976.41 752.52 976.35 726.60
  C 976.28 700.68 961.91 677.73 936.23 670.80
  C 911.82 664.21 885.18 673.26 873.68 697.55
  C 869.12 707.19 867.29 716.47 867.32 726.88
  Z"
/>
<path fill="#e9e6d2" d="
  M 1160.41 735.29
  A 0.80 0.79 87.1 0 0 1159.62 736.17
  C 1160.80 747.32 1164.67 759.48 1172.42 767.86
  Q 1184.57 781.01 1201.81 783.88
  C 1224.61 787.66 1250.37 781.40 1259.83 757.84
  A 1.83 1.83 0.0 0 1 1261.53 756.69
  L 1283.46 756.69
  A 1.05 1.05 0.0 0 1 1284.49 757.97
  Q 1283.60 762.11 1281.80 766.04
  Q 1270.14 791.47 1243.39 800.66
  Q 1234.70 803.65 1228.25 804.51
  Q 1217.15 806.00 1203.79 804.78
  Q 1194.14 803.89 1186.59 801.23
  C 1171.45 795.88 1157.36 787.09 1148.50 773.37
  Q 1139.06 758.76 1136.56 743.24
  C 1133.16 722.13 1136.62 699.90 1148.02 681.49
  Q 1154.17 671.56 1163.64 664.13
  Q 1174.82 655.36 1186.91 651.97
  Q 1212.33 644.84 1237.42 651.86
  C 1258.60 657.79 1275.70 673.74 1283.02 694.50
  Q 1289.58 713.10 1287.81 733.47
  A 2.00 1.99 2.5 0 1 1285.82 735.29
  L 1160.41 735.29
  Z
  M 1263.43 715.27
  C 1262.41 697.35 1252.46 680.14 1235.32 673.00
  Q 1228.04 669.97 1222.89 669.17
  C 1210.45 667.23 1196.61 669.13 1185.29 675.32
  Q 1179.29 678.60 1174.28 684.08
  Q 1162.48 697.00 1160.31 715.45
  A 0.42 0.41 -86.9 0 0 1160.72 715.91
  L 1262.83 715.91
  A 0.60 0.60 0.0 0 0 1263.43 715.27
  Z"
/>
<path fill="#e9e6d2" d="
  M 1066.16 677.40
  C 1076.79 657.58 1096.98 647.43 1119.23 648.75
  A 0.91 0.91 0.0 0 1 1120.08 649.66
  L 1120.08 672.45
  A 0.98 0.98 0.0 0 1 1119.03 673.43
  C 1109.07 672.83 1097.24 672.61 1088.59 678.12
  C 1077.04 685.46 1069.37 697.22 1066.87 710.61
  Q 1066.07 714.87 1066.08 723.68
  Q 1066.12 772.69 1066.17 802.30
  A 0.53 0.53 0.0 0 1 1065.64 802.83
  L 1042.15 802.83
  A 0.44 0.44 0.0 0 1 1041.71 802.39
  L 1041.71 652.56
  A 0.55 0.55 0.0 0 1 1042.26 652.01
  L 1065.51 652.01
  A 0.48 0.48 0.0 0 1 1065.99 652.49
  L 1065.99 677.36
  A 0.09 0.09 0.0 0 0 1066.16 677.40
  Z"
/>
<path fill="#1f2226" d="
  M 1263.43 715.27
  A 0.60 0.60 0.0 0 1 1262.83 715.91
  L 1160.72 715.91
  A 0.42 0.41 -86.9 0 1 1160.31 715.45
  Q 1162.48 697.00 1174.28 684.08
  Q 1179.29 678.60 1185.29 675.32
  C 1196.61 669.13 1210.45 667.23 1222.89 669.17
  Q 1228.04 669.97 1235.32 673.00
  C 1252.46 680.14 1262.41 697.35 1263.43 715.27
  Z"
/>
<path fill="#1f2226" d="
  M 685.42 738.23
  C 682.63 718.02 686.88 699.25 701.01 684.57
  Q 710.29 674.93 723.00 671.15
  Q 735.31 667.48 748.79 669.23
  C 766.66 671.56 782.32 685.05 788.87 701.65
  C 796.15 720.07 795.81 742.49 785.27 759.87
  C 776.69 774.02 761.02 783.25 744.62 784.34
  C 726.82 785.51 711.40 780.32 699.31 767.39
  C 692.09 759.65 686.85 748.59 685.42 738.23
  Z"
/>
<path fill="#1f2226" d="
  M 976.35 726.60
  C 976.41 752.52 962.16 775.54 936.52 782.60
  C 912.14 789.32 885.46 780.41 873.83 756.17
  C 869.22 746.56 867.34 737.29 867.32 726.88
  C 867.29 716.47 869.12 707.19 873.68 697.55
  C 885.18 673.26 911.82 664.21 936.23 670.80
  C 961.91 677.73 976.28 700.68 976.35 726.60
  Z"
/>
<path fill="#8f9093" d="
  M 1869.59 963.04
  Q 1870.17 963.04 1870.50 963.30
  A 2.49 2.03 83.1 0 1 1870.85 963.64
  Q 1870.86 963.65 1872.37 968.11
  Q 1875.32 976.82 1882.37 983.85
  Q 1889.41 990.88 1898.12 993.82
  Q 1902.58 995.32 1902.59 995.33
  A 2.49 2.03 6.7 0 1 1902.93 995.68
  Q 1903.19 996.01 1903.19 996.58
  Q 1903.20 997.16 1902.93 997.49
  A 2.49 2.03 -6.9 0 1 1902.60 997.84
  Q 1902.59 997.85 1898.12 999.36
  Q 1889.42 1002.31 1882.39 1009.36
  Q 1875.36 1016.40 1872.42 1025.11
  Q 1870.92 1029.58 1870.91 1029.59
  A 2.49 2.03 -83.3 0 1 1870.56 1029.92
  Q 1870.23 1030.19 1869.65 1030.19
  Q 1869.08 1030.19 1868.75 1029.92
  A 2.49 2.03 83.1 0 1 1868.40 1029.59
  Q 1868.39 1029.58 1866.88 1025.12
  Q 1863.92 1016.41 1856.88 1009.38
  Q 1849.84 1002.35 1841.13 999.41
  Q 1836.66 997.91 1836.65 997.90
  A 2.49 2.03 6.7 0 1 1836.32 997.55
  Q 1836.05 997.22 1836.05 996.64
  Q 1836.05 996.07 1836.31 995.74
  A 2.49 2.03 -6.9 0 1 1836.65 995.39
  Q 1836.66 995.38 1841.12 993.87
  Q 1849.83 990.91 1856.86 983.87
  Q 1863.89 976.83 1866.83 968.12
  Q 1868.33 963.65 1868.34 963.64
  A 2.49 2.03 -83.3 0 1 1868.69 963.31
  Q 1869.02 963.04 1869.59 963.04
  Z"
/>
<path fill="#333332" d="
  M 948.62 1075.00
  L 22.75 1075.00
  L 10.85 1074.85
  A 0.25 0.25 0.0 0 1 10.60 1074.60
  L 10.60 1074.24
  A 0.01 0.01 0.0 0 1 10.61 1074.23
  L 1382.13 1074.02
  A 0.19 0.18 -0.0 0 1 1382.32 1074.20
  L 1382.32 1074.49
  A 0.19 0.18 0.0 0 1 1382.13 1074.67
  L 948.62 1075.00
  Z"
/>
</svg>
