<?xml version="1.0" encoding="UTF-8" standalone="no"?>
<!DOCTYPE svg PUBLIC "-//W3C//DTD SVG 1.1//EN" "http://www.w3.org/Graphics/SVG/1.1/DTD/svg11.dtd">
<svg xmlns="http://www.w3.org/2000/svg" version="1.1" viewBox="0.00 0.00 1948.00 1075.00">
<g stroke-width="2.00" fill="none" stroke-linecap="butt">
<path stroke="#292a2d" vector-effect="non-scaling-stroke" d="
  M 1132.38 333.29
  C 1103.95 311.54 1070.56 295.59 1036.18 287.15
  Q 997.72 277.71 957.81 280.56
  C 949.54 281.16 942.51 282.58 935.06 283.54
  C 919.57 285.52 904.39 289.78 889.01 295.42
  C 877.79 299.54 872.19 301.83 862.27 307.02
  C 850.98 312.93 839.00 319.65 828.38 327.41
  Q 813.06 338.62 799.96 350.96
  C 793.95 356.62 788.33 362.88 782.51 369.49
  Q 757.75 397.66 741.95 432.70
  C 734.33 449.59 729.04 464.09 725.58 480.23
  Q 723.44 490.22 722.61 494.83
  C 717.32 523.92 717.88 554.76 722.97 583.25
  Q 727.58 609.08 736.76 630.82
  Q 747.62 656.53 765.69 684.53
  Q 768.88 689.48 772.48 693.06
  A 1.28 1.28 0.0 0 0 774.19 693.14
  Q 775.15 692.34 776.43 690.94
  Q 793.99 671.72 805.85 660.91
  C 813.66 653.79 820.71 646.29 827.50 639.26
  Q 830.74 635.91 843.87 623.12
  Q 854.65 612.61 864.66 602.07
  C 875.90 590.24 887.92 579.28 900.17 566.43
  Q 909.18 556.98 923.80 543.04
  Q 930.43 536.71 933.87 533.13
  C 942.23 524.46 947.41 519.61 955.97 510.73
  C 965.43 500.91 973.83 493.26 982.94 483.86
  Q 994.79 471.62 997.43 469.02
  C 1010.54 456.10 1021.63 445.54 1032.77 433.93
  C 1046.20 419.92 1060.77 406.42 1072.36 394.33
  Q 1078.40 388.03 1086.65 380.18
  Q 1089.37 377.58 1100.93 366.03
  Q 1107.47 359.48 1111.09 355.52
  C 1118.30 347.59 1125.04 341.85 1132.46 335.18
  A 1.23 1.23 0.0 0 0 1132.38 333.29"
/>
<path stroke="#4c594f" vector-effect="non-scaling-stroke" d="
  M 1161.04 328.48
  A 0.44 0.43 -25.5 0 0 1160.26 328.21
  L 1157.93 331.13
  A 1.83 0.62 -56.5 0 1 1157.77 331.30
  Q 1144.43 344.24 1141.43 347.43
  C 1130.36 359.19 1118.56 370.49 1105.90 383.23
  Q 1064.08 425.31 1038.18 450.95
  C 1027.54 461.49 1018.34 471.36 1008.28 481.02
  Q 1001.40 487.61 985.74 503.49
  Q 977.19 512.17 958.36 530.86
  Q 939.44 549.65 883.91 605.48
  Q 877.80 611.62 869.68 619.58
  C 858.76 630.27 848.13 641.61 836.68 652.76
  C 820.21 668.81 804.94 685.08 789.39 700.08
  C 780.25 708.90 772.28 718.14 762.95 726.92
  C 753.67 735.64 745.77 743.81 735.34 754.43
  C 730.64 759.22 723.53 765.32 718.46 771.17
  C 716.91 772.96 716.61 773.87 717.88 775.88
  Q 719.66 778.68 722.56 780.92
  Q 742.14 796.00 765.83 793.63
  C 775.51 792.66 782.51 789.74 790.91 784.66
  Q 804.63 776.37 814.82 765.59
  Q 834.94 744.31 852.68 719.69
  Q 864.09 703.84 877.99 683.70
  C 885.50 672.82 893.00 659.59 901.56 648.76
  C 904.63 644.87 909.22 641.34 912.70 639.22
  C 926.91 630.56 944.08 633.74 958.59 640.16
  C 961.67 641.51 964.93 642.62 968.62 643.84
  Q 971.78 644.88 973.51 643.01
  Q 980.67 635.30 999.25 614.66
  C 1001.53 612.12 1004.13 609.62 1006.35 607.10
  Q 1017.28 594.70 1037.47 571.08
  C 1047.60 559.23 1052.12 553.23 1063.03 539.32
  C 1067.38 533.77 1074.96 524.65 1080.58 516.84
  Q 1088.38 505.99 1094.17 497.84
  Q 1099.63 490.15 1101.56 486.97
  C 1103.89 483.11 1109.93 474.41 1113.40 468.19
  C 1116.97 461.78 1121.25 455.80 1125.10 448.84
  Q 1134.94 431.06 1143.17 411.69
  C 1154.31 385.46 1160.64 356.98 1161.04 328.48"
/>
<path stroke="#292a2d" vector-effect="non-scaling-stroke" d="
  M 1172.56 373.17
  A 0.80 0.80 0.0 0 0 1171.35 373.76
  C 1170.08 384.56 1164.77 396.68 1161.97 405.39
  Q 1159.22 413.96 1156.07 420.53
  Q 1150.07 433.03 1148.07 437.79
  C 1144.80 445.61 1139.96 452.34 1136.27 459.76
  C 1132.99 466.36 1129.15 472.26 1123.75 481.50
  Q 1120.72 486.67 1101.30 514.92
  Q 1099.02 518.23 1096.46 521.38
  C 1092.94 525.72 1090.85 529.43 1087.18 534.03
  Q 1086.91 534.37 1082.66 540.17
  C 1076.65 548.37 1069.94 555.53 1063.77 563.57
  Q 1049.68 581.93 1045.51 586.76
  Q 1033.46 600.74 1007.66 628.91
  Q 1003.92 632.98 995.79 641.04
  Q 993.51 643.29 987.70 650.44
  C 982.90 656.34 976.34 661.02 967.96 659.86
  C 958.93 658.61 949.10 652.99 940.48 650.51
  Q 926.89 646.60 915.56 656.05
  Q 912.83 658.33 910.52 662.42
  Q 903.59 674.72 891.18 691.41
  Q 889.23 694.04 882.70 704.45
  Q 877.88 712.12 873.97 717.33
  C 868.58 724.52 865.89 729.24 860.36 735.65
  Q 858.56 737.75 844.29 756.25
  A 1.27 1.26 37.1 0 0 844.54 758.04
  Q 849.51 761.73 854.61 764.41
  Q 873.55 774.34 886.05 778.56
  Q 889.88 779.85 898.45 783.02
  Q 904.59 785.30 910.95 786.77
  Q 928.95 790.91 937.53 792.24
  Q 962.75 796.17 988.75 795.20
  Q 1003.33 794.66 1016.01 792.51
  C 1029.72 790.18 1045.26 786.75 1059.38 781.57
  Q 1072.31 776.84 1075.60 775.36
  C 1086.09 770.65 1099.23 764.42 1110.41 757.12
  Q 1124.52 747.90 1132.95 741.22
  Q 1155.94 722.98 1174.67 700.15
  Q 1178.95 694.94 1185.99 684.63
  Q 1194.32 672.42 1196.58 668.58
  Q 1198.57 665.20 1207.14 648.62
  C 1210.85 641.44 1214.75 631.20 1217.04 625.35
  Q 1224.43 606.48 1228.06 587.44
  C 1230.12 576.62 1232.52 563.30 1232.59 551.15
  C 1232.66 538.30 1233.19 527.60 1232.13 516.72
  Q 1229.53 489.97 1222.57 466.58
  Q 1220.24 458.75 1215.38 446.12
  Q 1209.49 430.82 1207.18 426.05
  Q 1194.94 400.79 1175.28 375.71
  Q 1174.01 374.08 1172.56 373.17"
/>
<path stroke="#585a5d" vector-effect="non-scaling-stroke" d="
  M 1856.87 983.86
  Q 1849.02 991.72 1836.99 995.26
  Q 1836.05 995.53 1836.05 996.63
  Q 1836.05 997.72 1836.99 998.00
  Q 1849.03 1001.52 1856.88 1009.37
  Q 1864.74 1017.22 1868.28 1029.24
  Q 1868.56 1030.19 1869.65 1030.19
  Q 1870.74 1030.19 1871.02 1029.24
  Q 1874.55 1017.21 1882.39 1009.35
  Q 1890.24 1001.50 1902.27 997.96
  Q 1903.21 997.68 1903.21 996.59
  Q 1903.21 995.49 1902.27 995.21
  Q 1890.24 991.69 1882.38 983.84
  Q 1874.52 976.00 1870.98 963.97
  Q 1870.70 963.02 1869.61 963.02
  Q 1868.52 963.02 1868.24 963.97
  Q 1864.71 976.00 1856.87 983.86"
/>
</g>
<path fill="#202227" d="
  M 1948.00 0.00
  L 1948.00 1075.00
  L 0.00 1075.00
  L 0.00 0.00
  L 1948.00 0.00
  Z
  M 1132.38 333.29
  C 1103.95 311.54 1070.56 295.59 1036.18 287.15
  Q 997.72 277.71 957.81 280.56
  C 949.54 281.16 942.51 282.58 935.06 283.54
  C 919.57 285.52 904.39 289.78 889.01 295.42
  C 877.79 299.54 872.19 301.83 862.27 307.02
  C 850.98 312.93 839.00 319.65 828.38 327.41
  Q 813.06 338.62 799.96 350.96
  C 793.95 356.62 788.33 362.88 782.51 369.49
  Q 757.75 397.66 741.95 432.70
  C 734.33 449.59 729.04 464.09 725.58 480.23
  Q 723.44 490.22 722.61 494.83
  C 717.32 523.92 717.88 554.76 722.97 583.25
  Q 727.58 609.08 736.76 630.82
  Q 747.62 656.53 765.69 684.53
  Q 768.88 689.48 772.48 693.06
  A 1.28 1.28 0.0 0 0 774.19 693.14
  Q 775.15 692.34 776.43 690.94
  Q 793.99 671.72 805.85 660.91
  C 813.66 653.79 820.71 646.29 827.50 639.26
  Q 830.74 635.91 843.87 623.12
  Q 854.65 612.61 864.66 602.07
  C 875.90 590.24 887.92 579.28 900.17 566.43
  Q 909.18 556.98 923.80 543.04
  Q 930.43 536.71 933.87 533.13
  C 942.23 524.46 947.41 519.61 955.97 510.73
  C 965.43 500.91 973.83 493.26 982.94 483.86
  Q 994.79 471.62 997.43 469.02
  C 1010.54 456.10 1021.63 445.54 1032.77 433.93
  C 1046.20 419.92 1060.77 406.42 1072.36 394.33
  Q 1078.40 388.03 1086.65 380.18
  Q 1089.37 377.58 1100.93 366.03
  Q 1107.47 359.48 1111.09 355.52
  C 1118.30 347.59 1125.04 341.85 1132.46 335.18
  A 1.23 1.23 0.0 0 0 1132.38 333.29
  Z
  M 1161.04 328.48
  A 0.44 0.43 -25.5 0 0 1160.26 328.21
  L 1157.93 331.13
  A 1.83 0.62 -56.5 0 1 1157.77 331.30
  Q 1144.43 344.24 1141.43 347.43
  C 1130.36 359.19 1118.56 370.49 1105.90 383.23
  Q 1064.08 425.31 1038.18 450.95
  C 1027.54 461.49 1018.34 471.36 1008.28 481.02
  Q 1001.40 487.61 985.74 503.49
  Q 977.19 512.17 958.36 530.86
  Q 939.44 549.65 883.91 605.48
  Q 877.80 611.62 869.68 619.58
  C 858.76 630.27 848.13 641.61 836.68 652.76
  C 820.21 668.81 804.94 685.08 789.39 700.08
  C 780.25 708.90 772.28 718.14 762.95 726.92
  C 753.67 735.64 745.77 743.81 735.34 754.43
  C 730.64 759.22 723.53 765.32 718.46 771.17
  C 716.91 772.96 716.61 773.87 717.88 775.88
  Q 719.66 778.68 722.56 780.92
  Q 742.14 796.00 765.83 793.63
  C 775.51 792.66 782.51 789.74 790.91 784.66
  Q 804.63 776.37 814.82 765.59
  Q 834.94 744.31 852.68 719.69
  Q 864.09 703.84 877.99 683.70
  C 885.50 672.82 893.00 659.59 901.56 648.76
  C 904.63 644.87 909.22 641.34 912.70 639.22
  C 926.91 630.56 944.08 633.74 958.59 640.16
  C 961.67 641.51 964.93 642.62 968.62 643.84
  Q 971.78 644.88 973.51 643.01
  Q 980.67 635.30 999.25 614.66
  C 1001.53 612.12 1004.13 609.62 1006.35 607.10
  Q 1017.28 594.70 1037.47 571.08
  C 1047.60 559.23 1052.12 553.23 1063.03 539.32
  C 1067.38 533.77 1074.96 524.65 1080.58 516.84
  Q 1088.38 505.99 1094.17 497.84
  Q 1099.63 490.15 1101.56 486.97
  C 1103.89 483.11 1109.93 474.41 1113.40 468.19
  C 1116.97 461.78 1121.25 455.80 1125.10 448.84
  Q 1134.94 431.06 1143.17 411.69
  C 1154.31 385.46 1160.64 356.98 1161.04 328.48
  Z
  M 1172.56 373.17
  A 0.80 0.80 0.0 0 0 1171.35 373.76
  C 1170.08 384.56 1164.77 396.68 1161.97 405.39
  Q 1159.22 413.96 1156.07 420.53
  Q 1150.07 433.03 1148.07 437.79
  C 1144.80 445.61 1139.96 452.34 1136.27 459.76
  C 1132.99 466.36 1129.15 472.26 1123.75 481.50
  Q 1120.72 486.67 1101.30 514.92
  Q 1099.02 518.23 1096.46 521.38
  C 1092.94 525.72 1090.85 529.43 1087.18 534.03
  Q 1086.91 534.37 1082.66 540.17
  C 1076.65 548.37 1069.94 555.53 1063.77 563.57
  Q 1049.68 581.93 1045.51 586.76
  Q 1033.46 600.74 1007.66 628.91
  Q 1003.92 632.98 995.79 641.04
  Q 993.51 643.29 987.70 650.44
  C 982.90 656.34 976.34 661.02 967.96 659.86
  C 958.93 658.61 949.10 652.99 940.48 650.51
  Q 926.89 646.60 915.56 656.05
  Q 912.83 658.33 910.52 662.42
  Q 903.59 674.72 891.18 691.41
  Q 889.23 694.04 882.70 704.45
  Q 877.88 712.12 873.97 717.33
  C 868.58 724.52 865.89 729.24 860.36 735.65
  Q 858.56 737.75 844.29 756.25
  A 1.27 1.26 37.1 0 0 844.54 758.04
  Q 849.51 761.73 854.61 764.41
  Q 873.55 774.34 886.05 778.56
  Q 889.88 779.85 898.45 783.02
  Q 904.59 785.30 910.95 786.77
  Q 928.95 790.91 937.53 792.24
  Q 962.75 796.17 988.75 795.20
  Q 1003.33 794.66 1016.01 792.51
  C 1029.72 790.18 1045.26 786.75 1059.38 781.57
  Q 1072.31 776.84 1075.60 775.36
  C 1086.09 770.65 1099.23 764.42 1110.41 757.12
  Q 1124.52 747.90 1132.95 741.22
  Q 1155.94 722.98 1174.67 700.15
  Q 1178.95 694.94 1185.99 684.63
  Q 1194.32 672.42 1196.58 668.58
  Q 1198.57 665.20 1207.14 648.62
  C 1210.85 641.44 1214.75 631.20 1217.04 625.35
  Q 1224.43 606.48 1228.06 587.44
  C 1230.12 576.62 1232.52 563.30 1232.59 551.15
  C 1232.66 538.30 1233.19 527.60 1232.13 516.72
  Q 1229.53 489.97 1222.57 466.58
  Q 1220.24 458.75 1215.38 446.12
  Q 1209.49 430.82 1207.18 426.05
  Q 1194.94 400.79 1175.28 375.71
  Q 1174.01 374.08 1172.56 373.17
  Z
  M 1856.87 983.86
  Q 1849.02 991.72 1836.99 995.26
  Q 1836.05 995.53 1836.05 996.63
  Q 1836.05 997.72 1836.99 998.00
  Q 1849.03 1001.52 1856.88 1009.37
  Q 1864.74 1017.22 1868.28 1029.24
  Q 1868.56 1030.19 1869.65 1030.19
  Q 1870.74 1030.19 1871.02 1029.24
  Q 1874.55 1017.21 1882.39 1009.35
  Q 1890.24 1001.50 1902.27 997.96
  Q 1903.21 997.68 1903.21 996.59
  Q 1903.21 995.49 1902.27 995.21
  Q 1890.24 991.69 1882.38 983.84
  Q 1874.52 976.00 1870.98 963.97
  Q 1870.70 963.02 1869.61 963.02
  Q 1868.52 963.02 1868.24 963.97
  Q 1864.71 976.00 1856.87 983.86
  Z"
/>
<path fill="#323232" d="
  M 1132.38 333.29
  A 1.23 1.23 0.0 0 1 1132.46 335.18
  C 1125.04 341.85 1118.30 347.59 1111.09 355.52
  Q 1107.47 359.48 1100.93 366.03
  Q 1089.37 377.58 1086.65 380.18
  Q 1078.40 388.03 1072.36 394.33
  C 1060.77 406.42 1046.20 419.92 1032.77 433.93
  C 1021.63 445.54 1010.54 456.10 997.43 469.02
  Q 994.79 471.62 982.94 483.86
  C 973.83 493.26 965.43 500.91 955.97 510.73
  C 947.41 519.61 942.23 524.46 933.87 533.13
  Q 930.43 536.71 923.80 543.04
  Q 909.18 556.98 900.17 566.43
  C 887.92 579.28 875.90 590.24 864.66 602.07
  Q 854.65 612.61 843.87 623.12
  Q 830.74 635.91 827.50 639.26
  C 820.71 646.29 813.66 653.79 805.85 660.91
  Q 793.99 671.72 776.43 690.94
  Q 775.15 692.34 774.19 693.14
  A 1.28 1.28 0.0 0 1 772.48 693.06
  Q 768.88 689.48 765.69 684.53
  Q 747.62 656.53 736.76 630.82
  Q 727.58 609.08 722.97 583.25
  C 717.88 554.76 717.32 523.92 722.61 494.83
  Q 723.44 490.22 725.58 480.23
  C 729.04 464.09 734.33 449.59 741.95 432.70
  Q 757.75 397.66 782.51 369.49
  C 788.33 362.88 793.95 356.62 799.96 350.96
  Q 813.06 338.62 828.38 327.41
  C 839.00 319.65 850.98 312.93 862.27 307.02
  C 872.19 301.83 877.79 299.54 889.01 295.42
  C 904.39 289.78 919.57 285.52 935.06 283.54
  C 942.51 282.58 949.54 281.16 957.81 280.56
  Q 997.72 277.71 1036.18 287.15
  C 1070.56 295.59 1103.95 311.54 1132.38 333.29
  Z"
/>
<path fill="#789077" d="
  M 1161.04 328.48
  C 1160.64 356.98 1154.31 385.46 1143.17 411.69
  Q 1134.94 431.06 1125.10 448.84
  C 1121.25 455.80 1116.97 461.78 1113.40 468.19
  C 1109.93 474.41 1103.89 483.11 1101.56 486.97
  Q 1099.63 490.15 1094.17 497.84
  Q 1088.38 505.99 1080.58 516.84
  C 1074.96 524.65 1067.38 533.77 1063.03 539.32
  C 1052.12 553.23 1047.60 559.23 1037.47 571.08
  Q 1017.28 594.70 1006.35 607.10
  C 1004.13 609.62 1001.53 612.12 999.25 614.66
  Q 980.67 635.30 973.51 643.01
  Q 971.78 644.88 968.62 643.84
  C 964.93 642.62 961.67 641.51 958.59 640.16
  C 944.08 633.74 926.91 630.56 912.70 639.22
  C 909.22 641.34 904.63 644.87 901.56 648.76
  C 893.00 659.59 885.50 672.82 877.99 683.70
  Q 864.09 703.84 852.68 719.69
  Q 834.94 744.31 814.82 765.59
  Q 804.63 776.37 790.91 784.66
  C 782.51 789.74 775.51 792.66 765.83 793.63
  Q 742.14 796.00 722.56 780.92
  Q 719.66 778.68 717.88 775.88
  C 716.61 773.87 716.91 772.96 718.46 771.17
  C 723.53 765.32 730.64 759.22 735.34 754.43
  C 745.77 743.81 753.67 735.64 762.95 726.92
  C 772.28 718.14 780.25 708.90 789.39 700.08
  C 804.94 685.08 820.21 668.81 836.68 652.76
  C 848.13 641.61 858.76 630.27 869.68 619.58
  Q 877.80 611.62 883.91 605.48
  Q 939.44 549.65 958.36 530.86
  Q 977.19 512.17 985.74 503.49
  Q 1001.40 487.61 1008.28 481.02
  C 1018.34 471.36 1027.54 461.49 1038.18 450.95
  Q 1064.08 425.31 1105.90 383.23
  C 1118.56 370.49 1130.36 359.19 1141.43 347.43
  Q 1144.43 344.24 1157.77 331.30
  A 1.83 0.62 -56.5 0 0 1157.93 331.13
  L 1160.26 328.21
  A 0.44 0.43 -25.5 0 1 1161.04 328.48
  Z"
/>
<path fill="#323232" d="
  M 1172.56 373.17
  Q 1174.01 374.08 1175.28 375.71
  Q 1194.94 400.79 1207.18 426.05
  Q 1209.49 430.82 1215.38 446.12
  Q 1220.24 458.75 1222.57 466.58
  Q 1229.53 489.97 1232.13 516.72
  C 1233.19 527.60 1232.66 538.30 1232.59 551.15
  C 1232.52 563.30 1230.12 576.62 1228.06 587.44
  Q 1224.43 606.48 1217.04 625.35
  C 1214.75 631.20 1210.85 641.44 1207.14 648.62
  Q 1198.57 665.20 1196.58 668.58
  Q 1194.32 672.42 1185.99 684.63
  Q 1178.95 694.94 1174.67 700.15
  Q 1155.94 722.98 1132.95 741.22
  Q 1124.52 747.90 1110.41 757.12
  C 1099.23 764.42 1086.09 770.65 1075.60 775.36
  Q 1072.31 776.84 1059.38 781.57
  C 1045.26 786.75 1029.72 790.18 1016.01 792.51
  Q 1003.33 794.66 988.75 795.20
  Q 962.75 796.17 937.53 792.24
  Q 928.95 790.91 910.95 786.77
  Q 904.59 785.30 898.45 783.02
  Q 889.88 779.85 886.05 778.56
  Q 873.55 774.34 854.61 764.41
  Q 849.51 761.73 844.54 758.04
  A 1.27 1.26 37.1 0 1 844.29 756.25
  Q 858.56 737.75 860.36 735.65
  C 865.89 729.24 868.58 724.52 873.97 717.33
  Q 877.88 712.12 882.70 704.45
  Q 889.23 694.04 891.18 691.41
  Q 903.59 674.72 910.52 662.42
  Q 912.83 658.33 915.56 656.05
  Q 926.89 646.60 940.48 650.51
  C 949.10 652.99 958.93 658.61 967.96 659.86
  C 976.34 661.02 982.90 656.34 987.70 650.44
  Q 993.51 643.29 995.79 641.04
  Q 1003.92 632.98 1007.66 628.91
  Q 1033.46 600.74 1045.51 586.76
  Q 1049.68 581.93 1063.77 563.57
  C 1069.94 555.53 1076.65 548.37 1082.66 540.17
  Q 1086.91 534.37 1087.18 534.03
  C 1090.85 529.43 1092.94 525.72 1096.46 521.38
  Q 1099.02 518.23 1101.30 514.92
  Q 1120.72 486.67 1123.75 481.50
  C 1129.15 472.26 1132.99 466.36 1136.27 459.76
  C 1139.96 452.34 1144.80 445.61 1148.07 437.79
  Q 1150.07 433.03 1156.07 420.53
  Q 1159.22 413.96 1161.97 405.39
  C 1164.77 396.68 1170.08 384.56 1171.35 373.76
  A 0.80 0.80 0.0 0 1 1172.56 373.17
  Z"
/>
<path fill="#909193" d="
  M 1869.61 963.02
  Q 1870.70 963.02 1870.98 963.97
  Q 1874.52 976.00 1882.38 983.84
  Q 1890.24 991.69 1902.27 995.21
  Q 1903.21 995.49 1903.21 996.59
  Q 1903.21 997.68 1902.27 997.96
  Q 1890.24 1001.50 1882.39 1009.35
  Q 1874.55 1017.21 1871.02 1029.24
  Q 1870.74 1030.19 1869.65 1030.19
  Q 1868.56 1030.19 1868.28 1029.24
  Q 1864.74 1017.22 1856.88 1009.37
  Q 1849.03 1001.52 1836.99 998.00
  Q 1836.05 997.72 1836.05 996.63
  Q 1836.05 995.53 1836.99 995.26
  Q 1849.02 991.72 1856.87 983.86
  Q 1864.71 976.00 1868.24 963.97
  Q 1868.52 963.02 1869.61 963.02
  Z"
/>
</svg>
