<?xml version="1.0" encoding="UTF-8" standalone="no"?>
<!DOCTYPE svg PUBLIC "-//W3C//DTD SVG 1.1//EN" "http://www.w3.org/Graphics/SVG/1.1/DTD/svg11.dtd">
<svg xmlns="http://www.w3.org/2000/svg" version="1.1" viewBox="0.00 0.00 1948.00 1075.00">
<g stroke-width="2.00" fill="none" stroke-linecap="butt">
<path stroke="#979791" vector-effect="non-scaling-stroke" d="
  M 747.65 710.93
  C 757.39 701.68 767.95 690.94 775.63 683.50
  Q 776.25 682.91 822.16 638.74
  C 823.61 637.34 825.14 635.49 826.83 634.06
  Q 829.44 631.85 830.55 630.78
  Q 852.95 609.15 858.54 603.79
  Q 870.77 592.07 879.34 583.53
  Q 883.76 579.12 888.97 574.28
  C 897.40 566.43 905.16 558.24 912.84 550.93
  Q 925.40 538.97 937.79 526.84
  C 971.48 493.85 1005.06 461.56 1045.34 422.70
  C 1059.24 409.30 1076.39 392.16 1092.70 376.60
  Q 1100.05 369.59 1103.74 365.85
  Q 1112.41 357.06 1114.73 355.03
  Q 1122.01 348.64 1131.34 339.00
  Q 1140.90 329.12 1156.34 315.43
  A 2.48 2.48 0.0 0 0 1156.90 312.43
  Q 1156.70 312.04 1155.46 311.07
  Q 1136.65 296.45 1113.75 285.11
  Q 1097.35 276.99 1088.73 273.80
  Q 1076.85 269.41 1067.96 266.33
  C 1054.79 261.78 1038.22 258.50 1022.87 256.31
  C 990.44 251.70 957.26 252.57 925.48 258.23
  Q 901.94 262.42 886.48 268.00
  C 878.67 270.82 866.81 274.63 859.23 278.26
  C 851.32 282.05 842.46 285.72 834.14 290.70
  Q 831.86 292.06 820.92 298.43
  Q 813.42 302.80 801.91 311.48
  C 784.75 324.42 767.92 339.66 754.53 355.53
  C 743.95 368.06 732.50 383.02 723.55 397.98
  Q 714.33 413.41 704.74 436.41
  Q 696.56 456.04 690.33 483.39
  C 688.29 492.33 686.90 505.63 686.22 512.94
  Q 678.75 592.40 715.38 662.89
  C 717.40 666.78 721.05 673.87 724.28 679.07
  Q 735.00 696.31 746.05 710.80
  A 1.08 1.08 0.0 0 0 747.65 710.93"
/>
<path stroke="#becbb6" vector-effect="non-scaling-stroke" d="
  M 1188.93 307.55
  A 0.20 0.19 68.9 0 0 1188.60 307.40
  Q 1181.39 314.45 1177.01 318.28
  Q 1169.91 324.48 1165.54 329.26
  Q 1159.81 335.52 1152.30 342.24
  Q 1144.73 349.02 1138.87 354.98
  C 1125.74 368.34 1108.13 384.10 1094.04 398.46
  Q 1083.93 408.76 1073.29 418.35
  C 1059.06 431.17 1042.57 448.54 1028.96 461.28
  Q 1009.68 479.33 985.66 502.91
  C 974.08 514.26 964.30 523.40 952.19 535.44
  C 945.02 542.58 937.91 548.90 931.07 555.99
  C 923.87 563.43 916.56 569.73 909.93 576.31
  Q 883.80 602.25 868.65 616.64
  Q 867.38 617.84 860.87 623.87
  Q 857.67 626.84 847.39 637.23
  C 836.04 648.70 823.34 660.39 814.22 669.61
  C 809.93 673.95 803.83 678.86 799.65 683.50
  C 796.03 687.51 793.02 689.94 789.39 693.90
  Q 786.70 696.85 781.51 701.49
  C 772.62 709.43 764.16 718.72 755.40 727.06
  Q 733.69 747.73 721.66 760.08
  C 714.43 767.49 706.90 773.63 699.72 781.45
  C 694.83 786.79 687.90 792.81 681.35 799.19
  A 0.59 0.58 46.8 0 0 681.33 800.00
  Q 685.71 804.80 688.65 806.92
  Q 694.85 811.39 704.10 815.88
  Q 712.13 819.78 720.76 820.77
  Q 733.91 822.28 744.82 820.38
  C 748.82 819.68 753.15 817.35 756.62 815.95
  Q 774.51 808.73 788.46 795.19
  Q 790.76 792.96 797.92 786.19
  Q 809.42 775.29 811.37 773.12
  C 816.22 767.73 823.11 758.87 828.93 752.59
  Q 835.01 746.04 837.21 742.70
  Q 847.27 727.45 859.25 710.45
  Q 869.46 695.95 872.63 691.01
  Q 881.32 677.43 885.47 671.24
  Q 894.67 657.54 909.40 649.15
  C 921.30 642.37 937.81 643.09 950.12 647.36
  C 953.38 648.49 958.79 651.13 961.46 652.24
  C 969.07 655.39 973.81 657.79 980.01 651.03
  Q 987.09 643.28 1013.12 615.88
  Q 1029.69 598.44 1037.84 589.35
  C 1042.85 583.77 1046.69 578.39 1051.60 573.11
  C 1058.87 565.31 1066.11 555.67 1073.47 547.13
  Q 1078.59 541.20 1084.82 533.19
  Q 1101.64 511.57 1107.41 503.90
  C 1112.88 496.63 1117.11 489.94 1122.33 482.99
  C 1128.23 475.12 1132.17 467.60 1138.75 457.20
  Q 1151.37 437.25 1162.61 415.22
  Q 1167.03 406.57 1171.33 395.13
  Q 1176.81 380.55 1178.74 374.49
  C 1182.84 361.59 1185.30 348.31 1187.41 334.98
  C 1188.95 325.23 1188.71 315.59 1188.93 307.55"
/>
<path stroke="#979791" vector-effect="non-scaling-stroke" d="
  M 827.44 780.11
  Q 827.97 780.58 833.14 783.58
  Q 857.89 797.95 886.12 807.91
  C 895.85 811.35 903.04 812.83 915.85 816.14
  Q 930.19 819.86 950.62 821.96
  Q 965.17 823.45 985.92 823.25
  C 1006.82 823.05 1026.91 820.74 1046.85 815.70
  Q 1061.89 811.89 1064.33 811.10
  C 1091.31 802.40 1117.22 790.41 1140.58 775.14
  Q 1155.03 765.70 1167.80 755.27
  Q 1183.37 742.55 1194.15 730.65
  Q 1209.01 714.26 1212.30 709.82
  C 1223.62 694.57 1234.10 679.53 1241.69 663.72
  C 1249.40 647.65 1256.38 633.14 1260.98 616.80
  Q 1266.06 598.76 1268.63 583.62
  Q 1277.18 533.16 1266.47 482.34
  Q 1265.17 476.14 1264.10 472.45
  C 1261.59 463.78 1259.77 455.40 1256.98 448.11
  Q 1250.76 431.82 1245.69 420.79
  Q 1244.27 417.68 1237.84 405.37
  Q 1233.78 397.57 1229.10 390.46
  Q 1217.17 372.29 1202.96 355.52
  A 0.54 0.54 0.0 0 0 1202.02 355.73
  Q 1198.81 367.74 1193.37 384.67
  Q 1188.44 400.03 1179.66 418.41
  Q 1169.32 440.06 1157.36 459.36
  Q 1144.19 480.63 1134.42 494.69
  Q 1120.80 514.30 1101.28 539.52
  C 1098.06 543.67 1093.71 548.56 1089.95 553.30
  C 1081.32 564.20 1069.66 577.49 1063.63 584.88
  Q 1061.82 587.09 1054.09 595.51
  Q 1050.86 599.02 1044.66 606.22
  Q 1036.87 615.24 1028.37 623.81
  C 1025.81 626.40 1023.46 629.63 1020.69 632.35
  Q 1017.92 635.07 1014.67 638.52
  Q 995.17 659.24 989.45 664.73
  Q 980.22 673.57 967.04 671.21
  C 960.22 669.99 954.81 667.20 946.88 663.91
  Q 942.96 662.29 939.47 661.61
  Q 933.79 660.51 931.76 660.46
  Q 920.72 660.19 911.50 666.40
  Q 907.65 668.99 902.67 676.20
  Q 896.07 685.76 892.49 691.50
  C 886.00 701.94 881.54 707.96 872.71 720.98
  Q 859.91 739.86 843.26 761.56
  C 838.31 768.02 832.04 774.99 827.42 779.64
  A 0.33 0.32 43.2 0 0 827.44 780.11"
/>
</g>
<path fill="#fbfbf0" d="
  M 1948.00 0.00
  L 1948.00 1075.00
  L 0.00 1075.00
  L 0.00 0.00
  L 1948.00 0.00
  Z
  M 747.65 710.93
  C 757.39 701.68 767.95 690.94 775.63 683.50
  Q 776.25 682.91 822.16 638.74
  C 823.61 637.34 825.14 635.49 826.83 634.06
  Q 829.44 631.85 830.55 630.78
  Q 852.95 609.15 858.54 603.79
  Q 870.77 592.07 879.34 583.53
  Q 883.76 579.12 888.97 574.28
  C 897.40 566.43 905.16 558.24 912.84 550.93
  Q 925.40 538.97 937.79 526.84
  C 971.48 493.85 1005.06 461.56 1045.34 422.70
  C 1059.24 409.30 1076.39 392.16 1092.70 376.60
  Q 1100.05 369.59 1103.74 365.85
  Q 1112.41 357.06 1114.73 355.03
  Q 1122.01 348.64 1131.34 339.00
  Q 1140.90 329.12 1156.34 315.43
  A 2.48 2.48 0.0 0 0 1156.90 312.43
  Q 1156.70 312.04 1155.46 311.07
  Q 1136.65 296.45 1113.75 285.11
  Q 1097.35 276.99 1088.73 273.80
  Q 1076.85 269.41 1067.96 266.33
  C 1054.79 261.78 1038.22 258.50 1022.87 256.31
  C 990.44 251.70 957.26 252.57 925.48 258.23
  Q 901.94 262.42 886.48 268.00
  C 878.67 270.82 866.81 274.63 859.23 278.26
  C 851.32 282.05 842.46 285.72 834.14 290.70
  Q 831.86 292.06 820.92 298.43
  Q 813.42 302.80 801.91 311.48
  C 784.75 324.42 767.92 339.66 754.53 355.53
  C 743.95 368.06 732.50 383.02 723.55 397.98
  Q 714.33 413.41 704.74 436.41
  Q 696.56 456.04 690.33 483.39
  C 688.29 492.33 686.90 505.63 686.22 512.94
  Q 678.75 592.40 715.38 662.89
  C 717.40 666.78 721.05 673.87 724.28 679.07
  Q 735.00 696.31 746.05 710.80
  A 1.08 1.08 0.0 0 0 747.65 710.93
  Z
  M 1188.93 307.55
  A 0.20 0.19 68.9 0 0 1188.60 307.40
  Q 1181.39 314.45 1177.01 318.28
  Q 1169.91 324.48 1165.54 329.26
  Q 1159.81 335.52 1152.30 342.24
  Q 1144.73 349.02 1138.87 354.98
  C 1125.74 368.34 1108.13 384.10 1094.04 398.46
  Q 1083.93 408.76 1073.29 418.35
  C 1059.06 431.17 1042.57 448.54 1028.96 461.28
  Q 1009.68 479.33 985.66 502.91
  C 974.08 514.26 964.30 523.40 952.19 535.44
  C 945.02 542.58 937.91 548.90 931.07 555.99
  C 923.87 563.43 916.56 569.73 909.93 576.31
  Q 883.80 602.25 868.65 616.64
  Q 867.38 617.84 860.87 623.87
  Q 857.67 626.84 847.39 637.23
  C 836.04 648.70 823.34 660.39 814.22 669.61
  C 809.93 673.95 803.83 678.86 799.65 683.50
  C 796.03 687.51 793.02 689.94 789.39 693.90
  Q 786.70 696.85 781.51 701.49
  C 772.62 709.43 764.16 718.72 755.40 727.06
  Q 733.69 747.73 721.66 760.08
  C 714.43 767.49 706.90 773.63 699.72 781.45
  C 694.83 786.79 687.90 792.81 681.35 799.19
  A 0.59 0.58 46.8 0 0 681.33 800.00
  Q 685.71 804.80 688.65 806.92
  Q 694.85 811.39 704.10 815.88
  Q 712.13 819.78 720.76 820.77
  Q 733.91 822.28 744.82 820.38
  C 748.82 819.68 753.15 817.35 756.62 815.95
  Q 774.51 808.73 788.46 795.19
  Q 790.76 792.96 797.92 786.19
  Q 809.42 775.29 811.37 773.12
  C 816.22 767.73 823.11 758.87 828.93 752.59
  Q 835.01 746.04 837.21 742.70
  Q 847.27 727.45 859.25 710.45
  Q 869.46 695.95 872.63 691.01
  Q 881.32 677.43 885.47 671.24
  Q 894.67 657.54 909.40 649.15
  C 921.30 642.37 937.81 643.09 950.12 647.36
  C 953.38 648.49 958.79 651.13 961.46 652.24
  C 969.07 655.39 973.81 657.79 980.01 651.03
  Q 987.09 643.28 1013.12 615.88
  Q 1029.69 598.44 1037.84 589.35
  C 1042.85 583.77 1046.69 578.39 1051.60 573.11
  C 1058.87 565.31 1066.11 555.67 1073.47 547.13
  Q 1078.59 541.20 1084.82 533.19
  Q 1101.64 511.57 1107.41 503.90
  C 1112.88 496.63 1117.11 489.94 1122.33 482.99
  C 1128.23 475.12 1132.17 467.60 1138.75 457.20
  Q 1151.37 437.25 1162.61 415.22
  Q 1167.03 406.57 1171.33 395.13
  Q 1176.81 380.55 1178.74 374.49
  C 1182.84 361.59 1185.30 348.31 1187.41 334.98
  C 1188.95 325.23 1188.71 315.59 1188.93 307.55
  Z
  M 827.44 780.11
  Q 827.97 780.58 833.14 783.58
  Q 857.89 797.95 886.12 807.91
  C 895.85 811.35 903.04 812.83 915.85 816.14
  Q 930.19 819.86 950.62 821.96
  Q 965.17 823.45 985.92 823.25
  C 1006.82 823.05 1026.91 820.74 1046.85 815.70
  Q 1061.89 811.89 1064.33 811.10
  C 1091.31 802.40 1117.22 790.41 1140.58 775.14
  Q 1155.03 765.70 1167.80 755.27
  Q 1183.37 742.55 1194.15 730.65
  Q 1209.01 714.26 1212.30 709.82
  C 1223.62 694.57 1234.10 679.53 1241.69 663.72
  C 1249.40 647.65 1256.38 633.14 1260.98 616.80
  Q 1266.06 598.76 1268.63 583.62
  Q 1277.18 533.16 1266.47 482.34
  Q 1265.17 476.14 1264.10 472.45
  C 1261.59 463.78 1259.77 455.40 1256.98 448.11
  Q 1250.76 431.82 1245.69 420.79
  Q 1244.27 417.68 1237.84 405.37
  Q 1233.78 397.57 1229.10 390.46
  Q 1217.17 372.29 1202.96 355.52
  A 0.54 0.54 0.0 0 0 1202.02 355.73
  Q 1198.81 367.74 1193.37 384.67
  Q 1188.44 400.03 1179.66 418.41
  Q 1169.32 440.06 1157.36 459.36
  Q 1144.19 480.63 1134.42 494.69
  Q 1120.80 514.30 1101.28 539.52
  C 1098.06 543.67 1093.71 548.56 1089.95 553.30
  C 1081.32 564.20 1069.66 577.49 1063.63 584.88
  Q 1061.82 587.09 1054.09 595.51
  Q 1050.86 599.02 1044.66 606.22
  Q 1036.87 615.24 1028.37 623.81
  C 1025.81 626.40 1023.46 629.63 1020.69 632.35
  Q 1017.92 635.07 1014.67 638.52
  Q 995.17 659.24 989.45 664.73
  Q 980.22 673.57 967.04 671.21
  C 960.22 669.99 954.81 667.20 946.88 663.91
  Q 942.96 662.29 939.47 661.61
  Q 933.79 660.51 931.76 660.46
  Q 920.72 660.19 911.50 666.40
  Q 907.65 668.99 902.67 676.20
  Q 896.07 685.76 892.49 691.50
  C 886.00 701.94 881.54 707.96 872.71 720.98
  Q 859.91 739.86 843.26 761.56
  C 838.31 768.02 832.04 774.99 827.42 779.64
  A 0.33 0.32 43.2 0 0 827.44 780.11
  Z"
/>
<path fill="#323332" d="
  M 747.65 710.93
  A 1.08 1.08 0.0 0 1 746.05 710.80
  Q 735.00 696.31 724.28 679.07
  C 721.05 673.87 717.40 666.78 715.38 662.89
  Q 678.75 592.40 686.22 512.94
  C 686.90 505.63 688.29 492.33 690.33 483.39
  Q 696.56 456.04 704.74 436.41
  Q 714.33 413.41 723.55 397.98
  C 732.50 383.02 743.95 368.06 754.53 355.53
  C 767.92 339.66 784.75 324.42 801.91 311.48
  Q 813.42 302.80 820.92 298.43
  Q 831.86 292.06 834.14 290.70
  C 842.46 285.72 851.32 282.05 859.23 278.26
  C 866.81 274.63 878.67 270.82 886.48 268.00
  Q 901.94 262.42 925.48 258.23
  C 957.26 252.57 990.44 251.70 1022.87 256.31
  C 1038.22 258.50 1054.79 261.78 1067.96 266.33
  Q 1076.85 269.41 1088.73 273.80
  Q 1097.35 276.99 1113.75 285.11
  Q 1136.65 296.45 1155.46 311.07
  Q 1156.70 312.04 1156.90 312.43
  A 2.48 2.48 0.0 0 1 1156.34 315.43
  Q 1140.90 329.12 1131.34 339.00
  Q 1122.01 348.64 1114.73 355.03
  Q 1112.41 357.06 1103.74 365.85
  Q 1100.05 369.59 1092.70 376.60
  C 1076.39 392.16 1059.24 409.30 1045.34 422.70
  C 1005.06 461.56 971.48 493.85 937.79 526.84
  Q 925.40 538.97 912.84 550.93
  C 905.16 558.24 897.40 566.43 888.97 574.28
  Q 883.76 579.12 879.34 583.53
  Q 870.77 592.07 858.54 603.79
  Q 852.95 609.15 830.55 630.78
  Q 829.44 631.85 826.83 634.06
  C 825.14 635.49 823.61 637.34 822.16 638.74
  Q 776.25 682.91 775.63 683.50
  C 767.95 690.94 757.39 701.68 747.65 710.93
  Z"
/>
<path fill="#809a7c" d="
  M 1188.93 307.55
  C 1188.71 315.59 1188.95 325.23 1187.41 334.98
  C 1185.30 348.31 1182.84 361.59 1178.74 374.49
  Q 1176.81 380.55 1171.33 395.13
  Q 1167.03 406.57 1162.61 415.22
  Q 1151.37 437.25 1138.75 457.20
  C 1132.17 467.60 1128.23 475.12 1122.33 482.99
  C 1117.11 489.94 1112.88 496.63 1107.41 503.90
  Q 1101.64 511.57 1084.82 533.19
  Q 1078.59 541.20 1073.47 547.13
  C 1066.11 555.67 1058.87 565.31 1051.60 573.11
  C 1046.69 578.39 1042.85 583.77 1037.84 589.35
  Q 1029.69 598.44 1013.12 615.88
  Q 987.09 643.28 980.01 651.03
  C 973.81 657.79 969.07 655.39 961.46 652.24
  C 958.79 651.13 953.38 648.49 950.12 647.36
  C 937.81 643.09 921.30 642.37 909.40 649.15
  Q 894.67 657.54 885.47 671.24
  Q 881.32 677.43 872.63 691.01
  Q 869.46 695.95 859.25 710.45
  Q 847.27 727.45 837.21 742.70
  Q 835.01 746.04 828.93 752.59
  C 823.11 758.87 816.22 767.73 811.37 773.12
  Q 809.42 775.29 797.92 786.19
  Q 790.76 792.96 788.46 795.19
  Q 774.51 808.73 756.62 815.95
  C 753.15 817.35 748.82 819.68 744.82 820.38
  Q 733.91 822.28 720.76 820.77
  Q 712.13 819.78 704.10 815.88
  Q 694.85 811.39 688.65 806.92
  Q 685.71 804.80 681.33 800.00
  A 0.59 0.58 46.8 0 1 681.35 799.19
  C 687.90 792.81 694.83 786.79 699.72 781.45
  C 706.90 773.63 714.43 767.49 721.66 760.08
  Q 733.69 747.73 755.40 727.06
  C 764.16 718.72 772.62 709.43 781.51 701.49
  Q 786.70 696.85 789.39 693.90
  C 793.02 689.94 796.03 687.51 799.65 683.50
  C 803.83 678.86 809.93 673.95 814.22 669.61
  C 823.34 660.39 836.04 648.70 847.39 637.23
  Q 857.67 626.84 860.87 623.87
  Q 867.38 617.84 868.65 616.64
  Q 883.80 602.25 909.93 576.31
  C 916.56 569.73 923.87 563.43 931.07 555.99
  C 937.91 548.90 945.02 542.58 952.19 535.44
  C 964.30 523.40 974.08 514.26 985.66 502.91
  Q 1009.68 479.33 1028.96 461.28
  C 1042.57 448.54 1059.06 431.17 1073.29 418.35
  Q 1083.93 408.76 1094.04 398.46
  C 1108.13 384.10 1125.74 368.34 1138.87 354.98
  Q 1144.73 349.02 1152.30 342.24
  Q 1159.81 335.52 1165.54 329.26
  Q 1169.91 324.48 1177.01 318.28
  Q 1181.39 314.45 1188.60 307.40
  A 0.20 0.19 68.9 0 1 1188.93 307.55
  Z"
/>
<path fill="#323332" d="
  M 827.44 780.11
  A 0.33 0.32 43.2 0 1 827.42 779.64
  C 832.04 774.99 838.31 768.02 843.26 761.56
  Q 859.91 739.86 872.71 720.98
  C 881.54 707.96 886.00 701.94 892.49 691.50
  Q 896.07 685.76 902.67 676.20
  Q 907.65 668.99 911.50 666.40
  Q 920.72 660.19 931.76 660.46
  Q 933.79 660.51 939.47 661.61
  Q 942.96 662.29 946.88 663.91
  C 954.81 667.20 960.22 669.99 967.04 671.21
  Q 980.22 673.57 989.45 664.73
  Q 995.17 659.24 1014.67 638.52
  Q 1017.92 635.07 1020.69 632.35
  C 1023.46 629.63 1025.81 626.40 1028.37 623.81
  Q 1036.87 615.24 1044.66 606.22
  Q 1050.86 599.02 1054.09 595.51
  Q 1061.82 587.09 1063.63 584.88
  C 1069.66 577.49 1081.32 564.20 1089.95 553.30
  C 1093.71 548.56 1098.06 543.67 1101.28 539.52
  Q 1120.80 514.30 1134.42 494.69
  Q 1144.19 480.63 1157.36 459.36
  Q 1169.32 440.06 1179.66 418.41
  Q 1188.44 400.03 1193.37 384.67
  Q 1198.81 367.74 1202.02 355.73
  A 0.54 0.54 0.0 0 1 1202.96 355.52
  Q 1217.17 372.29 1229.10 390.46
  Q 1233.78 397.57 1237.84 405.37
  Q 1244.27 417.68 1245.69 420.79
  Q 1250.76 431.82 1256.98 448.11
  C 1259.77 455.40 1261.59 463.78 1264.10 472.45
  Q 1265.17 476.14 1266.47 482.34
  Q 1277.18 533.16 1268.63 583.62
  Q 1266.06 598.76 1260.98 616.80
  C 1256.38 633.14 1249.40 647.65 1241.69 663.72
  C 1234.10 679.53 1223.62 694.57 1212.30 709.82
  Q 1209.01 714.26 1194.15 730.65
  Q 1183.37 742.55 1167.80 755.27
  Q 1155.03 765.70 1140.58 775.14
  C 1117.22 790.41 1091.31 802.40 1064.33 811.10
  Q 1061.89 811.89 1046.85 815.70
  C 1026.91 820.74 1006.82 823.05 985.92 823.25
  Q 965.17 823.45 950.62 821.96
  Q 930.19 819.86 915.85 816.14
  C 903.04 812.83 895.85 811.35 886.12 807.91
  Q 857.89 797.95 833.14 783.58
  Q 827.97 780.58 827.44 780.11
  Z"
/>
</svg>
