<?xml version="1.0" encoding="UTF-8" standalone="no"?>
<!DOCTYPE svg PUBLIC "-//W3C//DTD SVG 1.1//EN" "http://www.w3.org/Graphics/SVG/1.1/DTD/svg11.dtd">
<svg xmlns="http://www.w3.org/2000/svg" version="1.1" viewBox="0.00 0.00 1948.00 1075.00">
<g stroke-width="2.00" fill="none" stroke-linecap="butt">
<path stroke="#85857d" vector-effect="non-scaling-stroke" d="
  M 597.20 598.00
  Q 600.15 601.55 604.15 605.81
  C 617.04 619.56 635.16 630.42 654.22 633.31
  Q 666.53 635.17 668.50 635.20
  Q 686.13 635.50 703.20 630.46
  C 707.44 629.20 711.43 627.02 714.88 625.67
  Q 719.15 624.01 723.31 621.33
  Q 735.89 613.21 742.73 606.25
  Q 755.26 593.49 762.71 574.97
  Q 768.02 561.74 768.90 545.74
  C 770.51 516.33 760.29 488.71 738.79 468.79
  Q 726.00 456.93 707.32 450.53
  Q 682.41 441.99 657.50 445.43
  C 634.03 448.66 610.95 460.86 597.92 480.95
  A 0.66 0.65 -29.5 0 1 596.71 480.62
  L 595.92 449.87
  A 1.07 1.07 0.0 0 0 594.85 448.83
  L 563.06 448.83
  A 0.77 0.76 0.0 0 0 562.29 449.59
  L 562.29 707.18
  A 0.48 0.48 0.0 0 0 562.77 707.66
  L 596.49 707.66
  A 0.71 0.70 0.4 0 0 597.20 706.97
  Q 597.46 693.44 597.31 663.19
  C 597.27 655.27 597.78 647.21 597.61 639.50
  Q 596.88 605.92 596.61 598.22
  A 0.33 0.33 0.0 0 1 597.20 598.00"
/>
<path stroke="#85857d" vector-effect="non-scaling-stroke" d="
  M 972.37 481.37
  A 0.36 0.35 -45.8 0 1 971.78 481.38
  Q 961.93 466.95 947.17 457.74
  Q 933.37 449.12 915.16 446.01
  Q 878.92 439.82 845.36 457.60
  C 834.63 463.29 825.74 471.97 817.93 481.42
  C 815.06 484.90 812.63 488.64 810.59 493.02
  Q 809.27 495.85 806.53 501.25
  Q 804.91 504.46 802.70 511.93
  C 789.91 555.22 808.91 603.02 849.39 623.58
  Q 858.74 628.33 871.86 631.85
  Q 875.98 632.95 882.70 633.82
  Q 892.65 635.10 893.63 635.10
  Q 913.61 635.08 927.24 630.51
  Q 943.94 624.90 959.48 611.20
  C 963.83 607.36 967.89 602.12 972.35 597.38
  A 0.41 0.40 66.6 0 1 973.05 597.66
  L 973.05 630.46
  A 0.95 0.94 -90.0 0 0 973.99 631.41
  L 1006.41 631.41
  A 0.73 0.72 90.0 0 0 1007.13 630.68
  L 1007.13 449.59
  A 0.75 0.75 0.0 0 0 1006.38 448.84
  L 973.65 448.84
  A 0.60 0.59 -89.0 0 0 973.06 449.42
  Q 972.59 466.50 972.68 480.00
  Q 972.68 480.91 972.37 481.37"
/>
<path stroke="#85857d" vector-effect="non-scaling-stroke" d="
  M 1220.16 549.95
  L 1382.26 549.95
  A 1.64 1.62 -86.2 0 0 1383.87 548.53
  Q 1387.81 518.85 1374.18 492.55
  Q 1371.04 486.48 1366.81 481.15
  Q 1350.34 460.39 1325.73 451.33
  Q 1300.77 442.13 1273.50 445.15
  Q 1259.50 446.70 1248.64 450.43
  C 1238.50 453.93 1228.80 458.67 1220.64 465.22
  Q 1214.68 470.00 1208.33 476.82
  Q 1197.54 488.39 1191.30 504.35
  C 1188.45 511.61 1186.76 520.22 1185.73 527.01
  Q 1184.26 536.73 1185.17 549.04
  C 1185.46 553.04 1186.57 556.80 1187.23 560.77
  Q 1188.01 565.37 1189.32 569.44
  Q 1196.28 590.99 1212.32 606.73
  Q 1218.38 612.67 1228.04 618.61
  Q 1238.11 624.81 1245.48 627.46
  Q 1282.73 640.90 1321.20 629.98
  Q 1342.38 623.96 1357.95 610.20
  Q 1364.48 604.43 1372.15 593.50
  C 1375.64 588.53 1377.90 582.91 1379.84 576.86
  A 0.17 0.17 0.0 0 0 1379.69 576.64
  L 1346.67 575.17
  A 0.94 0.94 0.0 0 0 1345.81 575.63
  C 1342.76 580.82 1341.62 583.49 1338.30 587.19
  C 1327.81 598.86 1313.00 605.29 1297.51 607.10
  C 1273.54 609.89 1250.12 603.32 1234.03 585.04
  Q 1227.75 577.90 1223.77 568.35
  C 1221.37 562.57 1220.92 558.06 1219.56 550.67
  A 0.61 0.60 -5.5 0 1 1220.16 549.95"
/>
<path stroke="#85857d" vector-effect="non-scaling-stroke" d="
  M 1094.83 481.58
  C 1095.09 478.75 1095.35 475.21 1095.21 471.98
  Q 1094.83 463.39 1094.91 449.68
  A 0.85 0.84 -90.0 0 0 1094.07 448.83
  L 1060.99 448.83
  A 0.45 0.45 0.0 0 0 1060.54 449.28
  L 1060.54 630.39
  A 1.00 1.00 0.0 0 0 1061.54 631.39
  L 1094.99 631.39
  A 0.51 0.50 -0.6 0 0 1095.50 630.88
  Q 1095.40 552.16 1095.47 538.26
  Q 1095.50 530.46 1096.86 524.58
  Q 1098.72 516.55 1099.90 513.40
  C 1106.98 494.47 1119.74 482.51 1139.52 478.36
  Q 1149.24 476.32 1163.38 477.54
  C 1164.36 477.62 1165.05 478.15 1166.00 478.20
  A 0.63 0.62 3.8 0 0 1166.66 477.63
  L 1169.17 446.16
  A 0.46 0.45 11.2 0 0 1168.85 445.69
  Q 1165.67 444.72 1161.97 444.69
  Q 1128.37 444.42 1105.43 467.93
  Q 1101.79 471.65 1095.17 481.70
  A 0.19 0.19 0.0 0 1 1094.83 481.58"
/>
<path stroke="#595b5e" vector-effect="non-scaling-stroke" d="
  M 1856.87 983.87
  Q 1849.04 991.70 1837.00 995.26
  Q 1836.06 995.54 1836.06 996.64
  Q 1836.06 997.74 1837.00 998.01
  Q 1849.05 1001.56 1856.88 1009.38
  Q 1864.72 1017.21 1868.28 1029.25
  Q 1868.56 1030.19 1869.66 1030.19
  Q 1870.75 1030.19 1871.03 1029.25
  Q 1874.57 1017.20 1882.40 1009.36
  Q 1890.22 1001.53 1902.27 997.97
  Q 1903.21 997.69 1903.21 996.59
  Q 1903.21 995.49 1902.27 995.22
  Q 1890.22 991.67 1882.38 983.85
  Q 1874.55 976.02 1870.99 963.98
  Q 1870.71 963.04 1869.61 963.04
  Q 1868.51 963.04 1868.24 963.98
  Q 1864.69 976.03 1856.87 983.87"
/>
<path stroke="#85857d" vector-effect="non-scaling-stroke" d="
  M 599.33 555.64
  C 602.73 571.47 612.71 585.81 626.23 594.72
  C 649.87 610.30 684.39 611.88 707.50 594.18
  Q 712.43 590.41 713.22 589.71
  C 725.68 578.56 732.94 562.39 734.17 546.01
  C 735.49 528.44 730.86 508.90 719.30 495.20
  C 709.34 483.40 695.48 474.96 680.34 472.81
  Q 667.83 471.04 654.16 473.02
  Q 633.90 475.96 618.18 490.66
  C 615.20 493.45 613.08 496.51 610.38 499.87
  C 603.45 508.52 600.09 518.61 597.97 530.44
  Q 596.12 540.72 599.33 555.64"
/>
<path stroke="#85857d" vector-effect="non-scaling-stroke" d="
  M 833.58 535.36
  C 832.57 552.78 837.65 569.94 848.47 583.08
  C 857.38 593.90 869.87 601.31 883.28 604.65
  C 894.24 607.37 909.01 607.99 920.44 604.77
  Q 929.92 602.10 936.08 598.93
  C 956.92 588.21 970.62 566.87 971.98 543.38
  C 973.34 519.90 962.19 497.11 942.74 484.06
  Q 936.98 480.20 927.87 476.45
  C 916.89 471.93 902.15 470.84 890.95 472.28
  C 877.24 474.05 863.98 479.96 853.88 489.68
  C 841.62 501.49 834.59 517.94 833.58 535.36"
/>
<path stroke="#85857d" vector-effect="non-scaling-stroke" d="
  M 1349.79 524.91
  Q 1348.52 517.64 1348.45 517.27
  C 1345.52 502.37 1335.74 489.16 1322.99 481.14
  Q 1313.31 475.05 1301.46 472.76
  C 1281.08 468.83 1257.05 472.74 1240.85 487.07
  Q 1234.91 492.31 1232.42 495.67
  Q 1222.57 508.90 1219.79 524.93
  A 0.42 0.42 0.0 0 0 1220.20 525.42
  L 1349.36 525.42
  A 0.44 0.43 -5.0 0 0 1349.79 524.91"
/>
</g>
<path fill="#212428" d="
  M 1948.00 0.00
  L 1948.00 1075.00
  L 0.00 1075.00
  L 0.00 0.00
  L 1948.00 0.00
  Z
  M 597.20 598.00
  Q 600.15 601.55 604.15 605.81
  C 617.04 619.56 635.16 630.42 654.22 633.31
  Q 666.53 635.17 668.50 635.20
  Q 686.13 635.50 703.20 630.46
  C 707.44 629.20 711.43 627.02 714.88 625.67
  Q 719.15 624.01 723.31 621.33
  Q 735.89 613.21 742.73 606.25
  Q 755.26 593.49 762.71 574.97
  Q 768.02 561.74 768.90 545.74
  C 770.51 516.33 760.29 488.71 738.79 468.79
  Q 726.00 456.93 707.32 450.53
  Q 682.41 441.99 657.50 445.43
  C 634.03 448.66 610.95 460.86 597.92 480.95
  A 0.66 0.65 -29.5 0 1 596.71 480.62
  L 595.92 449.87
  A 1.07 1.07 0.0 0 0 594.85 448.83
  L 563.06 448.83
  A 0.77 0.76 0.0 0 0 562.29 449.59
  L 562.29 707.18
  A 0.48 0.48 0.0 0 0 562.77 707.66
  L 596.49 707.66
  A 0.71 0.70 0.4 0 0 597.20 706.97
  Q 597.46 693.44 597.31 663.19
  C 597.27 655.27 597.78 647.21 597.61 639.50
  Q 596.88 605.92 596.61 598.22
  A 0.33 0.33 0.0 0 1 597.20 598.00
  Z
  M 972.37 481.37
  A 0.36 0.35 -45.8 0 1 971.78 481.38
  Q 961.93 466.95 947.17 457.74
  Q 933.37 449.12 915.16 446.01
  Q 878.92 439.82 845.36 457.60
  C 834.63 463.29 825.74 471.97 817.93 481.42
  C 815.06 484.90 812.63 488.64 810.59 493.02
  Q 809.27 495.85 806.53 501.25
  Q 804.91 504.46 802.70 511.93
  C 789.91 555.22 808.91 603.02 849.39 623.58
  Q 858.74 628.33 871.86 631.85
  Q 875.98 632.95 882.70 633.82
  Q 892.65 635.10 893.63 635.10
  Q 913.61 635.08 927.24 630.51
  Q 943.94 624.90 959.48 611.20
  C 963.83 607.36 967.89 602.12 972.35 597.38
  A 0.41 0.40 66.6 0 1 973.05 597.66
  L 973.05 630.46
  A 0.95 0.94 -90.0 0 0 973.99 631.41
  L 1006.41 631.41
  A 0.73 0.72 90.0 0 0 1007.13 630.68
  L 1007.13 449.59
  A 0.75 0.75 0.0 0 0 1006.38 448.84
  L 973.65 448.84
  A 0.60 0.59 -89.0 0 0 973.06 449.42
  Q 972.59 466.50 972.68 480.00
  Q 972.68 480.91 972.37 481.37
  Z
  M 1220.16 549.95
  L 1382.26 549.95
  A 1.64 1.62 -86.2 0 0 1383.87 548.53
  Q 1387.81 518.85 1374.18 492.55
  Q 1371.04 486.48 1366.81 481.15
  Q 1350.34 460.39 1325.73 451.33
  Q 1300.77 442.13 1273.50 445.15
  Q 1259.50 446.70 1248.64 450.43
  C 1238.50 453.93 1228.80 458.67 1220.64 465.22
  Q 1214.68 470.00 1208.33 476.82
  Q 1197.54 488.39 1191.30 504.35
  C 1188.45 511.61 1186.76 520.22 1185.73 527.01
  Q 1184.26 536.73 1185.17 549.04
  C 1185.46 553.04 1186.57 556.80 1187.23 560.77
  Q 1188.01 565.37 1189.32 569.44
  Q 1196.28 590.99 1212.32 606.73
  Q 1218.38 612.67 1228.04 618.61
  Q 1238.11 624.81 1245.48 627.46
  Q 1282.73 640.90 1321.20 629.98
  Q 1342.38 623.96 1357.95 610.20
  Q 1364.48 604.43 1372.15 593.50
  C 1375.64 588.53 1377.90 582.91 1379.84 576.86
  A 0.17 0.17 0.0 0 0 1379.69 576.64
  L 1346.67 575.17
  A 0.94 0.94 0.0 0 0 1345.81 575.63
  C 1342.76 580.82 1341.62 583.49 1338.30 587.19
  C 1327.81 598.86 1313.00 605.29 1297.51 607.10
  C 1273.54 609.89 1250.12 603.32 1234.03 585.04
  Q 1227.75 577.90 1223.77 568.35
  C 1221.37 562.57 1220.92 558.06 1219.56 550.67
  A 0.61 0.60 -5.5 0 1 1220.16 549.95
  Z
  M 1094.83 481.58
  C 1095.09 478.75 1095.35 475.21 1095.21 471.98
  Q 1094.83 463.39 1094.91 449.68
  A 0.85 0.84 -90.0 0 0 1094.07 448.83
  L 1060.99 448.83
  A 0.45 0.45 0.0 0 0 1060.54 449.28
  L 1060.54 630.39
  A 1.00 1.00 0.0 0 0 1061.54 631.39
  L 1094.99 631.39
  A 0.51 0.50 -0.6 0 0 1095.50 630.88
  Q 1095.40 552.16 1095.47 538.26
  Q 1095.50 530.46 1096.86 524.58
  Q 1098.72 516.55 1099.90 513.40
  C 1106.98 494.47 1119.74 482.51 1139.52 478.36
  Q 1149.24 476.32 1163.38 477.54
  C 1164.36 477.62 1165.05 478.15 1166.00 478.20
  A 0.63 0.62 3.8 0 0 1166.66 477.63
  L 1169.17 446.16
  A 0.46 0.45 11.2 0 0 1168.85 445.69
  Q 1165.67 444.72 1161.97 444.69
  Q 1128.37 444.42 1105.43 467.93
  Q 1101.79 471.65 1095.17 481.70
  A 0.19 0.19 0.0 0 1 1094.83 481.58
  Z
  M 1856.87 983.87
  Q 1849.04 991.70 1837.00 995.26
  Q 1836.06 995.54 1836.06 996.64
  Q 1836.06 997.74 1837.00 998.01
  Q 1849.05 1001.56 1856.88 1009.38
  Q 1864.72 1017.21 1868.28 1029.25
  Q 1868.56 1030.19 1869.66 1030.19
  Q 1870.75 1030.19 1871.03 1029.25
  Q 1874.57 1017.20 1882.40 1009.36
  Q 1890.22 1001.53 1902.27 997.97
  Q 1903.21 997.69 1903.21 996.59
  Q 1903.21 995.49 1902.27 995.22
  Q 1890.22 991.67 1882.38 983.85
  Q 1874.55 976.02 1870.99 963.98
  Q 1870.71 963.04 1869.61 963.04
  Q 1868.51 963.04 1868.24 963.98
  Q 1864.69 976.03 1856.87 983.87
  Z"
/>
<path fill="#e9e6d2" d="
  M 597.20 598.00
  A 0.33 0.33 0.0 0 0 596.61 598.22
  Q 596.88 605.92 597.61 639.50
  C 597.78 647.21 597.27 655.27 597.31 663.19
  Q 597.46 693.44 597.20 706.97
  A 0.71 0.70 0.4 0 1 596.49 707.66
  L 562.77 707.66
  A 0.48 0.48 0.0 0 1 562.29 707.18
  L 562.29 449.59
  A 0.77 0.76 -0.0 0 1 563.06 448.83
  L 594.85 448.83
  A 1.07 1.07 0.0 0 1 595.92 449.87
  L 596.71 480.62
  A 0.66 0.65 -29.5 0 0 597.92 480.95
  C 610.95 460.86 634.03 448.66 657.50 445.43
  Q 682.41 441.99 707.32 450.53
  Q 726.00 456.93 738.79 468.79
  C 760.29 488.71 770.51 516.33 768.90 545.74
  Q 768.02 561.74 762.71 574.97
  Q 755.26 593.49 742.73 606.25
  Q 735.89 613.21 723.31 621.33
  Q 719.15 624.01 714.88 625.67
  C 711.43 627.02 707.44 629.20 703.20 630.46
  Q 686.13 635.50 668.50 635.20
  Q 666.53 635.17 654.22 633.31
  C 635.16 630.42 617.04 619.56 604.15 605.81
  Q 600.15 601.55 597.20 598.00
  Z
  M 599.33 555.64
  C 602.73 571.47 612.71 585.81 626.23 594.72
  C 649.87 610.30 684.39 611.88 707.50 594.18
  Q 712.43 590.41 713.22 589.71
  C 725.68 578.56 732.94 562.39 734.17 546.01
  C 735.49 528.44 730.86 508.90 719.30 495.20
  C 709.34 483.40 695.48 474.96 680.34 472.81
  Q 667.83 471.04 654.16 473.02
  Q 633.90 475.96 618.18 490.66
  C 615.20 493.45 613.08 496.51 610.38 499.87
  C 603.45 508.52 600.09 518.61 597.97 530.44
  Q 596.12 540.72 599.33 555.64
  Z"
/>
<path fill="#e9e6d2" d="
  M 972.37 481.37
  Q 972.68 480.91 972.68 480.00
  Q 972.59 466.50 973.06 449.42
  A 0.60 0.59 -89.0 0 1 973.65 448.84
  L 1006.38 448.84
  A 0.75 0.75 0.0 0 1 1007.13 449.59
  L 1007.13 630.68
  A 0.73 0.72 90.0 0 1 1006.41 631.41
  L 973.99 631.41
  A 0.95 0.94 -90.0 0 1 973.05 630.46
  L 973.05 597.66
  A 0.41 0.40 66.6 0 0 972.35 597.38
  C 967.89 602.12 963.83 607.36 959.48 611.20
  Q 943.94 624.90 927.24 630.51
  Q 913.61 635.08 893.63 635.10
  Q 892.65 635.10 882.70 633.82
  Q 875.98 632.95 871.86 631.85
  Q 858.74 628.33 849.39 623.58
  C 808.91 603.02 789.91 555.22 802.70 511.93
  Q 804.91 504.46 806.53 501.25
  Q 809.27 495.85 810.59 493.02
  C 812.63 488.64 815.06 484.90 817.93 481.42
  C 825.74 471.97 834.63 463.29 845.36 457.60
  Q 878.92 439.82 915.16 446.01
  Q 933.37 449.12 947.17 457.74
  Q 961.93 466.95 971.78 481.38
  A 0.36 0.35 -45.8 0 0 972.37 481.37
  Z
  M 833.58 535.36
  C 832.57 552.78 837.65 569.94 848.47 583.08
  C 857.38 593.90 869.87 601.31 883.28 604.65
  C 894.24 607.37 909.01 607.99 920.44 604.77
  Q 929.92 602.10 936.08 598.93
  C 956.92 588.21 970.62 566.87 971.98 543.38
  C 973.34 519.90 962.19 497.11 942.74 484.06
  Q 936.98 480.20 927.87 476.45
  C 916.89 471.93 902.15 470.84 890.95 472.28
  C 877.24 474.05 863.98 479.96 853.88 489.68
  C 841.62 501.49 834.59 517.94 833.58 535.36
  Z"
/>
<path fill="#e9e6d2" d="
  M 1220.16 549.95
  A 0.61 0.60 -5.5 0 0 1219.56 550.67
  C 1220.92 558.06 1221.37 562.57 1223.77 568.35
  Q 1227.75 577.90 1234.03 585.04
  C 1250.12 603.32 1273.54 609.89 1297.51 607.10
  C 1313.00 605.29 1327.81 598.86 1338.30 587.19
  C 1341.62 583.49 1342.76 580.82 1345.81 575.63
  A 0.94 0.94 0.0 0 1 1346.67 575.17
  L 1379.69 576.64
  A 0.17 0.17 0.0 0 1 1379.84 576.86
  C 1377.90 582.91 1375.64 588.53 1372.15 593.50
  Q 1364.48 604.43 1357.95 610.20
  Q 1342.38 623.96 1321.20 629.98
  Q 1282.73 640.90 1245.48 627.46
  Q 1238.11 624.81 1228.04 618.61
  Q 1218.38 612.67 1212.32 606.73
  Q 1196.28 590.99 1189.32 569.44
  Q 1188.01 565.37 1187.23 560.77
  C 1186.57 556.80 1185.46 553.04 1185.17 549.04
  Q 1184.26 536.73 1185.73 527.01
  C 1186.76 520.22 1188.45 511.61 1191.30 504.35
  Q 1197.54 488.39 1208.33 476.82
  Q 1214.68 470.00 1220.64 465.22
  C 1228.80 458.67 1238.50 453.93 1248.64 450.43
  Q 1259.50 446.70 1273.50 445.15
  Q 1300.77 442.13 1325.73 451.33
  Q 1350.34 460.39 1366.81 481.15
  Q 1371.04 486.48 1374.18 492.55
  Q 1387.81 518.85 1383.87 548.53
  A 1.64 1.62 -86.2 0 1 1382.26 549.95
  L 1220.16 549.95
  Z
  M 1349.79 524.91
  Q 1348.52 517.64 1348.45 517.27
  C 1345.52 502.37 1335.74 489.16 1322.99 481.14
  Q 1313.31 475.05 1301.46 472.76
  C 1281.08 468.83 1257.05 472.74 1240.85 487.07
  Q 1234.91 492.31 1232.42 495.67
  Q 1222.57 508.90 1219.79 524.93
  A 0.42 0.42 0.0 0 0 1220.20 525.42
  L 1349.36 525.42
  A 0.44 0.43 -5.0 0 0 1349.79 524.91
  Z"
/>
<path fill="#e9e6d2" d="
  M 1095.17 481.70
  Q 1101.79 471.65 1105.43 467.93
  Q 1128.37 444.42 1161.97 444.69
  Q 1165.67 444.72 1168.85 445.69
  A 0.46 0.45 11.2 0 1 1169.17 446.16
  L 1166.66 477.63
  A 0.63 0.62 3.8 0 1 1166.00 478.20
  C 1165.05 478.15 1164.36 477.62 1163.38 477.54
  Q 1149.24 476.32 1139.52 478.36
  C 1119.74 482.51 1106.98 494.47 1099.90 513.40
  Q 1098.72 516.55 1096.86 524.58
  Q 1095.50 530.46 1095.47 538.26
  Q 1095.40 552.16 1095.50 630.88
  A 0.51 0.50 -0.6 0 1 1094.99 631.39
  L 1061.54 631.39
  A 1.00 1.00 0.0 0 1 1060.54 630.39
  L 1060.54 449.28
  A 0.45 0.45 0.0 0 1 1060.99 448.83
  L 1094.07 448.83
  A 0.85 0.84 -90.0 0 1 1094.91 449.68
  Q 1094.83 463.39 1095.21 471.98
  C 1095.35 475.21 1095.09 478.75 1094.83 481.58
  A 0.19 0.19 0.0 0 0 1095.17 481.70
  Z"
/>
<path fill="#212428" d="
  M 1349.79 524.91
  A 0.44 0.43 -5.0 0 1 1349.36 525.42
  L 1220.20 525.42
  A 0.42 0.42 0.0 0 1 1219.79 524.93
  Q 1222.57 508.90 1232.42 495.67
  Q 1234.91 492.31 1240.85 487.07
  C 1257.05 472.74 1281.08 468.83 1301.46 472.76
  Q 1313.31 475.05 1322.99 481.14
  C 1335.74 489.16 1345.52 502.37 1348.45 517.27
  Q 1348.52 517.64 1349.79 524.91
  Z"
/>
<path fill="#212428" d="
  M 626.23 594.72
  C 612.71 585.81 602.73 571.47 599.33 555.64
  Q 596.12 540.72 597.97 530.44
  C 600.09 518.61 603.45 508.52 610.38 499.87
  C 613.08 496.51 615.20 493.45 618.18 490.66
  Q 633.90 475.96 654.16 473.02
  Q 667.83 471.04 680.34 472.81
  C 695.48 474.96 709.34 483.40 719.30 495.20
  C 730.86 508.90 735.49 528.44 734.17 546.01
  C 732.94 562.39 725.68 578.56 713.22 589.71
  Q 712.43 590.41 707.50 594.18
  C 684.39 611.88 649.87 610.30 626.23 594.72
  Z"
/>
<path fill="#212428" d="
  M 971.98 543.38
  C 970.62 566.87 956.92 588.21 936.08 598.93
  Q 929.92 602.10 920.44 604.77
  C 909.01 607.99 894.24 607.37 883.28 604.65
  C 869.87 601.31 857.38 593.90 848.47 583.08
  C 837.65 569.94 832.57 552.78 833.58 535.36
  C 834.59 517.94 841.62 501.49 853.88 489.68
  C 863.98 479.96 877.24 474.05 890.95 472.28
  C 902.15 470.84 916.89 471.93 927.87 476.45
  Q 936.98 480.20 942.74 484.06
  C 962.19 497.11 973.34 519.90 971.98 543.38
  Z"
/>
<path fill="#909194" d="
  M 1869.61 963.04
  Q 1870.71 963.04 1870.99 963.98
  Q 1874.55 976.02 1882.38 983.85
  Q 1890.22 991.67 1902.27 995.22
  Q 1903.21 995.49 1903.21 996.59
  Q 1903.21 997.69 1902.27 997.97
  Q 1890.22 1001.53 1882.40 1009.36
  Q 1874.57 1017.20 1871.03 1029.25
  Q 1870.75 1030.19 1869.66 1030.19
  Q 1868.56 1030.19 1868.28 1029.25
  Q 1864.72 1017.21 1856.88 1009.38
  Q 1849.05 1001.56 1837.00 998.01
  Q 1836.06 997.74 1836.06 996.64
  Q 1836.06 995.54 1837.00 995.26
  Q 1849.04 991.70 1856.87 983.87
  Q 1864.69 976.03 1868.24 963.98
  Q 1868.51 963.04 1869.61 963.04
  Z"
/>
</svg>
